<svg width="417" height="670" viewBox="0 0 417 670" fill="none" xmlns="http://www.w3.org/2000/svg">
<rect width="417" height="670" fill="white"/>
<rect x="31.5" y="35.5" width="351" height="598" rx="19.5" stroke="#FF5A5F"/>
<path d="M62.616 486.276V487.86C63.588 487.944 64.632 487.992 65.892 487.992C67.032 487.992 68.52 487.92 69.36 487.848V486.252C68.436 486.348 67.068 486.42 65.88 486.42C64.62 486.42 63.504 486.372 62.616 486.276ZM63.624 491.364L62.052 491.22C61.956 491.664 61.812 492.252 61.812 492.948C61.812 494.592 63.192 495.516 65.94 495.516C67.62 495.516 69.06 495.36 70.104 495.108L70.092 493.416C69.036 493.716 67.5 493.896 65.88 493.896C64.152 493.896 63.42 493.344 63.42 492.576C63.42 492.168 63.504 491.796 63.624 491.364ZM78.924 486.084L77.22 485.4C77.016 485.904 76.788 486.3 76.632 486.624C75.996 487.764 73.536 492.66 72.648 495.06L74.34 495.636C74.52 495 74.94 493.656 75.252 492.96C75.684 491.988 76.356 491.148 77.172 491.148C77.604 491.148 77.844 491.4 77.88 491.82C77.916 492.312 77.904 493.296 77.952 493.932C78 494.808 78.624 495.6 79.956 495.6C81.792 495.6 82.908 494.232 83.532 492.18L82.236 491.124C81.888 492.612 81.252 493.956 80.208 493.956C79.812 493.956 79.476 493.776 79.428 493.308C79.368 492.804 79.404 491.844 79.38 491.304C79.332 490.308 78.792 489.744 77.892 489.744C77.436 489.744 76.956 489.852 76.512 490.104C77.112 489.048 77.952 487.512 78.54 486.648C78.672 486.456 78.804 486.252 78.924 486.084ZM89.664 485.34L88.008 485.172C87.984 485.796 87.852 486.516 87.684 487.176C87.312 487.212 86.952 487.224 86.592 487.224C86.148 487.224 85.512 487.2 84.996 487.14L85.104 488.532C85.62 488.568 86.112 488.58 86.604 488.58C86.808 488.58 87.012 488.58 87.228 488.568C86.7 489.864 85.728 491.628 84.78 492.804L86.232 493.548C87.204 492.192 88.224 490.092 88.8 488.412C89.604 488.292 90.348 488.136 90.9 487.992L90.852 486.6C90.384 486.744 89.82 486.876 89.232 486.984C89.412 486.336 89.568 485.724 89.664 485.34ZM89.04 493.644C89.04 493.224 89.484 492.912 90.18 492.912C90.516 492.912 90.84 492.96 91.152 493.032C91.152 493.128 91.152 493.2 91.152 493.272C91.152 493.932 90.9 494.388 90.072 494.388C89.412 494.388 89.04 494.088 89.04 493.644ZM92.472 489.072H90.972C90.996 489.804 91.056 490.872 91.104 491.76C90.828 491.736 90.564 491.712 90.276 491.712C88.608 491.712 87.624 492.612 87.624 493.788C87.624 495.108 88.8 495.768 90.288 495.768C91.992 495.768 92.604 494.904 92.604 493.788C92.604 493.752 92.604 493.704 92.604 493.668C93.264 494.064 93.804 494.568 94.224 494.952L95.028 493.668C94.416 493.116 93.576 492.516 92.544 492.132C92.52 491.532 92.484 490.956 92.472 490.608C92.46 490.08 92.436 489.576 92.472 489.072ZM94.536 489.708L95.388 488.448C94.776 488.004 93.288 487.188 92.424 486.816L91.656 488.004C92.472 488.376 93.84 489.156 94.536 489.708ZM105.468 486.696H102.372V486.12H105.468V486.696ZM105.468 488.208H102.372V487.632H105.468V488.208ZM106.788 485.136H101.112V489.192H106.788V485.136ZM107.604 490.848V489.648H100.056V490.848H101.412C101.112 491.316 100.74 491.748 100.308 492.12L100.056 491.1L99.096 491.52V488.688H100.224V487.344H99.096V484.98H97.776V487.344H96.576V488.688H97.776V492.072C97.212 492.3 96.708 492.504 96.3 492.66L96.828 494.1C97.56 493.74 98.424 493.308 99.288 492.876C99.588 493.068 100.044 493.488 100.224 493.716C100.716 493.404 101.184 493.008 101.628 492.54H102.336C101.7 493.428 100.776 494.268 99.888 494.712C100.224 494.916 100.596 495.276 100.824 495.552C101.868 494.892 102.984 493.692 103.632 492.54H104.34C103.824 493.656 103.02 494.724 102.108 495.3C102.468 495.492 102.876 495.816 103.116 496.092C104.088 495.336 105.024 493.884 105.516 492.54H105.984C105.852 493.992 105.708 494.604 105.54 494.784C105.444 494.892 105.348 494.916 105.18 494.916C105.024 494.916 104.712 494.916 104.328 494.88C104.508 495.18 104.628 495.66 104.652 495.996C105.132 496.02 105.588 496.008 105.864 495.972C106.164 495.936 106.428 495.84 106.656 495.564C106.98 495.216 107.172 494.256 107.34 491.916C107.352 491.748 107.364 491.424 107.364 491.424H102.492C102.612 491.232 102.732 491.04 102.828 490.848H107.604ZM116.388 492.396V494.352H111.648V492.396H116.388ZM110.244 496.056H111.648V495.612H116.388V496.056H117.852V491.136H110.244V496.056ZM111.576 488.688C112.56 487.908 113.4 487.056 113.964 486.252C114.54 487.044 115.428 487.908 116.424 488.688H111.576ZM113.16 484.848C112.26 486.312 110.34 488.124 108.276 489.12C108.588 489.42 108.984 489.936 109.176 490.284C109.812 489.936 110.448 489.54 111.036 489.108V489.948H117.012V489.12C117.612 489.552 118.236 489.948 118.848 490.26C119.1 489.816 119.424 489.348 119.772 488.976C117.864 488.208 115.92 486.684 114.636 484.848H113.16ZM125.376 486.612V488.148C126.888 488.292 129.06 488.28 130.536 488.148V486.6C129.24 486.756 126.852 486.816 125.376 486.612ZM126.336 491.736L124.956 491.604C124.824 492.216 124.752 492.696 124.752 493.164C124.752 494.4 125.748 495.132 127.812 495.132C129.168 495.132 130.128 495.048 130.908 494.904L130.884 493.284C129.828 493.5 128.94 493.596 127.872 493.596C126.648 493.596 126.192 493.272 126.192 492.744C126.192 492.42 126.24 492.132 126.336 491.736ZM123.528 485.808L121.848 485.664C121.836 486.048 121.764 486.504 121.728 486.84C121.596 487.764 121.224 489.792 121.224 491.592C121.224 493.224 121.452 494.688 121.692 495.516L123.084 495.42C123.072 495.252 123.06 495.06 123.06 494.928C123.06 494.808 123.084 494.544 123.12 494.364C123.252 493.728 123.648 492.42 123.984 491.424L123.24 490.836C123.072 491.232 122.88 491.652 122.7 492.06C122.664 491.82 122.652 491.508 122.652 491.28C122.652 490.08 123.072 487.68 123.228 486.876C123.276 486.66 123.432 486.06 123.528 485.808ZM137.232 485.256H135.576C135.612 485.472 135.66 486.06 135.66 486.312C135.66 486.516 135.66 486.864 135.648 487.284C135.408 487.296 135.168 487.308 134.952 487.308C134.52 487.308 134.004 487.296 133.296 487.212L133.32 488.664C133.728 488.712 134.196 488.724 135 488.724C135.192 488.724 135.408 488.712 135.636 488.7C135.636 489.036 135.636 489.372 135.636 489.708C135.636 489.984 135.636 490.272 135.648 490.56C134.172 491.196 132.972 492.288 132.972 493.332C132.972 494.604 134.616 495.612 135.78 495.612C136.572 495.612 137.1 495.216 137.1 493.728C137.1 493.32 137.076 492.384 137.052 491.436C137.784 491.22 138.564 491.1 139.308 491.1C140.352 491.1 141.072 491.58 141.072 492.396C141.072 493.272 140.304 493.752 139.332 493.932C138.912 494.004 138.396 494.016 137.856 494.016L138.408 495.564C138.9 495.528 139.428 495.492 139.98 495.372C141.888 494.892 142.632 493.824 142.632 492.408C142.632 490.752 141.18 489.792 139.332 489.792C138.672 489.792 137.844 489.9 137.028 490.104C137.028 489.948 137.028 489.804 137.028 489.66C137.028 489.312 137.028 488.94 137.04 488.58C137.82 488.484 138.648 488.364 139.332 488.208L139.296 486.72C138.672 486.9 137.88 487.056 137.088 487.152C137.1 486.852 137.112 486.564 137.124 486.3C137.148 485.988 137.196 485.472 137.232 485.256ZM140.652 486.552L139.992 487.716C140.736 488.076 142.308 488.976 142.884 489.468L143.604 488.244C142.968 487.788 141.576 486.996 140.652 486.552ZM134.448 493.272C134.448 492.852 134.94 492.36 135.672 491.964C135.696 492.612 135.708 493.164 135.708 493.464C135.708 493.872 135.54 493.968 135.324 493.968C135.012 493.968 134.448 493.644 134.448 493.272ZM151.836 485.328H150.096C150.132 485.472 150.18 485.88 150.216 486.372C150.228 486.468 150.228 486.588 150.24 486.744C148.608 486.768 146.424 486.816 145.056 486.816L145.092 488.268C146.568 488.184 148.44 488.112 150.252 488.088C150.264 488.352 150.264 488.628 150.264 488.892C150.108 488.868 149.952 488.856 149.784 488.856C148.476 488.856 147.384 489.744 147.384 491.1C147.384 492.564 148.524 493.308 149.448 493.308C149.64 493.308 149.82 493.284 149.988 493.248C149.328 493.968 148.272 494.364 147.06 494.616L148.344 495.888C151.272 495.072 152.184 493.08 152.184 491.52C152.184 490.896 152.04 490.332 151.752 489.876C151.752 489.348 151.74 488.688 151.74 488.076C153.372 488.076 154.488 488.1 155.208 488.136L155.22 486.72C154.596 486.708 152.952 486.732 151.74 486.732C151.752 486.588 151.752 486.456 151.752 486.36C151.764 486.168 151.812 485.52 151.836 485.328ZM148.824 491.076C148.824 490.44 149.28 490.116 149.748 490.116C150.072 490.116 150.36 490.26 150.528 490.536C150.696 491.592 150.252 491.976 149.748 491.976C149.268 491.976 148.824 491.628 148.824 491.076ZM163.836 485.328H162.096C162.132 485.472 162.18 485.88 162.216 486.372C162.228 486.468 162.228 486.588 162.24 486.744C160.608 486.768 158.424 486.816 157.056 486.816L157.092 488.268C158.568 488.184 160.44 488.112 162.252 488.088C162.264 488.352 162.264 488.628 162.264 488.892C162.108 488.868 161.952 488.856 161.784 488.856C160.476 488.856 159.384 489.744 159.384 491.1C159.384 492.564 160.524 493.308 161.448 493.308C161.64 493.308 161.82 493.284 161.988 493.248C161.328 493.968 160.272 494.364 159.06 494.616L160.344 495.888C163.272 495.072 164.184 493.08 164.184 491.52C164.184 490.896 164.04 490.332 163.752 489.876C163.752 489.348 163.74 488.688 163.74 488.076C165.372 488.076 166.488 488.1 167.208 488.136L167.22 486.72C166.596 486.708 164.952 486.732 163.74 486.732C163.752 486.588 163.752 486.456 163.752 486.36C163.764 486.168 163.812 485.52 163.836 485.328ZM160.824 491.076C160.824 490.44 161.28 490.116 161.748 490.116C162.072 490.116 162.36 490.26 162.528 490.536C162.696 491.592 162.252 491.976 161.748 491.976C161.268 491.976 160.824 491.628 160.824 491.076ZM176.388 485.592L174.732 485.436C174.732 485.712 174.696 486.228 174.636 486.576C174.612 486.756 174.576 486.948 174.528 487.152C173.604 487.188 172.716 487.416 171.804 487.872C171.72 487.62 171.648 487.368 171.588 487.14C171.492 486.78 171.396 486.384 171.324 485.988L169.752 486.48C169.968 486.912 170.1 487.296 170.232 487.728C170.34 488.052 170.436 488.376 170.556 488.7C169.464 489.66 168.78 491.124 168.78 492.492C168.78 494.04 169.692 494.88 170.688 494.88C171.576 494.88 172.248 494.484 173.052 493.608C173.172 493.764 173.316 493.92 173.46 494.076L174.672 493.116C174.444 492.9 174.228 492.648 174.012 492.396C174.696 491.352 175.224 489.972 175.644 488.58C176.844 488.904 177.588 489.9 177.588 491.232C177.588 492.732 176.544 494.088 173.916 494.304L174.828 495.696C177.324 495.312 179.136 493.86 179.136 491.316C179.136 489.216 177.888 487.692 176.004 487.26C176.04 487.104 176.076 486.96 176.112 486.804C176.184 486.504 176.292 485.916 176.388 485.592ZM170.184 492.372C170.184 491.628 170.508 490.776 171.072 490.116C171.42 491.016 171.804 491.832 172.188 492.42C171.744 492.96 171.3 493.332 170.868 493.332C170.436 493.332 170.184 492.96 170.184 492.372ZM172.236 489.18C172.8 488.844 173.436 488.592 174.168 488.508C173.892 489.396 173.532 490.332 173.1 491.1C172.812 490.62 172.512 489.924 172.236 489.18ZM186 488.808C186.636 488.808 187.14 488.328 187.14 487.692C187.14 487.032 186.636 486.552 186 486.552C185.364 486.552 184.86 487.032 184.86 487.692C184.86 488.328 185.364 488.808 186 488.808ZM186 494.532C186.636 494.532 187.14 494.052 187.14 493.416C187.14 492.756 186.636 492.276 186 492.276C185.364 492.276 184.86 492.756 184.86 493.416C184.86 494.052 185.364 494.532 186 494.532Z" fill="#545252"/>
<path d="M80.376 549.224L81.016 550.472C83.24 549.784 85.432 548.824 87.112 547.864V553.784C87.112 554.392 87.064 555.192 87.016 555.496H88.584C88.52 555.176 88.488 554.392 88.488 553.784V547.032C90.12 545.944 91.592 544.728 92.808 543.464L91.736 542.472C90.632 543.8 89.032 545.192 87.368 546.232C85.592 547.352 83.144 548.472 80.376 549.224ZM98.632 543.272L97.72 544.248C98.904 545.048 100.904 546.76 101.704 547.592L102.712 546.584C101.816 545.688 99.768 544.024 98.632 543.272ZM97.256 553.992L98.104 555.304C100.776 554.808 102.792 553.832 104.392 552.824C106.808 551.304 108.68 549.128 109.768 547.128L109 545.768C108.072 547.736 106.12 550.104 103.656 551.656C102.136 552.6 100.056 553.576 97.256 553.992ZM119.576 542.44L118.12 541.976C118.024 542.392 117.768 542.952 117.608 543.24C116.856 544.696 115.224 547.096 112.472 548.808L113.544 549.64C115.336 548.408 116.76 546.84 117.784 545.4H123.192C122.872 546.712 122.056 548.44 121.016 549.832C119.896 549.048 118.696 548.28 117.64 547.672L116.776 548.552C117.8 549.192 119.016 550.024 120.168 550.856C118.728 552.408 116.68 553.88 113.976 554.712L115.128 555.704C117.832 554.696 119.8 553.224 121.224 551.64C121.88 552.168 122.488 552.664 122.968 553.096L123.912 551.992C123.4 551.576 122.76 551.08 122.088 550.584C123.304 548.952 124.168 547.08 124.584 545.608C124.68 545.352 124.824 544.968 124.968 544.744L123.912 544.104C123.64 544.2 123.288 544.264 122.856 544.264H118.52C118.648 544.072 118.76 543.88 118.856 543.688C119.016 543.4 119.304 542.856 119.576 542.44ZM128.632 548.072V549.64C129.128 549.592 129.976 549.56 130.856 549.56H139.64C140.36 549.56 141.032 549.624 141.352 549.64V548.072C141 548.104 140.424 548.152 139.624 548.152H130.856C129.96 548.152 129.112 548.104 128.632 548.072ZM145.835 543.272L144.923 544.248C146.107 545.048 148.107 546.76 148.907 547.592L149.915 546.584C149.019 545.688 146.971 544.024 145.835 543.272ZM144.459 553.992L145.307 555.304C147.979 554.808 149.995 553.832 151.595 552.824C154.011 551.304 155.883 549.128 156.971 547.128L156.203 545.768C155.275 547.736 153.323 550.104 150.859 551.656C149.339 552.6 147.259 553.576 144.459 553.992ZM166.203 547.224C165.259 547.224 164.507 547.976 164.507 548.92C164.507 549.864 165.259 550.616 166.203 550.616C167.147 550.616 167.899 549.864 167.899 548.92C167.899 547.976 167.147 547.224 166.203 547.224ZM189.147 546.152V544.968H182.811V541.624H181.579V544.968H175.291V546.152H180.843C179.499 548.888 177.179 551.48 174.747 552.744C175.019 552.968 175.419 553.416 175.595 553.704C177.947 552.344 180.107 549.928 181.579 547.16V552.056H178.459V553.24H181.579V556.216H182.811V553.24H185.851V552.056H182.811V547.16C184.251 549.928 186.395 552.36 188.811 553.688C188.987 553.352 189.403 552.888 189.691 552.648C187.179 551.432 184.875 548.888 183.547 546.152H189.147ZM204.043 541.864C202.187 542.424 198.779 542.808 195.979 542.984C196.107 543.256 196.251 543.672 196.283 543.96C199.163 543.784 202.667 543.432 204.859 542.776L204.043 541.864ZM203.115 548.296C203.819 547.304 204.683 545.72 205.339 544.376L204.219 543.96C203.755 545.16 202.875 546.872 202.203 547.912L203.115 548.296ZM201.227 547.096C201.179 546.328 200.859 545.112 200.427 544.168L199.403 544.36C199.819 545.32 200.139 546.584 200.155 547.352L201.227 547.096ZM198.363 547.528C198.203 546.728 197.707 545.496 197.147 544.568L196.203 544.84C196.731 545.8 197.195 547.048 197.339 547.864L198.363 547.528ZM195.771 549.448L195.611 548.344C195.083 548.52 194.555 548.696 194.027 548.856V545.912H195.739V544.824H194.027V541.624H192.923V544.824H190.923V545.912H192.923V549.192C192.091 549.448 191.323 549.688 190.715 549.848L191.019 551L192.923 550.376V554.84C192.923 555.08 192.843 555.128 192.651 555.128C192.459 555.144 191.835 555.144 191.147 555.128C191.307 555.448 191.451 555.944 191.499 556.216C192.491 556.232 193.099 556.184 193.483 556.008C193.883 555.816 194.027 555.496 194.027 554.84V550.024L195.771 549.448ZM205.307 550.52V549.448H201.211V547.688H200.091V549.448H196.043V550.52H199.323C198.347 552.104 196.747 553.576 195.115 554.328C195.387 554.52 195.739 554.952 195.931 555.256C197.499 554.392 199.051 552.888 200.091 551.192V556.12H201.211V551.176C202.171 552.792 203.611 554.344 204.987 555.208C205.179 554.92 205.531 554.504 205.787 554.312C204.379 553.56 202.859 552.056 201.963 550.52H205.307ZM214.875 550.216V547.56H219.179V550.216H214.875ZM209.803 550.216C209.851 549.624 209.867 549.032 209.867 548.504V547.56H213.691V550.216H209.803ZM213.691 543.88V546.44H209.867V543.88H213.691ZM219.179 546.44H214.875V543.88H219.179V546.44ZM220.347 542.744H208.699V548.504C208.699 550.728 208.539 553.544 206.779 555.528C207.035 555.672 207.515 556.072 207.691 556.312C208.907 554.952 209.451 553.128 209.691 551.352H213.691V556.072H214.875V551.352H219.179V554.6C219.179 554.904 219.067 555 218.747 555.016C218.459 555.016 217.371 555.032 216.251 554.984C216.411 555.304 216.603 555.816 216.651 556.136C218.155 556.152 219.083 556.136 219.627 555.944C220.139 555.736 220.347 555.384 220.347 554.616V542.744ZM226.699 542.76L225.435 543.288C226.187 545.016 227.035 546.888 227.771 548.216C226.043 549.4 225.003 550.696 225.003 552.36C225.003 554.76 227.163 555.656 230.171 555.656C232.171 555.656 234.027 555.48 235.227 555.256L235.243 553.832C233.995 554.152 231.867 554.376 230.123 554.376C227.595 554.376 226.331 553.544 226.331 552.216C226.331 551 227.227 549.944 228.715 548.984C230.267 547.944 232.059 547.112 233.147 546.536C233.611 546.296 234.011 546.088 234.363 545.88L233.723 544.712C233.387 544.984 233.035 545.192 232.587 545.464C231.707 545.96 230.251 546.664 228.843 547.512C228.155 546.248 227.339 544.52 226.699 542.76ZM234.635 542.6L233.771 542.968C234.219 543.576 234.763 544.536 235.083 545.192L235.947 544.808C235.611 544.152 235.035 543.176 234.635 542.6ZM236.395 541.96L235.547 542.312C236.011 542.92 236.539 543.832 236.891 544.52L237.739 544.136C237.435 543.544 236.827 542.536 236.395 541.96ZM244.971 542.472L243.547 542.392C243.563 542.84 243.547 543.208 243.483 543.72C243.451 544.008 243.387 544.36 243.307 544.776C243.211 544.776 243.131 544.776 243.035 544.776C242.075 544.776 240.843 544.648 239.995 544.504L240.011 545.752C240.939 545.848 241.963 545.912 243.051 545.912H243.067C242.667 547.72 242.027 550.008 241.211 551.608L242.411 552.04C242.555 551.752 242.699 551.544 242.907 551.304C243.963 550.024 245.723 549.368 247.627 549.368C249.499 549.368 250.491 550.296 250.491 551.496C250.491 554.12 246.891 554.76 243.195 554.248L243.515 555.512C248.379 556.04 251.803 554.792 251.803 551.464C251.803 549.592 250.315 548.296 247.771 548.296C246.091 548.296 244.651 548.68 243.259 549.656C243.611 548.744 243.979 547.224 244.267 545.88C246.347 545.8 248.891 545.528 250.763 545.208L250.747 543.976C248.779 544.408 246.427 544.664 244.507 544.744C244.587 544.376 244.635 544.072 244.683 543.816C244.763 543.4 244.859 542.904 244.971 542.472ZM259.563 542.456L259.243 543.672C260.459 544.008 263.931 544.712 265.451 544.92L265.755 543.688C264.347 543.56 260.939 542.888 259.563 542.456ZM259.211 545.368L257.867 545.192C257.771 546.872 257.371 550.232 257.051 551.688L258.235 551.976C258.331 551.72 258.475 551.448 258.715 551.176C259.835 549.832 261.563 549.032 263.675 549.032C265.307 549.032 266.491 549.944 266.491 551.224C266.491 553.416 264.027 554.872 258.971 554.248L259.355 555.56C265.307 556.056 267.835 554.12 267.835 551.256C267.835 549.384 266.203 547.912 263.755 547.912C261.835 547.912 260.075 548.52 258.539 549.864C258.715 548.84 258.987 546.456 259.211 545.368ZM277.291 542.424L275.851 542.328C275.883 542.632 275.883 542.92 275.835 543.464C275.803 543.928 275.739 544.504 275.659 545.144C274.475 545.064 273.163 544.872 272.155 544.552L272.091 545.72C273.099 545.976 274.363 546.184 275.531 546.28C275.403 547.224 275.275 548.232 275.179 549.176C274.043 549.08 272.827 548.888 271.771 548.52L271.707 549.752C272.683 550.056 273.851 550.232 275.051 550.328C274.971 551.08 274.923 551.72 274.923 552.168C274.923 554.792 276.667 555.736 278.843 555.736C282.011 555.736 284.123 554.296 284.123 551.912C284.123 550.536 283.595 549.432 282.491 548.216L281.083 548.504C282.251 549.496 282.827 550.696 282.827 551.768C282.827 553.416 281.275 554.488 278.843 554.488C277.019 554.488 276.155 553.528 276.155 551.976C276.155 551.592 276.187 551.032 276.251 550.392C276.443 550.392 276.635 550.392 276.827 550.392C277.915 550.392 278.907 550.344 279.963 550.232L279.995 549.016C278.875 549.176 277.755 549.224 276.667 549.224C276.571 549.224 276.475 549.224 276.363 549.224C276.475 548.28 276.603 547.272 276.715 546.328C276.747 546.328 276.795 546.328 276.827 546.328C278.123 546.328 279.051 546.28 280.075 546.184L280.107 544.984C279.179 545.128 278.091 545.192 276.859 545.192C276.955 544.52 277.035 543.96 277.083 543.544C277.131 543.192 277.179 542.856 277.291 542.424ZM301.227 547.4V546.184H294.619C294.843 544.504 294.859 542.92 294.875 541.64H293.595C293.579 542.904 293.595 544.504 293.355 546.184H287.259V547.4H293.163C292.507 550.424 290.907 553.496 286.939 555.224C287.275 555.464 287.659 555.88 287.835 556.2C291.723 554.424 293.451 551.352 294.219 548.28C295.483 551.912 297.515 554.744 300.587 556.2C300.795 555.848 301.195 555.352 301.483 555.08C298.395 553.816 296.315 550.92 295.195 547.4H301.227ZM309.387 542.104C309.275 544.216 309.275 551.848 302.795 555.16C303.163 555.4 303.547 555.784 303.755 556.072C307.803 553.88 309.451 550.024 310.155 546.824C310.923 550.024 312.683 554.12 316.811 556.072C316.987 555.752 317.355 555.352 317.691 555.096C311.675 552.344 310.811 544.952 310.667 542.84C310.683 542.568 310.683 542.312 310.699 542.104H309.387ZM325.211 541.928C324.955 542.552 324.411 543.48 324.027 544.04L324.827 544.424C325.243 543.896 325.787 543.096 326.251 542.36L325.211 541.928ZM321.515 544.04C321.355 543.48 320.923 542.632 320.475 541.992L319.579 542.36C320.011 543.016 320.427 543.896 320.571 544.456L321.515 544.04ZM328.523 545.656H331.307C331.019 547.64 330.587 549.336 329.899 550.76C329.259 549.272 328.811 547.544 328.507 545.704L328.523 545.656ZM324.155 551.08C323.947 551.944 323.627 552.648 323.147 553.224C322.523 552.92 321.883 552.632 321.243 552.376C321.451 551.96 321.691 551.528 321.915 551.08H324.155ZM333.499 545.656V544.536H328.859C329.083 543.656 329.291 542.728 329.451 541.784L328.235 541.608C327.803 544.424 326.971 547.096 325.627 548.776C325.899 548.968 326.411 549.368 326.587 549.592C327.019 549.016 327.419 548.344 327.755 547.592C328.123 549.224 328.587 550.712 329.195 552.008C328.411 553.208 327.355 554.168 325.995 554.92C325.499 554.552 324.859 554.136 324.155 553.752C324.699 553.032 325.067 552.152 325.291 551.08H326.683V550.088H322.411C322.603 549.704 322.779 549.32 322.955 548.968L322.683 548.904H323.371V546.52C324.139 547.096 325.147 547.864 325.563 548.248L326.219 547.4C325.787 547.08 324.059 545.992 323.371 545.592V545.512H326.619V544.536H323.371V541.608H322.267V544.536H318.987V545.512H321.947C321.163 546.552 319.947 547.544 318.811 548.056C319.035 548.264 319.323 548.68 319.467 548.952C320.443 548.424 321.467 547.544 322.267 546.6V548.808L321.851 548.712C321.659 549.144 321.435 549.608 321.195 550.088H318.891V551.08H320.699C320.267 551.912 319.835 552.728 319.483 553.336L320.507 553.704L320.763 553.256C321.291 553.48 321.819 553.736 322.331 553.992C321.515 554.584 320.395 554.984 318.923 555.24C319.147 555.464 319.387 555.896 319.467 556.216C321.179 555.848 322.443 555.32 323.371 554.552C324.107 554.984 324.747 555.416 325.243 555.816L325.611 555.432C325.819 555.704 326.027 556.056 326.123 556.264C327.691 555.464 328.891 554.44 329.835 553.192C330.619 554.472 331.595 555.496 332.827 556.216C332.987 555.896 333.371 555.432 333.643 555.208C332.363 554.536 331.355 553.448 330.555 552.072C331.531 550.36 332.139 548.248 332.539 545.656H333.499ZM348.043 541.864C346.187 542.424 342.779 542.808 339.979 542.984C340.107 543.256 340.251 543.672 340.283 543.96C343.163 543.784 346.667 543.432 348.859 542.776L348.043 541.864ZM347.115 548.296C347.819 547.304 348.683 545.72 349.339 544.376L348.219 543.96C347.755 545.16 346.875 546.872 346.203 547.912L347.115 548.296ZM345.227 547.096C345.179 546.328 344.859 545.112 344.427 544.168L343.403 544.36C343.819 545.32 344.139 546.584 344.155 547.352L345.227 547.096ZM342.363 547.528C342.203 546.728 341.707 545.496 341.147 544.568L340.203 544.84C340.731 545.8 341.195 547.048 341.339 547.864L342.363 547.528ZM339.771 549.448L339.611 548.344C339.083 548.52 338.555 548.696 338.027 548.856V545.912H339.739V544.824H338.027V541.624H336.923V544.824H334.923V545.912H336.923V549.192C336.091 549.448 335.323 549.688 334.715 549.848L335.019 551L336.923 550.376V554.84C336.923 555.08 336.843 555.128 336.651 555.128C336.459 555.144 335.835 555.144 335.147 555.128C335.307 555.448 335.451 555.944 335.499 556.216C336.491 556.232 337.099 556.184 337.483 556.008C337.883 555.816 338.027 555.496 338.027 554.84V550.024L339.771 549.448ZM349.307 550.52V549.448H345.211V547.688H344.091V549.448H340.043V550.52H343.323C342.347 552.104 340.747 553.576 339.115 554.328C339.387 554.52 339.739 554.952 339.931 555.256C341.499 554.392 343.051 552.888 344.091 551.192V556.12H345.211V551.176C346.171 552.792 347.611 554.344 348.987 555.208C349.179 554.92 349.531 554.504 349.787 554.312C348.379 553.56 346.859 552.056 345.963 550.52H349.307ZM358.875 550.216V547.56H363.179V550.216H358.875ZM353.803 550.216C353.851 549.624 353.867 549.032 353.867 548.504V547.56H357.691V550.216H353.803ZM357.691 543.88V546.44H353.867V543.88H357.691ZM363.179 546.44H358.875V543.88H363.179V546.44ZM364.347 542.744H352.699V548.504C352.699 550.728 352.539 553.544 350.779 555.528C351.035 555.672 351.515 556.072 351.691 556.312C352.907 554.952 353.451 553.128 353.691 551.352H357.691V556.072H358.875V551.352H363.179V554.6C363.179 554.904 363.067 555 362.747 555.016C362.459 555.016 361.371 555.032 360.251 554.984C360.411 555.304 360.603 555.816 360.651 556.136C362.155 556.152 363.083 556.136 363.627 555.944C364.139 555.736 364.347 555.384 364.347 554.616V542.744Z" fill="#545252"/>
<path d="M60 549.884L63.5686 555L73 545" stroke="#FF5A5F" stroke-width="2"/>
<path d="M31 55C31 43.9543 39.9543 35 51 35H363C374.046 35 383 43.9543 383 55V204H31V55Z" fill="#FF5A5F" fill-opacity="0.8"/>
<path d="M166.65 89.69L164.28 87.47C163.71 87.65 162.06 87.74 161.22 87.74H145.05C143.79 87.74 142.53 87.62 141.39 87.44V91.61C142.8 91.49 143.79 91.4 145.05 91.4H160.68C159.9 92.87 157.56 95.51 155.16 96.98L158.28 99.47C161.22 97.37 164.07 93.59 165.48 91.25C165.75 90.8 166.32 90.08 166.65 89.69ZM154.41 93.74H150.06C150.21 94.7 150.27 95.51 150.27 96.44C150.27 101.36 149.55 104.54 145.74 107.18C144.63 107.99 143.55 108.5 142.59 108.83L146.1 111.68C154.26 107.3 154.41 101.18 154.41 93.74ZM188.46 87.68L185.94 88.73C187.05 90.29 187.71 91.49 188.58 93.38L191.19 92.21C190.5 90.86 189.3 88.94 188.46 87.68ZM192.39 86.03L189.9 87.2C191.01 88.7 191.73 89.81 192.69 91.7L195.21 90.47C194.52 89.12 193.26 87.23 192.39 86.03ZM176.49 107.57C176.49 108.74 176.37 110.57 176.19 111.74H180.9C180.75 110.51 180.6 108.41 180.6 107.57V99.08C183.84 100.16 188.34 101.9 191.46 103.55L193.14 99.38C190.38 98.03 184.59 95.9 180.6 94.7V90.32C180.6 89.06 180.75 87.74 180.87 86.69H176.19C176.4 87.77 176.49 89.24 176.49 90.32V107.57ZM221.4 86.06L219.03 87.05C219.84 88.19 220.74 89.99 221.37 91.22L223.77 90.17C223.2 89.06 222.15 87.17 221.4 86.06ZM224.94 84.71L222.57 85.7C223.38 86.81 224.37 88.58 224.97 89.81L227.37 88.79C226.83 87.74 225.72 85.85 224.94 84.71ZM203.76 100.67C202.74 103.31 200.97 106.55 199.08 109.01L203.28 110.78C204.87 108.53 206.64 105.11 207.72 102.2C208.77 99.41 209.85 95.27 210.27 93.17C210.39 92.51 210.72 91.04 210.99 90.17L206.61 89.27C206.25 93.08 205.11 97.31 203.76 100.67ZM218.58 100.04C219.78 103.28 220.86 107.06 221.7 110.63L226.14 109.19C225.3 106.22 223.71 101.42 222.66 98.72C221.52 95.81 219.45 91.19 218.22 88.88L214.23 90.17C215.49 92.45 217.44 96.89 218.58 100.04ZM236.724 87.2L233.904 90.2C236.094 91.73 239.844 95 241.404 96.68L244.464 93.56C242.724 91.73 238.824 88.61 236.724 87.2ZM232.974 107.18L235.494 111.14C239.724 110.42 243.594 108.74 246.624 106.91C251.454 104 255.444 99.86 257.724 95.81L255.384 91.58C253.494 95.63 249.594 100.22 244.464 103.25C241.554 104.99 237.654 106.52 232.974 107.18ZM283.928 89.66L281.468 87.83C280.868 88.04 279.668 88.22 278.378 88.22H267.788C266.888 88.22 265.058 88.13 264.248 88.01V92.27C264.878 92.24 266.528 92.06 267.788 92.06H277.958C277.298 94.19 275.468 97.16 273.488 99.41C270.668 102.56 266.018 106.22 261.188 108.02L264.278 111.26C268.388 109.31 272.378 106.19 275.558 102.83C278.378 105.56 281.168 108.62 283.118 111.32L286.538 108.35C284.768 106.19 281.138 102.35 278.168 99.77C280.178 97.07 281.858 93.86 282.878 91.52C283.148 90.92 283.688 89.99 283.928 89.66Z" fill="white"/>
<path d="M150.386 157.162L149.322 157.442V155.314H150.484V153.788H149.322V151.156H147.726V153.788H146.102V155.314H147.726V157.834C147.012 158.002 146.354 158.156 145.822 158.268L146.172 159.878L147.726 159.458V162.328C147.726 162.538 147.656 162.594 147.488 162.594C147.306 162.608 146.732 162.608 146.186 162.58C146.396 163.042 146.606 163.756 146.648 164.204C147.614 164.204 148.272 164.148 148.734 163.868C149.182 163.616 149.322 163.168 149.322 162.342V159.01C149.742 158.884 150.162 158.772 150.568 158.646L150.386 157.162ZM153.256 161.698C152.85 161.698 152.78 161.642 152.78 161.292V160.928C153.76 160.732 154.88 160.438 155.748 160.074L154.782 159.052C154.292 159.304 153.536 159.556 152.78 159.766V159.01H152.416C152.5 158.898 152.57 158.8 152.654 158.688H157.148C156.994 161.306 156.798 162.412 156.518 162.692C156.378 162.832 156.252 162.874 156.014 162.874C155.888 162.874 155.678 162.874 155.426 162.86C155.888 162.678 156.098 162.258 156.21 161.404C155.832 161.32 155.244 161.096 154.964 160.9C154.922 161.586 154.852 161.698 154.53 161.698H153.256ZM152.738 154.586H156.546V155.342H152.738V154.586ZM152.738 152.752H156.546V153.494H152.738V152.752ZM153.48 157.316C153.62 157.05 153.746 156.784 153.844 156.518H158.128V151.576H151.226V156.518H152.136C151.576 157.722 150.694 158.814 149.658 159.514C150.008 159.766 150.582 160.354 150.82 160.648C151.002 160.508 151.184 160.34 151.366 160.172V161.306C151.366 162.58 151.674 162.972 153.074 162.972H154.642C154.824 163.35 154.95 163.84 154.978 164.19C155.678 164.218 156.336 164.218 156.756 164.176C157.204 164.106 157.554 163.994 157.862 163.616C158.31 163.098 158.534 161.67 158.73 157.96C158.758 157.764 158.772 157.316 158.772 157.316H153.48ZM172.646 153.116C172.282 152.556 171.498 151.758 170.882 151.198L169.664 152.01C170.266 152.598 171.036 153.466 171.344 154.012L172.646 153.116ZM167.116 161.782H164.554V161.236H166.934V157.792H164.568V157.246H167.13V156.084H164.568V155.468H167.648C167.76 157.512 167.998 159.388 168.39 160.858C167.998 161.32 167.564 161.726 167.116 162.09V161.782ZM161.964 159.906H163.224V160.424H161.964V159.906ZM161.964 158.604H163.224V159.122H161.964V158.604ZM164.428 159.122V158.604H165.716V159.122H164.428ZM164.428 160.424V159.906H165.716V160.424H164.428ZM170.938 156.07C170.616 157.148 170.182 158.156 169.664 159.052C169.482 158.016 169.356 156.798 169.272 155.468H172.842V154.096H169.216C169.188 153.144 169.174 152.164 169.202 151.156H167.522C167.522 152.15 167.536 153.13 167.578 154.096H164.638V153.354H166.878V152.094H164.638V151.156H163.042V152.094H160.788V153.354H163.042V154.096H160.172V155.468H163.07V156.084H160.55V157.246H163.07V157.792H160.802V161.236H163.098V161.782H160.354V162.986H163.098V164.232H164.554V162.986H165.856C166.262 163.322 166.724 163.826 166.962 164.246C167.704 163.756 168.376 163.182 168.992 162.552C169.51 163.602 170.196 164.218 171.092 164.218C172.324 164.218 172.828 163.616 173.052 161.18C172.646 161.026 172.086 160.676 171.736 160.298C171.666 161.922 171.526 162.594 171.246 162.594C170.826 162.594 170.462 162.062 170.154 161.152C171.106 159.836 171.862 158.282 172.422 156.532L170.938 156.07ZM178.61 151.576H174.62V152.836H178.61V151.576ZM179.016 153.452H173.948V154.768H179.016V153.452ZM178.652 155.398H174.578V156.672H178.652V155.398ZM174.578 158.562H178.652V157.316H174.578V158.562ZM177.28 162.174H175.908V160.564H177.28V162.174ZM181.074 155.16H182.25V156.056H181.074V155.16ZM181.074 152.976H182.25V153.886H181.074V152.976ZM184.924 153.886H183.692V152.976H184.924V153.886ZM184.924 156.056H183.692V155.16H184.924V156.056ZM186.772 159.654V158.184H183.79V157.372H186.464V151.674H179.59V157.372H182.166V158.184H179.184V159.654H181.48C180.794 160.746 179.744 161.768 178.666 162.356V159.248H174.536V164.022H175.908V163.476H178.666V162.468C179.016 162.776 179.478 163.322 179.716 163.686C180.626 163.098 181.48 162.188 182.166 161.152V164.204H183.79V161.012C184.462 162.048 185.288 163.014 186.086 163.63C186.338 163.238 186.842 162.65 187.206 162.37C186.226 161.768 185.162 160.718 184.462 159.654H186.772ZM193.534 159.584V162.384H191.644L192.792 161.894C192.582 161.25 192.036 160.298 191.504 159.584H193.534ZM191.952 155.314C192.96 154.474 193.828 153.564 194.43 152.724C195.046 153.564 195.97 154.474 197.006 155.314H191.952ZM197.23 159.584C196.922 160.326 196.362 161.348 195.9 162.006L196.81 162.384H195.284V159.584H199.596V158.156H195.284V156.77H197.958V156.042C198.658 156.546 199.386 157.008 200.086 157.372C200.394 156.854 200.772 156.294 201.192 155.874C198.98 154.978 196.726 153.214 195.214 151.1H193.492C192.456 152.78 190.216 154.88 187.836 156.042C188.2 156.392 188.662 156.994 188.872 157.386C189.586 157.008 190.3 156.56 190.958 156.084V156.77H193.534V158.156H189.278V159.584H191.42L190.146 160.13C190.636 160.816 191.098 161.754 191.308 162.384H188.578V163.812H200.422V162.384H197.258C197.748 161.796 198.294 160.942 198.826 160.172L197.23 159.584ZM214.17 151.296H212.588V157.246C212.588 157.428 212.518 157.47 212.322 157.484C212.112 157.498 211.44 157.498 210.81 157.47C211.006 157.876 211.23 158.506 211.3 158.94C212.28 158.94 212.994 158.898 213.498 158.674C214.03 158.436 214.17 158.044 214.17 157.274V151.296ZM211.566 151.94H210.04V156.672H211.566V151.94ZM205.406 154.558V153.088H206.582V154.558H205.406ZM209.34 162.23V161.11H213.386V159.598H209.34V158.478H208.136V156.028H209.452V154.558H208.136V153.088H209.13V151.632H202.774V153.088H203.88V154.558H202.298V156.028H203.712C203.502 156.728 203.04 157.4 202.004 157.932C202.298 158.156 202.886 158.786 203.096 159.094C204.482 158.324 205.07 157.176 205.294 156.028H206.582V158.716H207.632V159.598H203.572V161.11H207.632V162.23H202.158V163.77H214.772V162.23H209.34ZM228.464 158.072C228.464 155.02 226.28 152.612 222.808 152.612C219.182 152.612 216.382 155.37 216.382 158.604C216.382 160.97 217.67 162.678 219.224 162.678C220.75 162.678 221.954 160.942 222.794 158.114C223.2 156.798 223.438 155.51 223.634 154.32C225.524 154.642 226.574 156.084 226.574 158.016C226.574 160.06 225.174 161.348 223.382 161.768C223.004 161.852 222.612 161.936 222.08 161.992L223.13 163.658C226.658 163.112 228.464 161.026 228.464 158.072ZM218.174 158.422C218.174 156.882 219.42 154.838 221.73 154.362C221.576 155.524 221.31 156.714 220.988 157.75C220.414 159.64 219.868 160.522 219.28 160.522C218.734 160.522 218.174 159.836 218.174 158.422ZM240.742 152.738C240.742 152.29 241.106 151.926 241.554 151.926C241.988 151.926 242.352 152.29 242.352 152.738C242.352 153.172 241.988 153.536 241.554 153.536C241.106 153.536 240.742 153.172 240.742 152.738ZM239.874 152.738C239.874 152.836 239.888 152.92 239.902 153.004C239.608 153.046 239.3 153.06 239.104 153.06H232.622C232.16 153.06 231.362 153.004 230.956 152.948V154.922C231.306 154.894 231.978 154.866 232.622 154.866H239.132C238.95 156.07 238.418 157.652 237.494 158.814C236.36 160.242 234.778 161.46 232.006 162.104L233.532 163.784C236.024 162.972 237.9 161.586 239.16 159.906C240.336 158.352 240.938 156.182 241.26 154.81C241.302 154.684 241.33 154.544 241.372 154.39C241.428 154.404 241.498 154.404 241.554 154.404C242.464 154.404 243.22 153.648 243.22 152.738C243.22 151.814 242.464 151.058 241.554 151.058C240.63 151.058 239.874 151.814 239.874 152.738ZM246.608 152.262V154.068C247.014 154.04 247.616 154.026 248.064 154.026H253.426C253.93 154.026 254.588 154.04 254.966 154.068V152.262C254.574 152.318 253.888 152.332 253.454 152.332H248.064C247.588 152.332 247 152.318 246.608 152.262ZM256.142 156.322L254.896 155.552C254.7 155.636 254.322 155.692 253.874 155.692H246.944C246.51 155.692 245.908 155.65 245.32 155.608V157.428C245.908 157.372 246.608 157.358 246.944 157.358H253.706C253.454 158.142 253.02 159.01 252.264 159.78C251.2 160.872 249.52 161.796 247.42 162.23L248.806 163.812C250.598 163.308 252.39 162.356 253.804 160.788C254.854 159.626 255.456 158.268 255.876 156.91C255.932 156.756 256.044 156.504 256.142 156.322ZM260.86 152.36L259.544 153.76C260.566 154.474 262.316 156 263.044 156.784L264.472 155.328C263.66 154.474 261.84 153.018 260.86 152.36ZM259.11 161.684L260.286 163.532C262.26 163.196 264.066 162.412 265.48 161.558C267.734 160.2 269.596 158.268 270.66 156.378L269.568 154.404C268.686 156.294 266.866 158.436 264.472 159.85C263.114 160.662 261.294 161.376 259.11 161.684Z" fill="white"/>
<path d="M73.0311 333.776L74.0391 335.792C76.0071 335.216 78.0391 334.352 79.6871 333.488V338.608C79.6871 339.312 79.6391 340.32 79.5751 340.704H82.1031C81.9911 340.304 81.9591 339.312 81.9591 338.608V332.144C83.5111 331.12 85.0471 329.872 86.2631 328.672L84.5351 327.024C83.4951 328.288 81.6711 329.888 80.0231 330.912C78.2471 332 75.8951 333.04 73.0311 333.776ZM91.8951 327.84L90.3911 329.44C91.5591 330.256 93.5591 332 94.3911 332.896L96.0231 331.232C95.0951 330.256 93.0151 328.592 91.8951 327.84ZM89.8951 338.496L91.2391 340.608C93.4951 340.224 95.5591 339.328 97.1751 338.352C99.7511 336.8 101.879 334.592 103.095 332.432L101.847 330.176C100.839 332.336 98.7591 334.784 96.0231 336.4C94.4711 337.328 92.3911 338.144 89.8951 338.496ZM113.143 327.328L110.823 326.608C110.679 327.152 110.343 327.888 110.087 328.272C109.287 329.664 107.799 331.856 104.999 333.6L106.727 334.928C108.343 333.808 109.831 332.272 110.951 330.784H115.527C115.287 331.776 114.599 333.168 113.767 334.32C112.759 333.648 111.751 332.992 110.903 332.512L109.479 333.968C110.295 334.48 111.351 335.2 112.391 335.968C111.063 337.296 109.287 338.592 106.519 339.44L108.375 341.056C110.871 340.112 112.695 338.752 114.103 337.264C114.759 337.792 115.351 338.288 115.783 338.688L117.303 336.88C116.839 336.496 116.215 336.032 115.527 335.536C116.663 333.936 117.463 332.224 117.895 330.928C118.039 330.528 118.247 330.096 118.423 329.792L116.791 328.784C116.439 328.896 115.895 328.96 115.399 328.96H112.151C112.343 328.608 112.743 327.888 113.143 327.328ZM121.511 332.592V335.104C122.103 335.056 123.175 335.024 124.087 335.024H132.679C133.351 335.024 134.167 335.088 134.551 335.104V332.592C134.135 332.624 133.431 332.688 132.679 332.688H124.087C123.255 332.688 122.087 332.64 121.511 332.592ZM139.098 327.84L137.594 329.44C138.762 330.256 140.762 332 141.594 332.896L143.226 331.232C142.298 330.256 140.218 328.592 139.098 327.84ZM137.098 338.496L138.442 340.608C140.698 340.224 142.762 339.328 144.378 338.352C146.954 336.8 149.082 334.592 150.298 332.432L149.05 330.176C148.042 332.336 145.962 334.784 143.226 336.4C141.674 337.328 139.594 338.144 137.098 338.496ZM159.242 331.872C158.122 331.872 157.194 332.8 157.194 333.92C157.194 335.04 158.122 335.968 159.242 335.968C160.362 335.968 161.29 335.04 161.29 333.92C161.29 332.8 160.362 331.872 159.242 331.872ZM176.746 338.928V334.72H181.258V332.864H176.746V329.344H182.09V327.488H168.538V329.344H174.714V338.928H171.946V331.824H169.946V338.928H167.978V340.8H182.522V338.928H176.746ZM190.842 335.488C190.506 335.168 189.274 334.064 188.506 333.44C189.274 332.384 189.914 331.232 190.394 330.016L189.322 329.328L188.986 329.408H188.266V326.464H186.378V329.408H184.106V331.136H187.962C186.922 332.976 185.242 334.656 183.498 335.6C183.786 335.968 184.234 336.896 184.394 337.408C185.066 336.992 185.738 336.464 186.378 335.872V341.392H188.266V335.36C188.81 335.952 189.354 336.592 189.69 337.04L190.842 335.488ZM195.45 339.072V333.216H198.474V331.376H195.45V326.592H193.498V331.376H190.458V333.216H193.498V339.072H189.802V340.928H198.858V339.072H195.45ZM210.506 329.472H204.042V328.432H210.506V329.472ZM212.538 326.944H202.122V330.944H212.538V326.944ZM203.29 336.624H211.13V337.328H203.29V336.624ZM203.29 334.736H211.13V335.408H203.29V334.736ZM203.29 332.832H211.13V333.52H203.29V332.832ZM213.098 338.608V331.536H201.402V338.608H203.914C202.826 339.152 201.178 339.728 199.786 340.032C200.218 340.4 200.874 340.992 201.226 341.392C202.842 340.992 204.89 340.224 206.186 339.472L204.954 338.608H209.322L207.978 339.568C209.674 340.064 211.882 340.848 213.114 341.424L214.794 340.08C213.69 339.632 212.01 339.056 210.506 338.608H213.098ZM223.018 327.168L220.906 326.992C220.874 327.568 220.762 328.192 220.586 328.832C220.33 328.832 220.058 328.832 219.818 328.832C219.002 328.832 217.818 328.768 217.002 328.64V330.512C217.882 330.576 219.05 330.608 219.706 330.608C219.77 330.608 219.834 330.608 219.914 330.608C219.194 332.048 218.058 333.472 216.378 335.024L218.09 336.304C218.634 335.6 219.098 335.024 219.578 334.544C220.186 333.952 221.178 333.44 222.074 333.44C222.522 333.44 222.954 333.584 223.194 333.984C221.37 334.928 219.45 336.208 219.45 338.256C219.45 340.32 221.306 340.928 223.818 340.928C225.322 340.928 227.29 340.8 228.346 340.656L228.41 338.592C227.002 338.864 225.226 339.04 223.866 339.04C222.298 339.04 221.546 338.8 221.546 337.92C221.546 337.12 222.186 336.496 223.386 335.808C223.37 336.512 223.354 337.28 223.306 337.76H225.226C225.21 337.024 225.178 335.84 225.162 334.944C226.138 334.496 227.05 334.144 227.77 333.856C228.314 333.648 229.162 333.328 229.674 333.184L228.874 331.328C228.282 331.632 227.722 331.888 227.098 332.16C226.442 332.448 225.77 332.72 224.938 333.104C224.586 332.288 223.786 331.872 222.81 331.872C222.282 331.872 221.418 332 221.002 332.192C221.322 331.728 221.642 331.152 221.914 330.56C223.642 330.512 225.61 330.384 227.13 330.16L227.146 328.304C225.738 328.544 224.138 328.688 222.618 328.768C222.826 328.096 222.938 327.568 223.018 327.168ZM235.226 326.432C234.442 328.688 233.066 330.928 231.658 332.336C231.994 332.816 232.506 333.856 232.682 334.32C233.05 333.92 233.434 333.472 233.802 332.976V341.344H235.706V329.936C236.218 328.96 236.65 327.984 237.018 327.008L235.226 326.432ZM240.618 333.024V335.52H238.842V333.024H240.618ZM242.394 337.168V331.376H237.066V338.208H238.842V337.168H242.394ZM246.73 327.824H236.874V329.648H243.85V339.104C243.85 339.408 243.754 339.504 243.434 339.504C243.114 339.504 241.994 339.504 240.954 339.456C241.226 340.016 241.53 340.848 241.594 341.408C243.082 341.408 244.17 341.344 244.842 341.056C245.53 340.752 245.77 340.24 245.77 339.136V329.648H246.73V327.824ZM253.914 326.816C253.802 328.928 254.026 336.192 247.642 339.728C248.282 340.176 248.906 340.752 249.242 341.248C252.618 339.184 254.298 336.096 255.162 333.216C256.058 336.16 257.85 339.456 261.466 341.248C261.77 340.736 262.346 340.08 262.938 339.632C256.97 336.832 256.17 329.936 256.042 327.728C256.058 327.392 256.074 327.072 256.09 326.816H253.914ZM276.938 326.56C274.986 327.136 271.738 327.568 268.89 327.76C269.082 328.16 269.322 328.848 269.386 329.28C272.298 329.12 275.738 328.736 278.202 328.048L276.938 326.56ZM276.458 333.392C277.114 332.448 277.946 330.96 278.634 329.6L276.826 328.944C276.426 330.16 275.61 331.792 274.986 332.8L276.458 333.392ZM274.506 332.128C274.474 331.328 274.154 330.144 273.77 329.216L272.186 329.52C272.538 330.48 272.81 331.712 272.826 332.464L274.506 332.128ZM271.706 332.608C271.562 331.792 271.098 330.544 270.618 329.616L269.114 330C269.562 330.992 269.962 332.272 270.09 333.072L271.706 332.608ZM268.586 333.152L267.29 333.52V331.216H268.746V329.472H267.29V326.464H265.562V329.472H263.882V331.216H265.562V333.984C264.842 334.16 264.17 334.336 263.626 334.448L264.042 336.272C264.506 336.144 265.034 336 265.562 335.84V339.376C265.562 339.584 265.482 339.648 265.29 339.648C265.098 339.664 264.538 339.664 263.962 339.632C264.186 340.144 264.394 340.928 264.442 341.392C265.498 341.408 266.17 341.344 266.666 341.04C267.146 340.736 267.29 340.256 267.29 339.376V335.328C267.802 335.184 268.314 335.024 268.826 334.864L268.586 333.152ZM278.506 336.048V334.4H274.65V332.784H272.858V334.4H269.098V336.048H271.85C270.954 337.36 269.53 338.56 268.074 339.216C268.49 339.568 269.034 340.256 269.338 340.704C270.65 339.968 271.914 338.768 272.858 337.408V341.28H274.65V337.488C275.514 338.752 276.602 339.904 277.706 340.624C277.994 340.176 278.538 339.52 278.954 339.184C277.674 338.512 276.394 337.312 275.562 336.048H278.506ZM288.362 334.928V332.96H291.738V334.928H288.362ZM283.386 334.928C283.418 334.336 283.434 333.76 283.434 333.248V332.96H286.442V334.928H283.386ZM286.442 329.328V331.184H283.434V329.328H286.442ZM291.738 331.184H288.362V329.328H291.738V331.184ZM293.626 327.52H281.546V333.232C281.546 335.472 281.402 338.32 279.658 340.24C280.09 340.464 280.858 341.12 281.162 341.472C282.314 340.224 282.89 338.464 283.178 336.72H286.442V341.184H288.362V336.72H291.738V339.12C291.738 339.408 291.626 339.504 291.322 339.504C291.034 339.504 289.978 339.52 289.082 339.472C289.322 339.968 289.626 340.784 289.69 341.296C291.13 341.312 292.106 341.28 292.762 340.96C293.402 340.672 293.626 340.16 293.626 339.136V327.52ZM301.178 327.312L298.602 327.28C298.746 327.92 298.81 328.688 298.81 329.44C298.81 330.816 298.65 335.024 298.65 337.168C298.65 339.904 300.346 341.056 302.97 341.056C306.618 341.056 308.89 338.912 309.914 337.376L308.458 335.616C307.306 337.36 305.626 338.88 302.986 338.88C301.738 338.88 300.778 338.352 300.778 336.736C300.778 334.752 300.906 331.168 300.97 329.44C301.002 328.8 301.082 327.984 301.178 327.312ZM311.894 328.992L312.102 331.184C313.958 330.784 317.222 330.432 318.726 330.272C317.654 331.088 316.358 332.912 316.358 335.216C316.358 338.672 319.526 340.48 322.87 340.704L323.622 338.512C320.918 338.368 318.454 337.408 318.454 334.784C318.454 332.88 319.894 330.8 321.83 330.288C322.678 330.096 324.054 330.096 324.918 330.08L324.902 328.032C323.782 328.064 322.022 328.176 320.374 328.304C317.446 328.56 314.806 328.8 313.478 328.912C313.158 328.944 312.534 328.976 311.894 328.992ZM333.465 327.184L331.209 327.056C331.241 327.408 331.241 327.728 331.193 328.48C331.161 328.848 331.113 329.28 331.065 329.776C329.897 329.68 328.697 329.472 327.769 329.168L327.657 331.008C328.601 331.28 329.737 331.472 330.841 331.584C330.761 332.304 330.665 333.056 330.569 333.776C329.529 333.664 328.457 333.488 327.417 333.136L327.305 335.072C328.153 335.312 329.209 335.488 330.377 335.6C330.313 336.256 330.265 336.832 330.265 337.216C330.265 339.888 332.041 340.976 334.553 340.976C338.057 340.976 340.233 339.248 340.233 336.832C340.233 335.472 339.737 334.336 338.681 332.992L336.425 333.472C337.481 334.464 338.073 335.488 338.073 336.576C338.073 337.888 336.857 338.912 334.617 338.912C333.049 338.912 332.233 338.208 332.233 336.88C332.233 336.592 332.265 336.192 332.297 335.712C332.505 335.712 332.729 335.712 332.937 335.712C333.945 335.712 334.873 335.648 335.769 335.568L335.817 333.664C334.777 333.792 333.593 333.856 332.601 333.856C332.569 333.856 332.521 333.856 332.489 333.856C332.569 333.136 332.665 332.384 332.761 331.68C334.041 331.68 334.921 331.616 335.881 331.52L335.945 329.616C335.193 329.728 334.169 329.824 333.017 329.84C333.081 329.312 333.145 328.88 333.193 328.608C333.257 328.192 333.321 327.76 333.465 327.184ZM108.122 353.768C108.186 353.096 108.218 352.424 108.234 351.816H114.65V353.768H108.122ZM114.65 348.056V350.008H108.234V348.056H114.65ZM116.666 346.2H106.266V351.464C106.266 353.896 106.042 356.952 103.626 359.016C104.042 359.288 104.81 359.992 105.098 360.392C106.586 359.144 107.386 357.4 107.802 355.608H114.65V357.928C114.65 358.264 114.522 358.392 114.138 358.392C113.786 358.392 112.442 358.408 111.322 358.344C111.626 358.872 112.01 359.784 112.122 360.344C113.77 360.344 114.89 360.312 115.658 359.976C116.394 359.656 116.666 359.112 116.666 357.96V346.2ZM132.33 351.176H129.162V350.2H132.33V351.176ZM132.33 353.464H129.162V352.488H132.33V353.464ZM132.33 355.8H129.162V354.808H132.33V355.8ZM127.45 348.776V357.208H134.122V348.776H131.29C131.418 348.44 131.546 348.072 131.674 347.688H134.442V346.072H126.97V347.688H129.658C129.594 348.04 129.53 348.424 129.466 348.776H127.45ZM121.514 348.248H125.338V349.352H126.922V346.776H124.314V345.48H122.538V346.776H119.978V349.352H121.514V348.248ZM124.394 357.992H122.458V356.52H124.394V357.992ZM122.49 355.048C122.954 354.744 123.402 354.392 123.834 354.008C124.314 354.376 124.794 354.728 125.194 355.048H122.49ZM124.41 350.792C124.186 351.192 123.93 351.576 123.626 351.928L122.522 351.208C122.634 351.064 122.746 350.936 122.858 350.792H124.41ZM126.01 355.72L126.042 355.752L127.114 354.424C126.586 353.976 125.802 353.4 124.938 352.824C125.61 351.992 126.154 351.032 126.522 349.944L125.45 349.448L125.162 349.528H123.674C123.818 349.288 123.93 349.048 124.042 348.792L122.49 348.408C121.914 349.752 120.81 350.968 119.562 351.752C119.914 351.976 120.506 352.552 120.762 352.856C121.002 352.696 121.226 352.504 121.45 352.312L122.506 353.048C121.626 353.784 120.618 354.36 119.562 354.728C119.898 355.032 120.314 355.672 120.522 356.088L120.858 355.944V360.088H122.458V359.448H126.01C126.33 359.752 126.682 360.104 126.89 360.36C128.058 359.896 129.466 359.048 130.298 358.232L128.762 357.272C128.186 357.864 127.066 358.6 126.01 359.032V355.72ZM131.002 358.216C131.866 358.856 132.986 359.8 133.498 360.408L134.97 359.432C134.394 358.824 133.226 357.944 132.378 357.352L131.002 358.216ZM150.074 353.368C150.074 349.88 147.578 347.128 143.61 347.128C139.466 347.128 136.266 350.28 136.266 353.976C136.266 356.68 137.738 358.632 139.514 358.632C141.258 358.632 142.634 356.648 143.594 353.416C144.058 351.912 144.33 350.44 144.554 349.08C146.714 349.448 147.914 351.096 147.914 353.304C147.914 355.64 146.314 357.112 144.266 357.592C143.834 357.688 143.386 357.784 142.778 357.848L143.978 359.752C148.01 359.128 150.074 356.744 150.074 353.368ZM138.314 353.768C138.314 352.008 139.738 349.672 142.378 349.128C142.202 350.456 141.898 351.816 141.53 353C140.874 355.16 140.25 356.168 139.578 356.168C138.954 356.168 138.314 355.384 138.314 353.768ZM162.746 348.248C162.234 347.656 161.098 346.84 160.202 346.312L159.29 347.592C160.17 348.184 161.274 349.048 161.77 349.672L162.746 348.248ZM158.554 351.608C159.482 352.168 160.65 353.016 161.178 353.608L162.138 352.088C161.562 351.512 160.378 350.744 159.45 350.248L158.554 351.608ZM157.114 346.328C156.938 347.448 156.554 349.064 156.234 350.072L157.434 350.408C157.834 349.48 158.298 347.96 158.714 346.68L157.114 346.328ZM154.01 350.072C153.93 349.08 153.61 347.56 153.194 346.408L151.866 346.76C152.234 347.912 152.554 349.464 152.586 350.456L154.01 350.072ZM158.378 355.336C158.042 354.888 156.522 353.096 156.058 352.632V352.52H158.426V350.744H156.058V345.512H154.298V350.744H151.882V352.52H153.706C153.21 353.976 152.394 355.688 151.594 356.664C151.882 357.192 152.298 358.056 152.458 358.632C153.146 357.672 153.786 356.184 154.298 354.696V360.344H156.058V354.728C156.522 355.464 156.97 356.296 157.21 356.808L158.378 355.336ZM166.842 355.704L166.554 353.928L164.922 354.232V345.432H163.13V354.552L158.378 355.4L158.666 357.176L163.13 356.376V360.376H164.922V356.056L166.842 355.704ZM174.154 355.096V358.296H171.994L173.306 357.736C173.066 357 172.442 355.912 171.834 355.096H174.154ZM172.346 350.216C173.498 349.256 174.49 348.216 175.178 347.256C175.882 348.216 176.938 349.256 178.122 350.216H172.346ZM178.378 355.096C178.026 355.944 177.386 357.112 176.858 357.864L177.898 358.296H176.154V355.096H181.082V353.464H176.154V351.88H179.21V351.048C180.01 351.624 180.842 352.152 181.642 352.568C181.994 351.976 182.426 351.336 182.906 350.856C180.378 349.832 177.802 347.816 176.074 345.4H174.106C172.922 347.32 170.362 349.72 167.642 351.048C168.058 351.448 168.586 352.136 168.826 352.584C169.642 352.152 170.458 351.64 171.21 351.096V351.88H174.154V353.464H169.29V355.096H171.738L170.282 355.72C170.842 356.504 171.37 357.576 171.61 358.296H168.49V359.928H182.026V358.296H178.41C178.97 357.624 179.594 356.648 180.202 355.768L178.378 355.096ZM189.178 346.312L186.602 346.28C186.746 346.92 186.81 347.688 186.81 348.44C186.81 349.816 186.65 354.024 186.65 356.168C186.65 358.904 188.346 360.056 190.97 360.056C194.618 360.056 196.89 357.912 197.914 356.376L196.458 354.616C195.306 356.36 193.626 357.88 190.986 357.88C189.738 357.88 188.778 357.352 188.778 355.736C188.778 353.752 188.906 350.168 188.97 348.44C189.002 347.8 189.082 346.984 189.178 346.312ZM206.634 346.36L204.25 346.12C204.266 347.128 204.138 348.296 203.914 349.512C203.098 349.576 202.346 349.624 201.85 349.64C201.258 349.656 200.714 349.688 200.138 349.64L200.33 351.816C200.81 351.736 201.658 351.624 202.106 351.544C202.41 351.512 202.906 351.448 203.482 351.384C202.906 353.576 201.802 356.808 200.25 358.904L202.33 359.736C203.802 357.384 204.986 353.592 205.594 351.16C206.042 351.128 206.442 351.096 206.698 351.096C207.706 351.096 208.25 351.272 208.25 352.552C208.25 354.136 208.042 356.072 207.61 356.984C207.354 357.512 206.938 357.672 206.41 357.672C205.978 357.672 205.066 357.512 204.442 357.336L204.794 359.448C205.338 359.56 206.09 359.672 206.714 359.672C207.914 359.672 208.81 359.32 209.338 358.2C210.026 356.808 210.25 354.216 210.25 352.328C210.25 350.024 209.05 349.272 207.354 349.272C207.018 349.272 206.538 349.304 206.01 349.336C206.122 348.76 206.234 348.168 206.346 347.688C206.426 347.288 206.538 346.776 206.634 346.36ZM212.138 347.864L210.234 348.68C211.37 350.088 212.506 352.984 212.922 354.76L214.954 353.816C214.474 352.296 213.13 349.24 212.138 347.864ZM222.634 346.36L220.25 346.12C220.266 347.128 220.138 348.296 219.914 349.512C219.098 349.576 218.346 349.624 217.85 349.64C217.258 349.656 216.714 349.688 216.138 349.64L216.33 351.816C216.81 351.736 217.658 351.624 218.106 351.544C218.41 351.512 218.906 351.448 219.482 351.384C218.906 353.576 217.802 356.808 216.25 358.904L218.33 359.736C219.802 357.384 220.986 353.592 221.594 351.16C222.042 351.128 222.442 351.096 222.698 351.096C223.706 351.096 224.25 351.272 224.25 352.552C224.25 354.136 224.042 356.072 223.61 356.984C223.354 357.512 222.938 357.672 222.41 357.672C221.978 357.672 221.066 357.512 220.442 357.336L220.794 359.448C221.338 359.56 222.09 359.672 222.714 359.672C223.914 359.672 224.81 359.32 225.338 358.2C226.026 356.808 226.25 354.216 226.25 352.328C226.25 350.024 225.05 349.272 223.354 349.272C223.018 349.272 222.538 349.304 222.01 349.336C222.122 348.76 222.234 348.168 222.346 347.688C222.426 347.288 222.538 346.776 222.634 346.36ZM228.138 347.864L226.234 348.68C227.37 350.088 228.506 352.984 228.922 354.76L230.954 353.816C230.474 352.296 229.13 349.24 228.138 347.864ZM238.634 346.36L236.25 346.12C236.266 347.128 236.138 348.296 235.914 349.512C235.098 349.576 234.346 349.624 233.85 349.64C233.258 349.656 232.714 349.688 232.138 349.64L232.33 351.816C232.81 351.736 233.658 351.624 234.106 351.544C234.41 351.512 234.906 351.448 235.482 351.384C234.906 353.576 233.802 356.808 232.25 358.904L234.33 359.736C235.802 357.384 236.986 353.592 237.594 351.16C238.042 351.128 238.442 351.096 238.698 351.096C239.706 351.096 240.25 351.272 240.25 352.552C240.25 354.136 240.042 356.072 239.61 356.984C239.354 357.512 238.938 357.672 238.41 357.672C237.978 357.672 237.066 357.512 236.442 357.336L236.794 359.448C237.338 359.56 238.09 359.672 238.714 359.672C239.914 359.672 240.81 359.32 241.338 358.2C242.026 356.808 242.25 354.216 242.25 352.328C242.25 350.024 241.05 349.272 239.354 349.272C239.018 349.272 238.538 349.304 238.01 349.336C238.122 348.76 238.234 348.168 238.346 347.688C238.426 347.288 238.538 346.776 238.634 346.36ZM244.138 347.864L242.234 348.68C243.37 350.088 244.506 352.984 244.922 354.76L246.954 353.816C246.474 352.296 245.13 349.24 244.138 347.864ZM253.018 346.152L250.826 346.056C250.826 346.488 250.778 347.128 250.698 347.736C250.474 349.384 250.25 351.368 250.25 352.856C250.25 353.928 250.362 354.904 250.458 355.528L252.426 355.4C252.33 354.648 252.314 354.136 252.346 353.704C252.426 351.592 254.074 348.76 255.962 348.76C257.306 348.76 258.138 350.136 258.138 352.6C258.138 356.472 255.626 357.64 252.074 358.184L253.29 360.04C257.53 359.272 260.298 357.112 260.298 352.584C260.298 349.064 258.57 346.888 256.346 346.888C254.538 346.888 253.146 348.232 252.378 349.48C252.474 348.584 252.794 346.936 253.018 346.152ZM267.786 357.192C267.786 356.648 268.41 356.2 269.546 356.2C269.994 356.2 270.426 356.248 270.858 356.312C270.874 356.6 270.874 356.824 270.874 357C270.874 357.928 270.314 358.168 269.466 358.168C268.362 358.168 267.786 357.8 267.786 357.192ZM272.794 346.056H270.634C270.698 346.36 270.73 346.856 270.73 347.16C270.73 347.352 270.73 347.608 270.73 347.912C270.522 347.912 270.314 347.912 270.106 347.912C269.13 347.912 267.306 347.752 266.154 347.56L266.202 349.384C267.258 349.528 269.114 349.672 270.122 349.672C270.314 349.672 270.506 349.672 270.714 349.672C270.698 350.216 270.698 350.792 270.698 351.32C270.442 351.32 270.186 351.32 269.93 351.32C269.082 351.32 267.114 351.208 266.074 351.016L266.09 352.904C267.146 353.032 268.97 353.112 269.898 353.112C270.186 353.112 270.458 353.112 270.73 353.112C270.746 353.592 270.762 354.104 270.794 354.6C270.474 354.568 270.138 354.552 269.802 354.552C267.338 354.552 265.85 355.688 265.85 357.304C265.85 359 267.194 359.976 269.754 359.976C271.866 359.976 272.906 358.92 272.906 357.56C272.906 357.384 272.906 357.192 272.89 356.968C274.17 357.544 275.258 358.392 276.122 359.192L277.274 357.4C276.346 356.632 274.81 355.56 272.794 354.984C272.746 354.344 272.714 353.688 272.682 353.08C274.218 353.032 275.466 352.92 276.906 352.76L276.922 350.872C275.626 351.048 274.266 351.176 272.65 351.256C272.65 350.76 272.65 350.168 272.65 349.608C274.202 349.528 275.658 349.384 276.714 349.256L276.73 347.416C275.322 347.656 273.994 347.784 272.682 347.848C272.682 347.592 272.682 347.352 272.698 347.192C272.714 346.776 272.746 346.376 272.794 346.056ZM290.998 346.44H288.854C288.902 346.76 288.966 347.512 288.966 347.912V349.72C287.51 349.848 285.958 349.992 284.598 350.12C284.598 349.496 284.614 348.952 284.614 348.584C284.614 347.912 284.63 347.464 284.71 346.92H282.454C282.534 347.496 282.582 348.04 282.582 348.696C282.582 348.968 282.582 349.56 282.582 350.312C282.07 350.36 281.654 350.392 281.366 350.424C280.55 350.504 279.814 350.536 279.35 350.536L279.574 352.584C279.99 352.52 280.982 352.36 281.494 352.296C281.766 352.264 282.134 352.232 282.566 352.184C282.566 353.672 282.566 355.224 282.582 355.912C282.662 358.68 283.158 359.544 287.302 359.544C288.822 359.544 290.79 359.416 291.862 359.288L291.942 357.112C290.742 357.32 288.726 357.512 287.158 357.512C284.758 357.512 284.614 357.16 284.582 355.592C284.55 354.904 284.566 353.432 284.582 351.96C285.942 351.816 287.51 351.672 288.934 351.56C288.918 352.328 288.87 353.064 288.806 353.496C288.774 353.8 288.63 353.864 288.31 353.864C287.99 353.864 287.334 353.768 286.838 353.656L286.79 355.432C287.35 355.512 288.63 355.672 289.206 355.672C290.022 355.672 290.422 355.464 290.598 354.616C290.726 353.944 290.79 352.632 290.838 351.416C291.302 351.384 291.718 351.368 292.07 351.352C292.486 351.336 293.334 351.32 293.606 351.336V349.368C293.142 349.416 292.518 349.448 292.07 349.48C291.702 349.496 291.302 349.528 290.87 349.56C290.886 349.032 290.886 348.456 290.902 347.832C290.918 347.4 290.966 346.696 290.998 346.44ZM303.99 347.112L301.718 346.2C301.446 346.872 301.142 347.4 300.934 347.832C300.086 349.352 296.806 355.88 295.622 359.08L297.878 359.848C298.118 359 298.678 357.208 299.094 356.28C299.67 354.984 300.566 353.864 301.654 353.864C302.23 353.864 302.55 354.2 302.598 354.76C302.646 355.416 302.63 356.728 302.694 357.576C302.758 358.744 303.59 359.8 305.366 359.8C307.814 359.8 309.302 357.976 310.134 355.24L308.406 353.832C307.942 355.816 307.094 357.608 305.702 357.608C305.174 357.608 304.726 357.368 304.662 356.744C304.582 356.072 304.63 354.792 304.598 354.072C304.534 352.744 303.814 351.992 302.614 351.992C302.006 351.992 301.366 352.136 300.774 352.472C301.574 351.064 302.694 349.016 303.478 347.864C303.654 347.608 303.83 347.336 303.99 347.112Z" fill="#545252"/>
<line x1="52" y1="450.5" x2="362" y2="450.5" stroke="#E5E5E5"/>
</svg>
