<svg width="427" height="670" viewBox="0 0 427 670" fill="none" xmlns="http://www.w3.org/2000/svg">
<rect width="427" height="670" fill="white"/>
<rect x="36.5" y="35.5" width="351" height="598" rx="19.5" stroke="#FF5A5F"/>
<path d="M85.6486 384.458C85.4946 384.29 85.1166 383.926 84.6966 383.52C85.0746 383.128 85.5086 382.624 85.9986 382.148L84.9346 381.266C84.6966 381.714 84.2906 382.344 83.9266 382.82C83.7866 382.694 83.6606 382.582 83.5486 382.484C84.2486 381.448 84.8506 380.314 85.2706 379.166L84.3326 378.55L84.0666 378.62H83.4646V376.156H81.8266V378.62H80.0206V380.118H83.2126C82.3586 381.784 80.9866 383.422 79.6286 384.374C79.8946 384.668 80.3286 385.48 80.4826 385.886C80.9306 385.536 81.3786 385.13 81.8266 384.654V389.218H83.4646V384.192C83.9266 384.724 84.3886 385.312 84.6546 385.718L85.6486 384.458ZM85.1446 377.22V378.788H87.1606C87.0906 382.358 86.8806 385.9 84.0106 387.916C84.4446 388.238 84.9626 388.784 85.2426 389.232C88.3646 386.866 88.7426 382.834 88.8546 378.788H90.8846C90.7866 384.514 90.6326 386.768 90.2406 387.23C90.0866 387.44 89.9466 387.496 89.7226 387.496C89.3866 387.496 88.7286 387.496 88.0006 387.44C88.2946 387.93 88.4906 388.672 88.5186 389.162C89.2746 389.176 90.0446 389.19 90.5486 389.092C91.0806 388.994 91.4306 388.812 91.7946 388.252C92.3406 387.496 92.4666 385.06 92.5926 378.06C92.6066 377.836 92.6066 377.22 92.6066 377.22H85.1446ZM101.483 383.842H99.0186V381.42H101.483V383.842ZM97.4506 379.964V385.284H103.163V379.964H97.4506ZM96.1066 386.908V378.312H104.521V386.908H96.1066ZM94.3706 376.604V389.204H96.1066V388.462H104.521V389.204H106.341V376.604H94.3706ZM108.105 383.212C109.687 383.03 111.857 382.778 113.915 382.512V382.316C114.195 382.61 114.475 383.002 114.615 383.282C116.645 382.19 117.163 380.454 117.331 378.088H118.857C118.759 380.342 118.647 381.238 118.451 381.476C118.325 381.616 118.213 381.644 118.017 381.644C117.807 381.644 117.359 381.644 116.855 381.602C117.093 381.98 117.275 382.624 117.289 383.086C117.905 383.086 118.493 383.086 118.843 383.03C119.249 382.974 119.543 382.848 119.823 382.484C120.187 382.022 120.327 380.678 120.453 377.318C120.467 377.136 120.467 376.688 120.467 376.688H114.181V378.088H115.777C115.665 379.852 115.329 381.14 113.901 381.98L113.887 381.238C113.229 381.308 112.557 381.378 111.899 381.448V380.454H113.677V379.208H111.899V378.34H113.859V377.094H111.899V376.142H110.359V377.094H108.203V378.34H110.359V379.208H108.441V380.454H110.359V381.616C109.463 381.7 108.651 381.784 107.979 381.84L108.105 383.212ZM120.579 385.606V384.206H115.077V383.38H113.397V384.206H108.147V385.606H113.187C112.725 386.488 111.381 387.356 107.797 387.846C108.119 388.224 108.539 388.84 108.749 389.246C112.319 388.742 113.929 387.706 114.615 386.572C115.679 388.126 117.275 388.91 119.949 389.232C120.173 388.742 120.593 388.028 120.957 387.636C118.339 387.482 116.715 386.894 115.805 385.606H120.579ZM122.343 384.332C122.231 385.508 122.007 386.754 121.601 387.58C121.965 387.706 122.581 388 122.875 388.182C123.281 387.286 123.575 385.886 123.715 384.57L122.343 384.332ZM125.465 384.64C125.815 385.494 126.179 386.628 126.291 387.342L127.607 386.88C127.439 386.166 127.075 385.074 126.697 384.248L125.465 384.64ZM129.833 378.508C130.099 377.864 130.337 377.192 130.519 376.506L128.811 376.142C128.363 377.906 127.537 379.698 126.501 380.804L126.403 380.636L125.227 381.154C125.395 381.448 125.563 381.784 125.717 382.12L124.303 382.176C125.213 381.042 126.193 379.614 126.977 378.382L125.563 377.794C125.227 378.494 124.779 379.306 124.275 380.09C124.135 379.908 123.967 379.698 123.785 379.502C124.289 378.718 124.863 377.64 125.367 376.674L123.897 376.156C123.659 376.884 123.267 377.822 122.875 378.592C122.763 378.494 122.651 378.396 122.539 378.298L121.755 379.446C122.343 380.006 123.029 380.762 123.435 381.364C123.225 381.672 123.001 381.966 122.791 382.232L121.755 382.274L121.895 383.73L123.967 383.59V389.232H125.437V383.478L126.235 383.422C126.319 383.702 126.389 383.954 126.431 384.178L127.691 383.59C127.537 382.89 127.089 381.854 126.599 380.972C127.019 381.224 127.635 381.644 127.915 381.896C128.335 381.392 128.727 380.776 129.105 380.09H132.969C132.815 384.864 132.605 386.908 132.185 387.342C132.017 387.524 131.863 387.58 131.597 387.58C131.219 387.58 130.421 387.58 129.539 387.496C129.847 387.972 130.071 388.7 130.099 389.176C130.911 389.204 131.779 389.218 132.283 389.134C132.871 389.05 133.235 388.896 133.627 388.364C134.215 387.622 134.411 385.41 134.593 379.278C134.607 379.068 134.607 378.508 134.607 378.508H129.833ZM131.415 384.906C131.121 384.024 130.323 382.736 129.595 381.77L128.265 382.442C128.979 383.45 129.707 384.794 129.973 385.676L131.415 384.906ZM139.087 378.48V380.944H137.799V378.48H139.087ZM137.799 385.032V382.4H139.087V385.032H137.799ZM140.641 376.996H136.259V387.748H137.799V386.516H140.641V376.996ZM141.467 385.34C142.097 386.054 142.811 387.048 143.063 387.692L144.491 386.866C144.197 386.18 143.441 385.256 142.797 384.57L141.467 385.34ZM148.873 381.756V380.3H145.681V379.068H148.481V377.612H145.681V376.142H144.043V377.612H141.355V379.068H144.043V380.3H140.879V381.756H145.821V382.96H140.907V384.402H145.821V387.412C145.821 387.608 145.751 387.664 145.527 387.664C145.317 387.664 144.533 387.664 143.861 387.636C144.085 388.084 144.337 388.742 144.393 389.204C145.429 389.204 146.185 389.162 146.731 388.924C147.277 388.672 147.431 388.252 147.431 387.454V384.402H148.775V382.96H147.431V381.756H148.873ZM155.621 378.214V380.006C157.385 380.174 159.919 380.16 161.641 380.006V378.2C160.129 378.382 157.343 378.452 155.621 378.214ZM156.741 384.192L155.131 384.038C154.977 384.752 154.893 385.312 154.893 385.858C154.893 387.3 156.055 388.154 158.463 388.154C160.045 388.154 161.165 388.056 162.075 387.888L162.047 385.998C160.815 386.25 159.779 386.362 158.533 386.362C157.105 386.362 156.573 385.984 156.573 385.368C156.573 384.99 156.629 384.654 156.741 384.192ZM153.465 377.276L151.505 377.108C151.491 377.556 151.407 378.088 151.365 378.48C151.211 379.558 150.777 381.924 150.777 384.024C150.777 385.928 151.043 387.636 151.323 388.602L152.947 388.49C152.933 388.294 152.919 388.07 152.919 387.916C152.919 387.776 152.947 387.468 152.989 387.258C153.143 386.516 153.605 384.99 153.997 383.828L153.129 383.142C152.933 383.604 152.709 384.094 152.499 384.57C152.457 384.29 152.443 383.926 152.443 383.66C152.443 382.26 152.933 379.46 153.115 378.522C153.171 378.27 153.353 377.57 153.465 377.276ZM166.127 377.822V379.67C167.261 379.768 168.479 379.824 169.949 379.824C171.279 379.824 173.015 379.74 173.995 379.656V377.794C172.917 377.906 171.321 377.99 169.935 377.99C168.465 377.99 167.163 377.934 166.127 377.822ZM167.303 383.758L165.469 383.59C165.357 384.108 165.189 384.794 165.189 385.606C165.189 387.524 166.799 388.602 170.005 388.602C171.965 388.602 173.645 388.42 174.863 388.126L174.849 386.152C173.617 386.502 171.825 386.712 169.935 386.712C167.919 386.712 167.065 386.068 167.065 385.172C167.065 384.696 167.163 384.262 167.303 383.758ZM190.053 383.072C190.053 380.02 187.869 377.612 184.397 377.612C180.771 377.612 177.971 380.37 177.971 383.604C177.971 385.97 179.259 387.678 180.813 387.678C182.339 387.678 183.543 385.942 184.383 383.114C184.789 381.798 185.027 380.51 185.223 379.32C187.113 379.642 188.163 381.084 188.163 383.016C188.163 385.06 186.763 386.348 184.971 386.768C184.593 386.852 184.201 386.936 183.669 386.992L184.719 388.658C188.247 388.112 190.053 386.026 190.053 383.072ZM179.763 383.422C179.763 381.882 181.009 379.838 183.319 379.362C183.165 380.524 182.899 381.714 182.577 382.75C182.003 384.64 181.457 385.522 180.869 385.522C180.323 385.522 179.763 384.836 179.763 383.422ZM202.331 377.738C202.331 377.29 202.695 376.926 203.143 376.926C203.577 376.926 203.941 377.29 203.941 377.738C203.941 378.172 203.577 378.536 203.143 378.536C202.695 378.536 202.331 378.172 202.331 377.738ZM201.463 377.738C201.463 377.836 201.477 377.92 201.491 378.004C201.197 378.046 200.889 378.06 200.693 378.06H194.211C193.749 378.06 192.951 378.004 192.545 377.948V379.922C192.895 379.894 193.567 379.866 194.211 379.866H200.721C200.539 381.07 200.007 382.652 199.083 383.814C197.949 385.242 196.367 386.46 193.595 387.104L195.121 388.784C197.613 387.972 199.489 386.586 200.749 384.906C201.925 383.352 202.527 381.182 202.849 379.81C202.891 379.684 202.919 379.544 202.961 379.39C203.017 379.404 203.087 379.404 203.143 379.404C204.053 379.404 204.809 378.648 204.809 377.738C204.809 376.814 204.053 376.058 203.143 376.058C202.219 376.058 201.463 376.814 201.463 377.738ZM208.197 377.262V379.068C208.603 379.04 209.205 379.026 209.653 379.026H215.015C215.519 379.026 216.177 379.04 216.555 379.068V377.262C216.163 377.318 215.477 377.332 215.043 377.332H209.653C209.177 377.332 208.589 377.318 208.197 377.262ZM217.731 381.322L216.485 380.552C216.289 380.636 215.911 380.692 215.463 380.692H208.533C208.099 380.692 207.497 380.65 206.909 380.608V382.428C207.497 382.372 208.197 382.358 208.533 382.358H215.295C215.043 383.142 214.609 384.01 213.853 384.78C212.789 385.872 211.109 386.796 209.009 387.23L210.395 388.812C212.187 388.308 213.979 387.356 215.393 385.788C216.443 384.626 217.045 383.268 217.465 381.91C217.521 381.756 217.633 381.504 217.731 381.322ZM222.449 377.36L221.133 378.76C222.155 379.474 223.905 381 224.633 381.784L226.061 380.328C225.249 379.474 223.429 378.018 222.449 377.36ZM220.699 386.684L221.875 388.532C223.849 388.196 225.655 387.412 227.069 386.558C229.323 385.2 231.185 383.268 232.249 381.378L231.157 379.404C230.275 381.294 228.455 383.436 226.061 384.85C224.703 385.662 222.883 386.376 220.699 386.684ZM239.347 378.214V380.006C241.111 380.174 243.645 380.16 245.367 380.006V378.2C243.855 378.382 241.069 378.452 239.347 378.214ZM240.467 384.192L238.857 384.038C238.703 384.752 238.619 385.312 238.619 385.858C238.619 387.3 239.781 388.154 242.189 388.154C243.771 388.154 244.891 388.056 245.801 387.888L245.773 385.998C244.541 386.25 243.505 386.362 242.259 386.362C240.831 386.362 240.299 385.984 240.299 385.368C240.299 384.99 240.355 384.654 240.467 384.192ZM237.191 377.276L235.231 377.108C235.217 377.556 235.133 378.088 235.091 378.48C234.937 379.558 234.503 381.924 234.503 384.024C234.503 385.928 234.769 387.636 235.049 388.602L236.673 388.49C236.659 388.294 236.645 388.07 236.645 387.916C236.645 387.776 236.673 387.468 236.715 387.258C236.869 386.516 237.331 384.99 237.723 383.828L236.855 383.142C236.659 383.604 236.435 384.094 236.225 384.57C236.183 384.29 236.169 383.926 236.169 383.66C236.169 382.26 236.659 379.46 236.841 378.522C236.897 378.27 237.079 377.57 237.191 377.276ZM251.093 378.648C251.107 377.892 251.107 377.122 251.107 376.338H249.469C249.469 377.136 249.469 377.906 249.455 378.648H247.817V380.272H249.441C249.343 383.548 248.965 386.222 247.397 388C247.817 388.252 248.363 388.812 248.615 389.218C250.421 387.146 250.911 384.01 251.051 380.272H252.465C252.381 384.948 252.269 386.684 252.003 387.062C251.863 387.258 251.737 387.314 251.527 387.314C251.261 387.314 250.757 387.3 250.197 387.258C250.491 387.734 250.645 388.462 250.673 388.924C251.331 388.952 251.961 388.952 252.367 388.868C252.829 388.77 253.123 388.63 253.445 388.154C253.879 387.51 253.977 385.368 254.103 379.404C254.117 379.194 254.117 378.648 254.117 378.648H251.093ZM256.497 386.348V379.334H258.303V386.348H256.497ZM254.887 377.738V388.924H256.497V387.958H258.303V388.826H259.969V377.738H254.887ZM264.309 376.926V378.62H267.501C267.543 379.096 267.599 379.6 267.697 380.132L266.843 379.978C266.073 383.66 264.407 386.362 261.495 387.832C261.929 388.154 262.713 388.84 263.021 389.19C265.457 387.734 267.137 385.41 268.187 382.274C268.957 384.78 270.441 387.426 273.339 389.176C273.633 388.742 274.319 388.014 274.683 387.72C269.531 384.682 269.153 379.572 269.153 376.926H264.309ZM280.269 376.898L278.015 376.87C278.141 377.43 278.197 378.102 278.197 378.76C278.197 379.964 278.057 383.646 278.057 385.522C278.057 387.916 279.541 388.924 281.837 388.924C285.029 388.924 287.017 387.048 287.913 385.704L286.639 384.164C285.631 385.69 284.161 387.02 281.851 387.02C280.759 387.02 279.919 386.558 279.919 385.144C279.919 383.408 280.031 380.272 280.087 378.76C280.115 378.2 280.185 377.486 280.269 376.898ZM289.645 378.368L289.827 380.286C291.451 379.936 294.307 379.628 295.623 379.488C294.685 380.202 293.551 381.798 293.551 383.814C293.551 386.838 296.323 388.42 299.249 388.616L299.907 386.698C297.541 386.572 295.385 385.732 295.385 383.436C295.385 381.77 296.645 379.95 298.339 379.502C299.081 379.334 300.285 379.334 301.041 379.32L301.027 377.528C300.047 377.556 298.507 377.654 297.065 377.766C294.503 377.99 292.193 378.2 291.031 378.298C290.751 378.326 290.205 378.354 289.645 378.368ZM308.181 378.48V376.926H303.113V378.48H305.045V386.936C305.045 387.132 304.975 387.202 304.765 387.216C304.555 387.216 303.841 387.216 303.183 387.188C303.407 387.636 303.617 388.364 303.673 388.798C304.751 388.812 305.493 388.77 306.011 388.504C306.515 388.238 306.669 387.79 306.669 386.95V378.48H308.181ZM310.393 384.346H314.061V385.242H310.393V384.346ZM310.393 382.302H314.061V383.184H310.393V382.302ZM310.393 380.286H314.061V381.168H310.393V380.286ZM315.685 386.446V379.068H312.745C312.857 378.76 312.983 378.424 313.109 378.088H316.119V376.688H308.405V378.088H311.233C311.177 378.41 311.107 378.746 311.037 379.068H308.853V386.446H310.281C309.581 387.02 308.223 387.678 307.103 388.028C307.439 388.35 307.887 388.84 308.125 389.176C309.329 388.77 310.785 388.056 311.709 387.328L310.435 386.446H315.685ZM312.423 387.356C313.333 387.902 314.537 388.686 315.111 389.218L316.427 388.238C315.783 387.706 314.537 386.95 313.655 386.474L312.423 387.356ZM326.927 377.906L325.289 376.464C325.065 376.8 324.617 377.248 324.211 377.654C323.273 378.564 321.355 380.118 320.249 381.014C318.849 382.19 318.737 382.932 320.137 384.122C321.411 385.214 323.469 386.964 324.323 387.846C324.743 388.266 325.149 388.714 325.541 389.148L327.179 387.65C325.751 386.264 323.091 384.164 322.041 383.282C321.285 382.624 321.271 382.47 322.013 381.826C322.951 381.028 324.799 379.6 325.709 378.872C326.031 378.606 326.493 378.242 326.927 377.906ZM335.271 376.842L333.521 377.556C334.151 379.04 334.823 380.538 335.467 381.728C334.123 382.722 333.143 383.884 333.143 385.424C333.143 387.832 335.257 388.602 338.043 388.602C339.863 388.602 341.347 388.462 342.537 388.252L342.565 386.236C341.319 386.544 339.429 386.754 337.987 386.754C336.041 386.754 335.075 386.222 335.075 385.214C335.075 384.234 335.859 383.436 337.021 382.666C338.295 381.84 340.059 381.028 340.927 380.594C341.445 380.328 341.893 380.09 342.313 379.838L341.347 378.214C340.983 378.522 340.577 378.76 340.045 379.068C339.387 379.446 338.169 380.048 337.021 380.72C336.461 379.642 335.803 378.298 335.271 376.842ZM90.1971 398.554L91.0791 400.318C92.8011 399.814 94.5791 399.058 96.0211 398.302V402.782C96.0211 403.398 95.9791 404.28 95.9231 404.616H98.1351C98.0371 404.266 98.0091 403.398 98.0091 402.782V397.126C99.3671 396.23 100.711 395.138 101.775 394.088L100.263 392.646C99.3531 393.752 97.7571 395.152 96.3151 396.048C94.7611 397 92.7031 397.91 90.1971 398.554ZM106.703 393.36L105.387 394.76C106.409 395.474 108.159 397 108.887 397.784L110.315 396.328C109.503 395.474 107.683 394.018 106.703 393.36ZM104.953 402.684L106.129 404.532C108.103 404.196 109.909 403.412 111.323 402.558C113.577 401.2 115.439 399.268 116.503 397.378L115.411 395.404C114.529 397.294 112.709 399.436 110.315 400.85C108.957 401.662 107.137 402.376 104.953 402.684ZM125.295 392.912L123.265 392.282C123.139 392.758 122.845 393.402 122.621 393.738C121.921 394.956 120.619 396.874 118.169 398.4L119.681 399.562C121.095 398.582 122.397 397.238 123.377 395.936H127.381C127.171 396.804 126.569 398.022 125.841 399.03C124.959 398.442 124.077 397.868 123.335 397.448L122.089 398.722C122.803 399.17 123.727 399.8 124.637 400.472C123.475 401.634 121.921 402.768 119.499 403.51L121.123 404.924C123.307 404.098 124.903 402.908 126.135 401.606C126.709 402.068 127.227 402.502 127.605 402.852L128.935 401.27C128.529 400.934 127.983 400.528 127.381 400.094C128.375 398.694 129.075 397.196 129.453 396.062C129.579 395.712 129.761 395.334 129.915 395.068L128.487 394.186C128.179 394.284 127.703 394.34 127.269 394.34H124.427C124.595 394.032 124.945 393.402 125.295 392.912ZM132.617 397.518V399.716C133.135 399.674 134.073 399.646 134.871 399.646H142.389C142.977 399.646 143.691 399.702 144.027 399.716V397.518C143.663 397.546 143.047 397.602 142.389 397.602H134.871C134.143 397.602 133.121 397.56 132.617 397.518ZM148.006 393.36L146.69 394.76C147.712 395.474 149.462 397 150.19 397.784L151.618 396.328C150.806 395.474 148.986 394.018 148.006 393.36ZM146.256 402.684L147.432 404.532C149.406 404.196 151.212 403.412 152.626 402.558C154.88 401.2 156.742 399.268 157.806 397.378L156.714 395.404C155.832 397.294 154.012 399.436 151.618 400.85C150.26 401.662 148.44 402.376 146.256 402.684ZM170.616 392.24C168.908 392.744 166.066 393.122 163.574 393.29C163.742 393.64 163.952 394.242 164.008 394.62C166.556 394.48 169.566 394.144 171.722 393.542L170.616 392.24ZM170.196 398.218C170.77 397.392 171.498 396.09 172.1 394.9L170.518 394.326C170.168 395.39 169.454 396.818 168.908 397.7L170.196 398.218ZM168.488 397.112C168.46 396.412 168.18 395.376 167.844 394.564L166.458 394.83C166.766 395.67 167.004 396.748 167.018 397.406L168.488 397.112ZM166.038 397.532C165.912 396.818 165.506 395.726 165.086 394.914L163.77 395.25C164.162 396.118 164.512 397.238 164.624 397.938L166.038 397.532ZM163.308 398.008L162.174 398.33V396.314H163.448V394.788H162.174V392.156H160.662V394.788H159.192V396.314H160.662V398.736C160.032 398.89 159.444 399.044 158.968 399.142L159.332 400.738C159.738 400.626 160.2 400.5 160.662 400.36V403.454C160.662 403.636 160.592 403.692 160.424 403.692C160.256 403.706 159.766 403.706 159.262 403.678C159.458 404.126 159.64 404.812 159.682 405.218C160.606 405.232 161.194 405.176 161.628 404.91C162.048 404.644 162.174 404.224 162.174 403.454V399.912C162.622 399.786 163.07 399.646 163.518 399.506L163.308 398.008ZM171.988 400.542V399.1H168.614V397.686H167.046V399.1H163.756V400.542H166.164C165.38 401.69 164.134 402.74 162.86 403.314C163.224 403.622 163.7 404.224 163.966 404.616C165.114 403.972 166.22 402.922 167.046 401.732V405.12H168.614V401.802C169.37 402.908 170.322 403.916 171.288 404.546C171.54 404.154 172.016 403.58 172.38 403.286C171.26 402.698 170.14 401.648 169.412 400.542H171.988ZM180.612 399.562V397.84H183.566V399.562H180.612ZM176.258 399.562C176.286 399.044 176.3 398.54 176.3 398.092V397.84H178.932V399.562H176.258ZM178.932 394.662V396.286H176.3V394.662H178.932ZM183.566 396.286H180.612V394.662H183.566V396.286ZM185.218 393.08H174.648V398.078C174.648 400.038 174.522 402.53 172.996 404.21C173.374 404.406 174.046 404.98 174.312 405.288C175.32 404.196 175.824 402.656 176.076 401.13H178.932V405.036H180.612V401.13H183.566V403.23C183.566 403.482 183.468 403.566 183.202 403.566C182.95 403.566 182.026 403.58 181.242 403.538C181.452 403.972 181.718 404.686 181.774 405.134C183.034 405.148 183.888 405.12 184.462 404.84C185.022 404.588 185.218 404.14 185.218 403.244V393.08ZM193.002 393.038L190.916 392.828C190.944 393.71 190.818 394.732 190.622 395.782C189.908 395.852 189.25 395.894 188.816 395.908C188.298 395.922 187.836 395.95 187.318 395.908L187.486 397.812C187.92 397.742 188.648 397.644 189.054 397.574C189.306 397.546 189.754 397.49 190.258 397.434C189.74 399.352 188.774 402.18 187.416 404.014L189.236 404.742C190.524 402.684 191.56 399.366 192.092 397.238C192.498 397.21 192.848 397.182 193.072 397.182C193.94 397.182 194.43 397.336 194.43 398.456C194.43 399.842 194.234 401.536 193.856 402.334C193.632 402.796 193.282 402.936 192.806 402.936C192.442 402.936 191.63 402.796 191.098 402.642L191.392 404.49C191.868 404.588 192.54 404.686 193.072 404.686C194.136 404.686 194.906 404.378 195.368 403.398C195.97 402.18 196.166 399.912 196.166 398.26C196.166 396.244 195.116 395.586 193.632 395.586C193.338 395.586 192.932 395.614 192.456 395.642C192.554 395.138 192.666 394.62 192.75 394.2C192.82 393.85 192.918 393.402 193.002 393.038ZM199.232 391.876L198.112 392.324C198.504 392.856 198.952 393.682 199.246 394.256L200.352 393.78C200.114 393.29 199.596 392.408 199.232 391.876ZM197.566 392.506L196.46 392.968C196.782 393.416 197.132 394.088 197.412 394.62L196.152 395.166C197.146 396.398 198.14 398.862 198.504 400.416L200.282 399.604C199.89 398.358 198.84 396.02 198 394.718L198.686 394.424C198.42 393.906 197.916 393.024 197.566 392.506ZM206.107 404H204.132V396.385L201.773 397.116V395.51L205.896 394.033H206.107V404ZM214.509 392.464C214.411 394.312 214.607 400.668 209.021 403.762C209.581 404.154 210.127 404.658 210.421 405.092C213.375 403.286 214.845 400.584 215.601 398.064C216.385 400.64 217.953 403.524 221.117 405.092C221.383 404.644 221.887 404.07 222.405 403.678C217.183 401.228 216.483 395.194 216.371 393.262C216.385 392.968 216.399 392.688 216.413 392.464H214.509ZM230.651 392.954C231.421 394.424 232.471 395.964 233.577 397.252H226.017C227.123 395.992 228.103 394.452 228.789 392.842L226.997 392.324C226.157 394.452 224.617 396.384 222.867 397.56C223.273 397.854 223.987 398.526 224.295 398.904C224.673 398.61 225.051 398.274 225.415 397.896V398.876H227.781C227.501 400.92 226.773 402.754 223.609 403.776C224.015 404.154 224.505 404.84 224.715 405.316C228.341 403.958 229.251 401.564 229.601 398.876H232.359C232.233 401.802 232.079 403.048 231.799 403.342C231.645 403.51 231.491 403.538 231.239 403.538C230.889 403.538 230.161 403.524 229.391 403.468C229.685 403.944 229.909 404.644 229.937 405.148C230.763 405.176 231.575 405.176 232.051 405.106C232.597 405.036 232.975 404.896 233.325 404.448C233.815 403.86 233.983 402.208 234.137 397.98V397.882C234.445 398.204 234.739 398.512 235.033 398.778C235.355 398.302 235.999 397.63 236.447 397.28C234.921 396.104 233.171 394.074 232.289 392.296L230.651 392.954ZM246.625 396.86H245.561V395.068H246.625V396.86ZM246.625 400.122H245.561V398.344H246.625V400.122ZM240.745 398.344H241.753V400.122H240.745V398.344ZM244.175 398.344V400.122H243.139V398.344H244.175ZM243.139 396.86V395.068H244.175V396.86H243.139ZM240.745 395.068H241.753V396.86H240.745V395.068ZM239.275 396.86H237.399V398.344H239.275V400.122H237.609V401.606H249.775V400.122H248.151V398.344H249.971V396.86H248.151V395.068H249.467V393.598H241.067C241.277 393.276 241.459 392.954 241.613 392.618L239.989 392.142C239.373 393.444 238.267 394.718 237.091 395.488C237.469 395.754 238.141 396.286 238.449 396.58C238.729 396.37 238.995 396.118 239.275 395.852V396.86ZM238.841 405.232C239.527 404.504 240.129 403.356 240.437 402.292L238.827 401.9C238.505 402.922 237.875 404 237.259 404.588L238.841 405.232ZM241.333 402.39C241.487 403.244 241.599 404.392 241.599 405.064L243.223 404.826C243.209 404.168 243.041 403.062 242.873 402.208L241.333 402.39ZM244.105 402.418C244.413 403.272 244.735 404.406 244.819 405.078L246.485 404.756C246.359 404.07 246.009 402.978 245.673 402.152L244.105 402.418ZM246.877 402.348C247.493 403.244 248.235 404.476 248.529 405.218L250.237 404.644C249.887 403.874 249.103 402.698 248.473 401.844L246.877 402.348ZM260.737 394.592C260.289 394.074 259.295 393.36 258.511 392.898L257.713 394.018C258.483 394.536 259.449 395.292 259.883 395.838L260.737 394.592ZM257.069 397.532C257.881 398.022 258.903 398.764 259.365 399.282L260.205 397.952C259.701 397.448 258.665 396.776 257.853 396.342L257.069 397.532ZM255.809 392.912C255.655 393.892 255.319 395.306 255.039 396.188L256.089 396.482C256.439 395.67 256.845 394.34 257.209 393.22L255.809 392.912ZM253.093 396.188C253.023 395.32 252.743 393.99 252.379 392.982L251.217 393.29C251.539 394.298 251.819 395.656 251.847 396.524L253.093 396.188ZM256.915 400.794C256.621 400.402 255.291 398.834 254.885 398.428V398.33H256.957V396.776H254.885V392.198H253.345V396.776H251.231V398.33H252.827C252.393 399.604 251.679 401.102 250.979 401.956C251.231 402.418 251.595 403.174 251.735 403.678C252.337 402.838 252.897 401.536 253.345 400.234V405.176H254.885V400.262C255.291 400.906 255.683 401.634 255.893 402.082L256.915 400.794ZM264.321 401.116L264.069 399.562L262.641 399.828V392.128H261.073V400.108L256.915 400.85L257.167 402.404L261.073 401.704V405.204H262.641V401.424L264.321 401.116ZM270.943 394.214V396.006C272.707 396.174 275.241 396.16 276.963 396.006V394.2C275.451 394.382 272.665 394.452 270.943 394.214ZM272.063 400.192L270.453 400.038C270.299 400.752 270.215 401.312 270.215 401.858C270.215 403.3 271.377 404.154 273.785 404.154C275.367 404.154 276.487 404.056 277.397 403.888L277.369 401.998C276.137 402.25 275.101 402.362 273.855 402.362C272.427 402.362 271.895 401.984 271.895 401.368C271.895 400.99 271.951 400.654 272.063 400.192ZM268.787 393.276L266.827 393.108C266.813 393.556 266.729 394.088 266.687 394.48C266.533 395.558 266.099 397.924 266.099 400.024C266.099 401.928 266.365 403.636 266.645 404.602L268.269 404.49C268.255 404.294 268.241 404.07 268.241 403.916C268.241 403.776 268.269 403.468 268.311 403.258C268.465 402.516 268.927 400.99 269.319 399.828L268.451 399.142C268.255 399.604 268.031 400.094 267.821 400.57C267.779 400.29 267.765 399.926 267.765 399.66C267.765 398.26 268.255 395.46 268.437 394.522C268.493 394.27 268.675 393.57 268.787 393.276ZM285.279 392.73L283.347 392.534C283.319 393.262 283.165 394.102 282.969 394.872C282.535 394.914 282.115 394.928 281.695 394.928C281.177 394.928 280.435 394.9 279.833 394.83L279.959 396.454C280.561 396.496 281.135 396.51 281.709 396.51C281.947 396.51 282.185 396.51 282.437 396.496C281.821 398.008 280.687 400.066 279.581 401.438L281.275 402.306C282.409 400.724 283.599 398.274 284.271 396.314C285.209 396.174 286.077 395.992 286.721 395.824L286.665 394.2C286.119 394.368 285.461 394.522 284.775 394.648C284.985 393.892 285.167 393.178 285.279 392.73ZM284.551 402.418C284.551 401.928 285.069 401.564 285.881 401.564C286.273 401.564 286.651 401.62 287.015 401.704C287.015 401.816 287.015 401.9 287.015 401.984C287.015 402.754 286.721 403.286 285.755 403.286C284.985 403.286 284.551 402.936 284.551 402.418ZM288.555 397.084H286.805C286.833 397.938 286.903 399.184 286.959 400.22C286.637 400.192 286.329 400.164 285.993 400.164C284.047 400.164 282.899 401.214 282.899 402.586C282.899 404.126 284.271 404.896 286.007 404.896C287.995 404.896 288.709 403.888 288.709 402.586C288.709 402.544 288.709 402.488 288.709 402.446C289.479 402.908 290.109 403.496 290.599 403.944L291.537 402.446C290.823 401.802 289.843 401.102 288.639 400.654C288.611 399.954 288.569 399.282 288.555 398.876C288.541 398.26 288.513 397.672 288.555 397.084ZM290.963 397.826L291.957 396.356C291.243 395.838 289.507 394.886 288.499 394.452L287.603 395.838C288.555 396.272 290.151 397.182 290.963 397.826ZM297.725 392.758L295.807 392.674C295.807 393.052 295.765 393.612 295.695 394.144C295.499 395.586 295.303 397.322 295.303 398.624C295.303 399.562 295.401 400.416 295.485 400.962L297.207 400.85C297.123 400.192 297.109 399.744 297.137 399.366C297.207 397.518 298.649 395.04 300.301 395.04C301.477 395.04 302.205 396.244 302.205 398.4C302.205 401.788 300.007 402.81 296.899 403.286L297.963 404.91C301.673 404.238 304.095 402.348 304.095 398.386C304.095 395.306 302.583 393.402 300.637 393.402C299.055 393.402 297.837 394.578 297.165 395.67C297.249 394.886 297.529 393.444 297.725 392.758ZM310.647 402.418C310.647 401.942 311.193 401.55 312.187 401.55C312.579 401.55 312.957 401.592 313.335 401.648C313.349 401.9 313.349 402.096 313.349 402.25C313.349 403.062 312.859 403.272 312.117 403.272C311.151 403.272 310.647 402.95 310.647 402.418ZM315.029 392.674H313.139C313.195 392.94 313.223 393.374 313.223 393.64C313.223 393.808 313.223 394.032 313.223 394.298C313.041 394.298 312.859 394.298 312.677 394.298C311.823 394.298 310.227 394.158 309.219 393.99L309.261 395.586C310.185 395.712 311.809 395.838 312.691 395.838C312.859 395.838 313.027 395.838 313.209 395.838C313.195 396.314 313.195 396.818 313.195 397.28C312.971 397.28 312.747 397.28 312.523 397.28C311.781 397.28 310.059 397.182 309.149 397.014L309.163 398.666C310.087 398.778 311.683 398.848 312.495 398.848C312.747 398.848 312.985 398.848 313.223 398.848C313.237 399.268 313.251 399.716 313.279 400.15C312.999 400.122 312.705 400.108 312.411 400.108C310.255 400.108 308.953 401.102 308.953 402.516C308.953 404 310.129 404.854 312.369 404.854C314.217 404.854 315.127 403.93 315.127 402.74C315.127 402.586 315.127 402.418 315.113 402.222C316.233 402.726 317.185 403.468 317.941 404.168L318.949 402.6C318.137 401.928 316.793 400.99 315.029 400.486C314.987 399.926 314.959 399.352 314.931 398.82C316.275 398.778 317.367 398.68 318.627 398.54L318.641 396.888C317.507 397.042 316.317 397.154 314.903 397.224C314.903 396.79 314.903 396.272 314.903 395.782C316.261 395.712 317.535 395.586 318.459 395.474L318.473 393.864C317.241 394.074 316.079 394.186 314.931 394.242C314.931 394.018 314.931 393.808 314.945 393.668C314.959 393.304 314.987 392.954 315.029 392.674ZM329.813 392.716H327.783C327.825 392.884 327.881 393.36 327.923 393.934C327.937 394.046 327.937 394.186 327.951 394.368C326.047 394.396 323.499 394.452 321.903 394.452L321.945 396.146C323.667 396.048 325.851 395.964 327.965 395.936C327.979 396.244 327.979 396.566 327.979 396.874C327.797 396.846 327.615 396.832 327.419 396.832C325.893 396.832 324.619 397.868 324.619 399.45C324.619 401.158 325.949 402.026 327.027 402.026C327.251 402.026 327.461 401.998 327.657 401.956C326.887 402.796 325.655 403.258 324.241 403.552L325.739 405.036C329.155 404.084 330.219 401.76 330.219 399.94C330.219 399.212 330.051 398.554 329.715 398.022C329.715 397.406 329.701 396.636 329.701 395.922C331.605 395.922 332.907 395.95 333.747 395.992L333.761 394.34C333.033 394.326 331.115 394.354 329.701 394.354C329.715 394.186 329.715 394.032 329.715 393.92C329.729 393.696 329.785 392.94 329.813 392.716ZM326.299 399.422C326.299 398.68 326.831 398.302 327.377 398.302C327.755 398.302 328.091 398.47 328.287 398.792C328.483 400.024 327.965 400.472 327.377 400.472C326.817 400.472 326.299 400.066 326.299 399.422Z" fill="#009688"/>
<path d="M67.616 486.276V487.86C68.588 487.944 69.632 487.992 70.892 487.992C72.032 487.992 73.52 487.92 74.36 487.848V486.252C73.436 486.348 72.068 486.42 70.88 486.42C69.62 486.42 68.504 486.372 67.616 486.276ZM68.624 491.364L67.052 491.22C66.956 491.664 66.812 492.252 66.812 492.948C66.812 494.592 68.192 495.516 70.94 495.516C72.62 495.516 74.06 495.36 75.104 495.108L75.092 493.416C74.036 493.716 72.5 493.896 70.88 493.896C69.152 493.896 68.42 493.344 68.42 492.576C68.42 492.168 68.504 491.796 68.624 491.364ZM83.924 486.084L82.22 485.4C82.016 485.904 81.788 486.3 81.632 486.624C80.996 487.764 78.536 492.66 77.648 495.06L79.34 495.636C79.52 495 79.94 493.656 80.252 492.96C80.684 491.988 81.356 491.148 82.172 491.148C82.604 491.148 82.844 491.4 82.88 491.82C82.916 492.312 82.904 493.296 82.952 493.932C83 494.808 83.624 495.6 84.956 495.6C86.792 495.6 87.908 494.232 88.532 492.18L87.236 491.124C86.888 492.612 86.252 493.956 85.208 493.956C84.812 493.956 84.476 493.776 84.428 493.308C84.368 492.804 84.404 491.844 84.38 491.304C84.332 490.308 83.792 489.744 82.892 489.744C82.436 489.744 81.956 489.852 81.512 490.104C82.112 489.048 82.952 487.512 83.54 486.648C83.672 486.456 83.804 486.252 83.924 486.084ZM94.664 485.34L93.008 485.172C92.984 485.796 92.852 486.516 92.684 487.176C92.312 487.212 91.952 487.224 91.592 487.224C91.148 487.224 90.512 487.2 89.996 487.14L90.104 488.532C90.62 488.568 91.112 488.58 91.604 488.58C91.808 488.58 92.012 488.58 92.228 488.568C91.7 489.864 90.728 491.628 89.78 492.804L91.232 493.548C92.204 492.192 93.224 490.092 93.8 488.412C94.604 488.292 95.348 488.136 95.9 487.992L95.852 486.6C95.384 486.744 94.82 486.876 94.232 486.984C94.412 486.336 94.568 485.724 94.664 485.34ZM94.04 493.644C94.04 493.224 94.484 492.912 95.18 492.912C95.516 492.912 95.84 492.96 96.152 493.032C96.152 493.128 96.152 493.2 96.152 493.272C96.152 493.932 95.9 494.388 95.072 494.388C94.412 494.388 94.04 494.088 94.04 493.644ZM97.472 489.072H95.972C95.996 489.804 96.056 490.872 96.104 491.76C95.828 491.736 95.564 491.712 95.276 491.712C93.608 491.712 92.624 492.612 92.624 493.788C92.624 495.108 93.8 495.768 95.288 495.768C96.992 495.768 97.604 494.904 97.604 493.788C97.604 493.752 97.604 493.704 97.604 493.668C98.264 494.064 98.804 494.568 99.224 494.952L100.028 493.668C99.416 493.116 98.576 492.516 97.544 492.132C97.52 491.532 97.484 490.956 97.472 490.608C97.46 490.08 97.436 489.576 97.472 489.072ZM99.536 489.708L100.388 488.448C99.776 488.004 98.288 487.188 97.424 486.816L96.656 488.004C97.472 488.376 98.84 489.156 99.536 489.708ZM110.468 486.696H107.372V486.12H110.468V486.696ZM110.468 488.208H107.372V487.632H110.468V488.208ZM111.788 485.136H106.112V489.192H111.788V485.136ZM112.604 490.848V489.648H105.056V490.848H106.412C106.112 491.316 105.74 491.748 105.308 492.12L105.056 491.1L104.096 491.52V488.688H105.224V487.344H104.096V484.98H102.776V487.344H101.576V488.688H102.776V492.072C102.212 492.3 101.708 492.504 101.3 492.66L101.828 494.1C102.56 493.74 103.424 493.308 104.288 492.876C104.588 493.068 105.044 493.488 105.224 493.716C105.716 493.404 106.184 493.008 106.628 492.54H107.336C106.7 493.428 105.776 494.268 104.888 494.712C105.224 494.916 105.596 495.276 105.824 495.552C106.868 494.892 107.984 493.692 108.632 492.54H109.34C108.824 493.656 108.02 494.724 107.108 495.3C107.468 495.492 107.876 495.816 108.116 496.092C109.088 495.336 110.024 493.884 110.516 492.54H110.984C110.852 493.992 110.708 494.604 110.54 494.784C110.444 494.892 110.348 494.916 110.18 494.916C110.024 494.916 109.712 494.916 109.328 494.88C109.508 495.18 109.628 495.66 109.652 495.996C110.132 496.02 110.588 496.008 110.864 495.972C111.164 495.936 111.428 495.84 111.656 495.564C111.98 495.216 112.172 494.256 112.34 491.916C112.352 491.748 112.364 491.424 112.364 491.424H107.492C107.612 491.232 107.732 491.04 107.828 490.848H112.604ZM121.388 492.396V494.352H116.648V492.396H121.388ZM115.244 496.056H116.648V495.612H121.388V496.056H122.852V491.136H115.244V496.056ZM116.576 488.688C117.56 487.908 118.4 487.056 118.964 486.252C119.54 487.044 120.428 487.908 121.424 488.688H116.576ZM118.16 484.848C117.26 486.312 115.34 488.124 113.276 489.12C113.588 489.42 113.984 489.936 114.176 490.284C114.812 489.936 115.448 489.54 116.036 489.108V489.948H122.012V489.12C122.612 489.552 123.236 489.948 123.848 490.26C124.1 489.816 124.424 489.348 124.772 488.976C122.864 488.208 120.92 486.684 119.636 484.848H118.16ZM130.376 486.612V488.148C131.888 488.292 134.06 488.28 135.536 488.148V486.6C134.24 486.756 131.852 486.816 130.376 486.612ZM131.336 491.736L129.956 491.604C129.824 492.216 129.752 492.696 129.752 493.164C129.752 494.4 130.748 495.132 132.812 495.132C134.168 495.132 135.128 495.048 135.908 494.904L135.884 493.284C134.828 493.5 133.94 493.596 132.872 493.596C131.648 493.596 131.192 493.272 131.192 492.744C131.192 492.42 131.24 492.132 131.336 491.736ZM128.528 485.808L126.848 485.664C126.836 486.048 126.764 486.504 126.728 486.84C126.596 487.764 126.224 489.792 126.224 491.592C126.224 493.224 126.452 494.688 126.692 495.516L128.084 495.42C128.072 495.252 128.06 495.06 128.06 494.928C128.06 494.808 128.084 494.544 128.12 494.364C128.252 493.728 128.648 492.42 128.984 491.424L128.24 490.836C128.072 491.232 127.88 491.652 127.7 492.06C127.664 491.82 127.652 491.508 127.652 491.28C127.652 490.08 128.072 487.68 128.228 486.876C128.276 486.66 128.432 486.06 128.528 485.808ZM142.232 485.256H140.576C140.612 485.472 140.66 486.06 140.66 486.312C140.66 486.516 140.66 486.864 140.648 487.284C140.408 487.296 140.168 487.308 139.952 487.308C139.52 487.308 139.004 487.296 138.296 487.212L138.32 488.664C138.728 488.712 139.196 488.724 140 488.724C140.192 488.724 140.408 488.712 140.636 488.7C140.636 489.036 140.636 489.372 140.636 489.708C140.636 489.984 140.636 490.272 140.648 490.56C139.172 491.196 137.972 492.288 137.972 493.332C137.972 494.604 139.616 495.612 140.78 495.612C141.572 495.612 142.1 495.216 142.1 493.728C142.1 493.32 142.076 492.384 142.052 491.436C142.784 491.22 143.564 491.1 144.308 491.1C145.352 491.1 146.072 491.58 146.072 492.396C146.072 493.272 145.304 493.752 144.332 493.932C143.912 494.004 143.396 494.016 142.856 494.016L143.408 495.564C143.9 495.528 144.428 495.492 144.98 495.372C146.888 494.892 147.632 493.824 147.632 492.408C147.632 490.752 146.18 489.792 144.332 489.792C143.672 489.792 142.844 489.9 142.028 490.104C142.028 489.948 142.028 489.804 142.028 489.66C142.028 489.312 142.028 488.94 142.04 488.58C142.82 488.484 143.648 488.364 144.332 488.208L144.296 486.72C143.672 486.9 142.88 487.056 142.088 487.152C142.1 486.852 142.112 486.564 142.124 486.3C142.148 485.988 142.196 485.472 142.232 485.256ZM145.652 486.552L144.992 487.716C145.736 488.076 147.308 488.976 147.884 489.468L148.604 488.244C147.968 487.788 146.576 486.996 145.652 486.552ZM139.448 493.272C139.448 492.852 139.94 492.36 140.672 491.964C140.696 492.612 140.708 493.164 140.708 493.464C140.708 493.872 140.54 493.968 140.324 493.968C140.012 493.968 139.448 493.644 139.448 493.272ZM156.836 485.328H155.096C155.132 485.472 155.18 485.88 155.216 486.372C155.228 486.468 155.228 486.588 155.24 486.744C153.608 486.768 151.424 486.816 150.056 486.816L150.092 488.268C151.568 488.184 153.44 488.112 155.252 488.088C155.264 488.352 155.264 488.628 155.264 488.892C155.108 488.868 154.952 488.856 154.784 488.856C153.476 488.856 152.384 489.744 152.384 491.1C152.384 492.564 153.524 493.308 154.448 493.308C154.64 493.308 154.82 493.284 154.988 493.248C154.328 493.968 153.272 494.364 152.06 494.616L153.344 495.888C156.272 495.072 157.184 493.08 157.184 491.52C157.184 490.896 157.04 490.332 156.752 489.876C156.752 489.348 156.74 488.688 156.74 488.076C158.372 488.076 159.488 488.1 160.208 488.136L160.22 486.72C159.596 486.708 157.952 486.732 156.74 486.732C156.752 486.588 156.752 486.456 156.752 486.36C156.764 486.168 156.812 485.52 156.836 485.328ZM153.824 491.076C153.824 490.44 154.28 490.116 154.748 490.116C155.072 490.116 155.36 490.26 155.528 490.536C155.696 491.592 155.252 491.976 154.748 491.976C154.268 491.976 153.824 491.628 153.824 491.076ZM168.836 485.328H167.096C167.132 485.472 167.18 485.88 167.216 486.372C167.228 486.468 167.228 486.588 167.24 486.744C165.608 486.768 163.424 486.816 162.056 486.816L162.092 488.268C163.568 488.184 165.44 488.112 167.252 488.088C167.264 488.352 167.264 488.628 167.264 488.892C167.108 488.868 166.952 488.856 166.784 488.856C165.476 488.856 164.384 489.744 164.384 491.1C164.384 492.564 165.524 493.308 166.448 493.308C166.64 493.308 166.82 493.284 166.988 493.248C166.328 493.968 165.272 494.364 164.06 494.616L165.344 495.888C168.272 495.072 169.184 493.08 169.184 491.52C169.184 490.896 169.04 490.332 168.752 489.876C168.752 489.348 168.74 488.688 168.74 488.076C170.372 488.076 171.488 488.1 172.208 488.136L172.22 486.72C171.596 486.708 169.952 486.732 168.74 486.732C168.752 486.588 168.752 486.456 168.752 486.36C168.764 486.168 168.812 485.52 168.836 485.328ZM165.824 491.076C165.824 490.44 166.28 490.116 166.748 490.116C167.072 490.116 167.36 490.26 167.528 490.536C167.696 491.592 167.252 491.976 166.748 491.976C166.268 491.976 165.824 491.628 165.824 491.076ZM181.388 485.592L179.732 485.436C179.732 485.712 179.696 486.228 179.636 486.576C179.612 486.756 179.576 486.948 179.528 487.152C178.604 487.188 177.716 487.416 176.804 487.872C176.72 487.62 176.648 487.368 176.588 487.14C176.492 486.78 176.396 486.384 176.324 485.988L174.752 486.48C174.968 486.912 175.1 487.296 175.232 487.728C175.34 488.052 175.436 488.376 175.556 488.7C174.464 489.66 173.78 491.124 173.78 492.492C173.78 494.04 174.692 494.88 175.688 494.88C176.576 494.88 177.248 494.484 178.052 493.608C178.172 493.764 178.316 493.92 178.46 494.076L179.672 493.116C179.444 492.9 179.228 492.648 179.012 492.396C179.696 491.352 180.224 489.972 180.644 488.58C181.844 488.904 182.588 489.9 182.588 491.232C182.588 492.732 181.544 494.088 178.916 494.304L179.828 495.696C182.324 495.312 184.136 493.86 184.136 491.316C184.136 489.216 182.888 487.692 181.004 487.26C181.04 487.104 181.076 486.96 181.112 486.804C181.184 486.504 181.292 485.916 181.388 485.592ZM175.184 492.372C175.184 491.628 175.508 490.776 176.072 490.116C176.42 491.016 176.804 491.832 177.188 492.42C176.744 492.96 176.3 493.332 175.868 493.332C175.436 493.332 175.184 492.96 175.184 492.372ZM177.236 489.18C177.8 488.844 178.436 488.592 179.168 488.508C178.892 489.396 178.532 490.332 178.1 491.1C177.812 490.62 177.512 489.924 177.236 489.18ZM191 488.808C191.636 488.808 192.14 488.328 192.14 487.692C192.14 487.032 191.636 486.552 191 486.552C190.364 486.552 189.86 487.032 189.86 487.692C189.86 488.328 190.364 488.808 191 488.808ZM191 494.532C191.636 494.532 192.14 494.052 192.14 493.416C192.14 492.756 191.636 492.276 191 492.276C190.364 492.276 189.86 492.756 189.86 493.416C189.86 494.052 190.364 494.532 191 494.532Z" fill="#545252"/>
<path d="M101.36 529.768C101.04 529.192 100.336 528.328 99.712 527.736L98.88 528.168C99.488 528.792 100.176 529.688 100.496 530.28L101.36 529.768ZM91.84 528.168H87.456V529.128H91.84V528.168ZM90.88 537.656V540.344H88.368V537.656H90.88ZM91.904 536.68H87.36V542.04H88.368V541.304H91.904V536.68ZM87.376 535.496H91.92V534.536H87.376V535.496ZM87.376 533.368H91.92V532.424H87.376V533.368ZM86.672 531.24H92.304V530.264H86.672V531.24ZM95.472 539.464V535.128H97.104V534.104H92.688V535.128H94.384V539.688C93.632 539.848 92.944 539.976 92.384 540.088L92.656 541.176C94.032 540.856 95.84 540.456 97.552 540.04L97.488 539.048L95.472 539.464ZM101.168 531.864V530.792H98.672C98.656 529.784 98.656 528.728 98.672 527.624H97.52C97.536 528.728 97.536 529.784 97.552 530.792H92.56V531.864H97.584C97.728 538.168 98.208 542.168 100.16 542.232C100.688 542.248 101.264 541.656 101.552 539.336C101.376 539.224 100.88 538.92 100.672 538.664C100.608 539.96 100.432 540.776 100.176 540.76C99.232 540.696 98.784 537.176 98.688 531.864H101.168ZM107.44 528.536L105.824 528.52C105.92 528.984 105.952 529.56 105.952 530.152C105.952 531.832 105.792 535.88 105.792 538.248C105.792 540.856 107.376 541.816 109.68 541.816C113.2 541.816 115.264 539.8 116.368 538.28L115.456 537.192C114.304 538.856 112.656 540.504 109.728 540.504C108.208 540.504 107.104 539.88 107.104 538.12C107.104 535.736 107.216 531.96 107.296 530.152C107.312 529.624 107.36 529.064 107.44 528.536ZM125.296 530.2V531.48C127.056 531.672 130.16 531.672 131.872 531.48V530.184C130.272 530.424 127.04 530.488 125.296 530.2ZM125.92 536.712L124.768 536.6C124.592 537.384 124.496 537.944 124.496 538.488C124.496 539.992 125.696 540.888 128.384 540.888C130.032 540.888 131.376 540.744 132.384 540.552L132.352 539.208C131.056 539.496 129.824 539.624 128.384 539.624C126.208 539.624 125.68 538.92 125.68 538.184C125.68 537.752 125.76 537.304 125.92 536.712ZM122.24 528.968L120.816 528.84C120.816 529.192 120.768 529.608 120.704 529.976C120.512 531.304 119.984 534.04 119.984 536.392C119.984 538.552 120.256 540.392 120.576 541.528L121.728 541.448C121.712 541.288 121.696 541.064 121.68 540.888C121.664 540.712 121.712 540.408 121.76 540.168C121.904 539.416 122.48 537.72 122.896 536.584L122.224 536.072C121.952 536.728 121.568 537.688 121.296 538.408C121.2 537.624 121.152 536.952 121.152 536.168C121.152 534.376 121.648 531.512 121.952 530.04C122.016 529.752 122.16 529.24 122.24 528.968ZM139.344 529.464C140.416 529.224 141.424 528.936 142.224 528.616L141.344 527.704C139.856 528.36 137.072 528.904 134.736 529.256C134.88 529.512 135.056 529.912 135.104 530.2C136.096 530.056 137.152 529.896 138.192 529.704V532.408H134.848V533.496H137.952C137.168 535.48 135.776 537.688 134.496 538.904C134.704 539.192 135.008 539.688 135.152 540.008C136.24 538.92 137.36 537.112 138.192 535.288V542.184H139.344V535.88C140.16 536.632 141.184 537.656 141.664 538.184L142.352 537.208C141.888 536.792 140.064 535.224 139.344 534.664V533.496H142.4V532.408H139.344V529.464ZM144.624 529.512H143.472V538.264H144.624V529.512ZM147.376 527.928V540.648C147.376 540.952 147.248 541.048 146.96 541.048C146.656 541.064 145.648 541.064 144.528 541.032C144.72 541.368 144.896 541.912 144.96 542.232C146.416 542.232 147.312 542.2 147.84 542.024C148.336 541.816 148.56 541.448 148.56 540.632V527.928H147.376ZM158.672 536.216V533.56H162.976V536.216H158.672ZM153.6 536.216C153.648 535.624 153.664 535.032 153.664 534.504V533.56H157.488V536.216H153.6ZM157.488 529.88V532.44H153.664V529.88H157.488ZM162.976 532.44H158.672V529.88H162.976V532.44ZM164.144 528.744H152.496V534.504C152.496 536.728 152.336 539.544 150.576 541.528C150.832 541.672 151.312 542.072 151.488 542.312C152.704 540.952 153.248 539.128 153.488 537.352H157.488V542.072H158.672V537.352H162.976V540.6C162.976 540.904 162.864 541 162.544 541.016C162.256 541.016 161.168 541.032 160.048 540.984C160.208 541.304 160.4 541.816 160.448 542.136C161.952 542.152 162.88 542.136 163.424 541.944C163.936 541.736 164.144 541.384 164.144 540.616V528.744ZM171.44 528.536L169.824 528.52C169.92 528.984 169.952 529.56 169.952 530.152C169.952 531.832 169.792 535.88 169.792 538.248C169.792 540.856 171.376 541.816 173.68 541.816C177.2 541.816 179.264 539.8 180.368 538.28L179.456 537.192C178.304 538.856 176.656 540.504 173.728 540.504C172.208 540.504 171.104 539.88 171.104 538.12C171.104 535.736 171.216 531.96 171.296 530.152C171.312 529.624 171.36 529.064 171.44 528.536ZM190.928 537.176L189.728 537.064C189.6 537.736 189.488 538.328 189.488 538.952C189.488 540.536 190.864 541.304 193.392 541.304C194.56 541.304 195.616 541.208 196.48 541.08L196.528 539.784C195.552 539.992 194.448 540.104 193.408 540.104C191.12 540.104 190.704 539.368 190.704 538.616C190.704 538.2 190.784 537.704 190.928 537.176ZM189.088 528.408L187.552 528.28C187.584 528.616 187.568 529.16 187.504 529.608C187.456 529.928 187.376 530.44 187.264 531C186.64 531.048 186.064 531.08 185.536 531.08C184.96 531.08 184.384 531.064 183.616 530.968L183.664 532.216C184.24 532.248 184.816 532.28 185.52 532.28C185.968 532.28 186.464 532.264 186.992 532.232C186.864 532.808 186.72 533.416 186.576 533.944C185.984 536.2 184.848 539.448 183.888 541.096L185.296 541.576C186.128 539.816 187.216 536.52 187.792 534.248C187.984 533.544 188.16 532.808 188.304 532.104C189.424 531.976 190.592 531.8 191.632 531.56V530.296C190.656 530.552 189.6 530.744 188.56 530.872C188.656 530.44 188.736 530.024 188.8 529.688C188.864 529.368 188.992 528.76 189.088 528.408ZM190.592 533.288V534.472C191.584 534.36 192.56 534.312 193.568 534.312C194.496 534.312 195.44 534.392 196.256 534.504L196.288 533.288C195.424 533.192 194.464 533.144 193.52 533.144C192.496 533.144 191.44 533.208 190.592 533.288ZM201.568 529.832L200.016 529.8C200.112 530.184 200.128 530.856 200.128 531.224C200.128 532.152 200.16 534.104 200.304 535.496C200.736 539.64 202.192 541.144 203.712 541.144C204.784 541.144 205.76 540.216 206.72 537.496L205.712 536.36C205.296 537.96 204.544 539.624 203.728 539.624C202.592 539.624 201.808 537.848 201.552 535.176C201.44 533.848 201.424 532.392 201.44 531.384C201.44 530.968 201.504 530.216 201.568 529.832ZM209.904 530.28L208.656 530.712C210.192 532.584 211.152 535.864 211.44 538.76L212.72 538.232C212.48 535.528 211.328 532.136 209.904 530.28Z" fill="#545252"/>
<path d="M65 535.884L68.5686 541L78 531" stroke="#FF5A5F" stroke-width="2"/>
<path d="M65 569.884L68.5686 575L78 565" stroke="#FF5A5F" stroke-width="2"/>
<path d="M89.2182 564.952H101.33V563.912H98.4822C98.9622 563.352 99.5062 562.632 100.018 561.944L98.8182 561.56C98.4822 562.216 97.8102 563.176 97.2982 563.768L97.6822 563.912H94.0822L95.0422 563.512C94.8822 562.984 94.4502 562.168 94.0182 561.576L93.0262 561.96C93.4262 562.568 93.8262 563.368 93.9542 563.912H90.6582L91.3142 563.56C91.0582 563.032 90.4822 562.264 89.9702 561.72L88.9942 562.2C89.4262 562.712 89.8902 563.384 90.1622 563.912H88.1462V568.472C88.1462 570.6 88.0182 573.512 86.7862 575.56C87.0422 575.688 87.5062 576.04 87.6822 576.248C89.0262 574.056 89.2182 570.76 89.2182 568.488V564.952ZM93.8582 569.944H91.4102V568.808H93.8582V569.944ZM91.4102 572.776H93.8582V573.912C93.0102 573.992 92.1782 574.088 91.4102 574.152V572.776ZM91.4102 570.76H93.8582V571.944H91.4102V570.76ZM95.5382 568.808V567.912H93.1542V566.68H95.2982V565.8H90.0502V566.68H92.1142V567.912H89.6502V568.808H90.4182V574.248C89.9702 574.28 89.5382 574.312 89.1702 574.344L89.4102 575.304C90.6582 575.176 92.2742 575 93.8582 574.808V576.248H94.8662V568.808H95.5382ZM97.3462 568.136H99.6662C99.4262 569.64 99.0262 570.936 98.4342 572.024C97.8902 571 97.4902 569.8 97.2182 568.52L97.3462 568.136ZM101.49 568.136V567.16H97.6342C97.7622 566.632 97.8902 566.104 97.9862 565.56L96.9302 565.368C96.5782 567.368 95.9862 569.256 95.0262 570.504C95.2822 570.664 95.6662 571.064 95.8422 571.256C96.1302 570.856 96.4022 570.408 96.6422 569.912C96.9462 571.048 97.3462 572.088 97.8422 572.984C97.1222 573.992 96.1942 574.776 95.0102 575.384C95.2502 575.576 95.6022 576.04 95.7302 576.248C96.8182 575.624 97.7142 574.872 98.4342 573.944C99.1222 574.936 99.9862 575.72 101.026 576.264C101.202 575.992 101.522 575.576 101.762 575.368C100.674 574.872 99.7782 574.072 99.0582 573.048C99.8742 571.72 100.418 570.104 100.77 568.136H101.49ZM115.65 564.104H112.578V565.768C112.578 566.728 112.914 566.968 114.098 566.968H116.242C117.09 566.968 117.394 566.68 117.506 565.608C117.218 565.544 116.834 565.416 116.626 565.272C116.578 566.024 116.498 566.12 116.114 566.12H114.21C113.682 566.12 113.586 566.056 113.586 565.752V564.936H116.706V562.232H112.274V563.064H115.65V564.104ZM110.498 564.104H107.362V565.768C107.362 566.728 107.666 566.968 108.85 566.968H110.834C111.65 566.968 111.954 566.696 112.066 565.656C111.778 565.608 111.394 565.48 111.186 565.32C111.138 566.024 111.058 566.12 110.674 566.12H108.946C108.434 566.12 108.354 566.056 108.354 565.768V564.936H111.506V562.232H107.074V563.064H110.498V564.104ZM110.754 569.24H113.378V570.76H110.754V569.24ZM117.41 570.76H114.514V569.24H116.914V568.328H114.514V567.176H113.378V568.328H110.754V567.176H109.65V568.328H107.282V569.24H109.65V570.76H106.77V571.688H117.41V570.76ZM117.17 573.816C116.418 573.224 115.106 572.456 113.938 571.896L113.09 572.424C114.194 572.984 115.346 573.736 116.018 574.328L117.17 573.816ZM110.178 571.864C109.474 572.504 108.29 573.112 107.202 573.544C107.458 573.704 107.89 574.088 108.082 574.296C109.138 573.784 110.418 573 111.234 572.232L110.178 571.864ZM106.466 564.648C106.018 563.848 104.962 562.744 104.018 561.992L103.106 562.6C104.034 563.384 105.058 564.52 105.474 565.32L106.466 564.648ZM106.098 567.88H103.026V569H104.994V573.128C104.29 573.8 103.506 574.472 102.834 574.968L103.458 576.072C104.226 575.368 104.946 574.696 105.618 573.992C106.61 575.256 108.066 575.832 110.178 575.912C111.986 575.976 115.442 575.944 117.25 575.864C117.298 575.528 117.49 575 117.634 574.744C115.682 574.872 111.954 574.92 110.146 574.84C108.274 574.76 106.85 574.216 106.098 573.016V567.88ZM123.682 562.536L122.066 562.52C122.162 562.984 122.194 563.56 122.194 564.152C122.194 565.832 122.034 569.88 122.034 572.248C122.034 574.856 123.618 575.816 125.922 575.816C129.442 575.816 131.506 573.8 132.61 572.28L131.698 571.192C130.546 572.856 128.898 574.504 125.97 574.504C124.45 574.504 123.346 573.88 123.346 572.12C123.346 569.736 123.458 565.96 123.538 564.152C123.554 563.624 123.602 563.064 123.682 562.536ZM135.118 564.376L135.262 565.768C136.99 565.4 141.07 565.016 142.782 564.824C141.31 565.704 139.79 567.736 139.79 570.232C139.79 573.8 143.166 575.384 146.126 575.496L146.59 574.168C143.982 574.072 141.07 573.08 141.07 569.944C141.07 568.056 142.462 565.624 144.734 564.888C145.55 564.648 146.958 564.632 147.87 564.632V563.352C146.798 563.4 145.294 563.48 143.55 563.64C140.606 563.88 137.582 564.184 136.542 564.296C136.238 564.328 135.726 564.36 135.118 564.376ZM157.15 561.64V569.688C157.15 569.928 157.07 569.992 156.782 570.008C156.51 570.008 155.534 570.024 154.478 569.992C154.67 570.344 154.862 570.856 154.91 571.208C156.254 571.208 157.134 571.192 157.646 570.984C158.174 570.776 158.35 570.44 158.35 569.704V561.64H157.15ZM160.59 564.024C161.966 565.672 163.422 567.912 163.966 569.352L165.15 568.712C164.526 567.256 163.022 565.08 161.662 563.48L160.59 564.024ZM161.646 568.36C160.286 572.44 157.246 574.36 151.614 575.096C151.854 575.384 152.126 575.896 152.238 576.248C158.142 575.336 161.374 573.208 162.862 568.744L161.646 568.36ZM153.63 563.624C153.038 565.368 151.838 567.496 150.43 568.856C150.75 569 151.198 569.336 151.47 569.56C152.894 568.12 154.158 565.864 154.926 563.944L153.63 563.624ZM172.942 562.104C172.83 564.216 172.83 571.848 166.35 575.16C166.718 575.4 167.102 575.784 167.31 576.072C171.358 573.88 173.006 570.024 173.71 566.824C174.478 570.024 176.238 574.12 180.366 576.072C180.542 575.752 180.91 575.352 181.246 575.096C175.23 572.344 174.366 564.952 174.222 562.84C174.238 562.568 174.238 562.312 174.254 562.104H172.942ZM188.766 561.928C188.51 562.552 187.966 563.48 187.582 564.04L188.382 564.424C188.798 563.896 189.342 563.096 189.806 562.36L188.766 561.928ZM185.07 564.04C184.91 563.48 184.478 562.632 184.03 561.992L183.134 562.36C183.566 563.016 183.982 563.896 184.126 564.456L185.07 564.04ZM192.078 565.656H194.862C194.574 567.64 194.142 569.336 193.454 570.76C192.814 569.272 192.366 567.544 192.062 565.704L192.078 565.656ZM187.71 571.08C187.502 571.944 187.182 572.648 186.702 573.224C186.078 572.92 185.438 572.632 184.798 572.376C185.006 571.96 185.246 571.528 185.47 571.08H187.71ZM197.054 565.656V564.536H192.414C192.638 563.656 192.846 562.728 193.006 561.784L191.79 561.608C191.358 564.424 190.526 567.096 189.182 568.776C189.454 568.968 189.966 569.368 190.142 569.592C190.574 569.016 190.974 568.344 191.31 567.592C191.678 569.224 192.142 570.712 192.75 572.008C191.966 573.208 190.91 574.168 189.55 574.92C189.054 574.552 188.414 574.136 187.71 573.752C188.254 573.032 188.622 572.152 188.846 571.08H190.238V570.088H185.966C186.158 569.704 186.334 569.32 186.51 568.968L186.238 568.904H186.926V566.52C187.694 567.096 188.702 567.864 189.118 568.248L189.774 567.4C189.342 567.08 187.614 565.992 186.926 565.592V565.512H190.174V564.536H186.926V561.608H185.822V564.536H182.542V565.512H185.502C184.718 566.552 183.502 567.544 182.366 568.056C182.59 568.264 182.878 568.68 183.022 568.952C183.998 568.424 185.022 567.544 185.822 566.6V568.808L185.406 568.712C185.214 569.144 184.99 569.608 184.75 570.088H182.446V571.08H184.254C183.822 571.912 183.39 572.728 183.038 573.336L184.062 573.704L184.318 573.256C184.846 573.48 185.374 573.736 185.886 573.992C185.07 574.584 183.95 574.984 182.478 575.24C182.702 575.464 182.942 575.896 183.022 576.216C184.734 575.848 185.998 575.32 186.926 574.552C187.662 574.984 188.302 575.416 188.798 575.816L189.166 575.432C189.374 575.704 189.582 576.056 189.678 576.264C191.246 575.464 192.446 574.44 193.39 573.192C194.174 574.472 195.15 575.496 196.382 576.216C196.542 575.896 196.926 575.432 197.198 575.208C195.918 574.536 194.91 573.448 194.11 572.072C195.086 570.36 195.694 568.248 196.094 565.656H197.054ZM205.118 562.344L203.806 562.232C203.774 562.824 203.63 563.544 203.406 564.232C203.054 564.248 202.686 564.248 202.35 564.248C201.614 564.248 200.494 564.184 199.646 564.072V565.272C200.526 565.336 201.582 565.368 202.27 565.368C202.494 565.368 202.734 565.368 202.974 565.368C202.366 566.664 201.294 568.312 199.278 570.264L200.366 571.064C200.91 570.424 201.358 569.832 201.822 569.4C202.542 568.728 203.566 568.232 204.574 568.232C205.294 568.232 205.87 568.536 206.03 569.224C204.158 570.2 202.254 571.384 202.254 573.272C202.254 575.224 204.094 575.72 206.382 575.72C207.774 575.72 209.55 575.592 210.766 575.432L210.798 574.152C209.39 574.392 207.678 574.536 206.43 574.536C204.782 574.536 203.534 574.344 203.534 573.096C203.534 572.04 204.574 571.192 206.062 570.408C206.062 571.256 206.046 572.296 206.014 572.904H207.246C207.23 572.12 207.214 570.76 207.198 569.832C208.414 569.256 209.55 568.792 210.446 568.456C210.878 568.28 211.454 568.056 211.87 567.944L211.342 566.744C210.894 566.984 210.51 567.16 210.03 567.368C209.198 567.752 208.222 568.136 207.134 568.664C206.878 567.736 206.03 567.224 204.99 567.224C204.302 567.224 203.374 567.432 202.766 567.816C203.31 567.096 203.838 566.184 204.206 565.336C205.95 565.272 207.934 565.144 209.518 564.888L209.534 563.704C208.03 563.976 206.286 564.12 204.654 564.2C204.894 563.448 205.022 562.824 205.118 562.344ZM227.598 561.864C225.742 562.424 222.334 562.808 219.534 562.984C219.662 563.256 219.806 563.672 219.838 563.96C222.718 563.784 226.222 563.432 228.414 562.776L227.598 561.864ZM226.67 568.296C227.374 567.304 228.238 565.72 228.894 564.376L227.774 563.96C227.31 565.16 226.43 566.872 225.758 567.912L226.67 568.296ZM224.782 567.096C224.734 566.328 224.414 565.112 223.982 564.168L222.958 564.36C223.374 565.32 223.694 566.584 223.71 567.352L224.782 567.096ZM221.918 567.528C221.758 566.728 221.262 565.496 220.702 564.568L219.758 564.84C220.286 565.8 220.75 567.048 220.894 567.864L221.918 567.528ZM219.326 569.448L219.166 568.344C218.638 568.52 218.11 568.696 217.582 568.856V565.912H219.294V564.824H217.582V561.624H216.478V564.824H214.478V565.912H216.478V569.192C215.646 569.448 214.878 569.688 214.27 569.848L214.574 571L216.478 570.376V574.84C216.478 575.08 216.398 575.128 216.206 575.128C216.014 575.144 215.39 575.144 214.702 575.128C214.862 575.448 215.006 575.944 215.054 576.216C216.046 576.232 216.654 576.184 217.038 576.008C217.438 575.816 217.582 575.496 217.582 574.84V570.024L219.326 569.448ZM228.862 570.52V569.448H224.766V567.688H223.646V569.448H219.598V570.52H222.878C221.902 572.104 220.302 573.576 218.67 574.328C218.942 574.52 219.294 574.952 219.486 575.256C221.054 574.392 222.606 572.888 223.646 571.192V576.12H224.766V571.176C225.726 572.792 227.166 574.344 228.542 575.208C228.734 574.92 229.086 574.504 229.342 574.312C227.934 573.56 226.414 572.056 225.518 570.52H228.862ZM238.43 570.216V567.56H242.734V570.216H238.43ZM233.358 570.216C233.406 569.624 233.422 569.032 233.422 568.504V567.56H237.246V570.216H233.358ZM237.246 563.88V566.44H233.422V563.88H237.246ZM242.734 566.44H238.43V563.88H242.734V566.44ZM243.902 562.744H232.254V568.504C232.254 570.728 232.094 573.544 230.334 575.528C230.59 575.672 231.07 576.072 231.246 576.312C232.462 574.952 233.006 573.128 233.246 571.352H237.246V576.072H238.43V571.352H242.734V574.6C242.734 574.904 242.622 575 242.302 575.016C242.014 575.016 240.926 575.032 239.806 574.984C239.966 575.304 240.158 575.816 240.206 576.136C241.71 576.152 242.638 576.136 243.182 575.944C243.694 575.736 243.902 575.384 243.902 574.616V562.744Z" fill="#545252"/>
<path d="M36 55C36 43.9543 44.9543 35 56 35H368C379.046 35 388 43.9543 388 55V204H36V55Z" fill="#FF5A5F" fill-opacity="0.8"/>
<path d="M161.852 88.596L159.416 89.604C160.452 91.032 161.152 92.404 161.964 94.168L164.484 93.076C163.868 91.788 162.636 89.744 161.852 88.596ZM165.604 87.056L163.196 88.148C164.232 89.548 164.988 90.836 165.884 92.6L168.32 91.424C167.676 90.164 166.416 88.176 165.604 87.056ZM142.98 100.02L146.34 103.492C146.844 102.764 147.516 101.784 148.16 100.888C149.28 99.376 151.268 96.604 152.36 95.204C153.172 94.196 153.76 94.14 154.656 95.036C155.664 96.072 158.156 98.788 159.78 100.72C161.432 102.652 163.812 105.536 165.688 107.86L168.768 104.556C166.612 102.26 163.756 99.152 161.88 97.164C160.2 95.344 158.044 93.104 156.168 91.34C153.984 89.296 152.332 89.604 150.68 91.564C148.748 93.86 146.564 96.604 145.304 97.892C144.436 98.732 143.82 99.348 142.98 100.02ZM172.576 95.036V99.432C173.612 99.348 175.488 99.292 177.084 99.292H192.12C193.296 99.292 194.724 99.404 195.396 99.432V95.036C194.668 95.092 193.436 95.204 192.12 95.204H177.084C175.628 95.204 173.584 95.12 172.576 95.036ZM206.105 85.824L204.061 88.904C205.909 89.94 208.821 91.844 210.389 92.936L212.489 89.828C211.033 88.82 207.953 86.832 206.105 85.824ZM200.897 105.704L202.997 109.4C205.489 108.952 209.493 107.552 212.349 105.928C216.941 103.296 220.889 99.74 223.493 95.876L221.337 92.068C219.097 96.072 215.205 99.908 210.445 102.568C207.393 104.248 204.033 105.172 200.897 105.704ZM201.793 92.208L199.749 95.316C201.625 96.296 204.537 98.2 206.133 99.292L208.177 96.156C206.749 95.148 203.669 93.216 201.793 92.208ZM239.593 91.368L236.261 92.46C236.961 93.916 238.193 97.304 238.529 98.676L241.889 97.5C241.497 96.212 240.125 92.572 239.593 91.368ZM249.925 93.412L246.005 92.152C245.669 95.652 244.325 99.376 242.421 101.756C240.097 104.668 236.205 106.796 233.125 107.608L236.065 110.604C239.341 109.372 242.841 107.02 245.445 103.66C247.349 101.196 248.525 98.284 249.253 95.456C249.421 94.896 249.589 94.308 249.925 93.412ZM233.097 92.852L229.737 94.056C230.409 95.288 231.809 99.012 232.285 100.524L235.701 99.236C235.141 97.668 233.797 94.28 233.097 92.852ZM269.497 86.16L265.409 84.816C265.157 85.768 264.569 87.056 264.149 87.756C262.749 90.164 260.313 93.776 255.413 96.772L258.549 99.096C261.293 97.22 263.729 94.756 265.605 92.32H273.473C273.025 94.42 271.401 97.78 269.497 99.964C267.061 102.736 263.953 105.172 258.213 106.88L261.517 109.848C266.781 107.776 270.169 105.2 272.829 101.952C275.349 98.816 276.945 95.092 277.701 92.6C277.925 91.9 278.317 91.116 278.625 90.584L275.769 88.82C275.125 89.016 274.201 89.156 273.333 89.156H267.705C267.733 89.1 267.761 89.072 267.789 89.016C268.125 88.4 268.853 87.14 269.497 86.16Z" fill="white"/>
<path d="M159.99 155.608C159.654 156.742 159.192 157.778 158.646 158.716C158.408 157.596 158.212 156.28 158.086 154.88H162.412V153.228H160.956L161.628 152.514C161.138 152.052 160.116 151.408 159.346 151.016L158.338 152.01C158.912 152.36 159.612 152.808 160.13 153.228H157.988C157.96 152.542 157.946 151.856 157.96 151.156H156.21C156.21 151.856 156.238 152.542 156.266 153.228H150.554V157.316C150.554 159.136 150.456 161.572 149.392 163.252C149.77 163.448 150.512 164.064 150.806 164.386C151.954 162.678 152.248 159.948 152.304 157.904H154.124C154.082 159.668 154.026 160.34 153.886 160.536C153.774 160.676 153.662 160.704 153.466 160.704C153.242 160.704 152.766 160.69 152.262 160.648C152.514 161.068 152.696 161.712 152.724 162.202C153.368 162.216 153.97 162.216 154.334 162.16C154.754 162.09 155.034 161.964 155.3 161.6C155.622 161.194 155.706 159.948 155.748 157.008C155.748 156.812 155.762 156.378 155.762 156.378H152.304V154.88H156.364C156.546 156.98 156.854 158.94 157.33 160.522C156.518 161.432 155.552 162.202 154.474 162.79C154.824 163.112 155.426 163.798 155.678 164.162C156.546 163.63 157.33 163 158.044 162.258C158.66 163.406 159.43 164.106 160.41 164.106C161.712 164.106 162.272 163.49 162.538 160.9C162.09 160.718 161.502 160.354 161.124 159.962C161.054 161.712 160.886 162.412 160.55 162.412C160.102 162.412 159.654 161.824 159.248 160.816C160.256 159.458 161.082 157.834 161.656 156.014L159.99 155.608ZM166.892 156.252V155.356H169.146V156.252H166.892ZM166.892 153.172H169.146V154.068H166.892V153.172ZM173.136 154.068H170.91V153.172H173.136V154.068ZM173.136 156.252H170.91V155.356H173.136V156.252ZM176.258 159.99V158.464H170.91V157.638H174.97V151.786H165.142V157.638H169.146V158.464H163.784V159.99H167.928C166.752 161.04 165.016 161.964 163.35 162.454C163.728 162.804 164.232 163.448 164.484 163.84C166.15 163.224 167.858 162.132 169.146 160.844V164.218H170.91V160.774C172.212 162.048 173.92 163.14 175.544 163.756C175.782 163.336 176.286 162.678 176.664 162.342C175.068 161.88 173.36 160.984 172.128 159.99H176.258ZM181.732 157.75H179.702L180.15 157.624C180.094 157.232 179.898 156.63 179.66 156.126H181.788C181.662 156.602 181.452 157.204 181.284 157.624L181.732 157.75ZM181.494 153.76H183.314V152.388H181.494V151.17H179.954V152.388H177.952V153.76H179.954V154.726H177.462V156.126H178.848L178.344 156.252C178.54 156.714 178.722 157.302 178.806 157.75H177.756V159.15H179.954V160.228H177.868V161.628H179.954V164.176H181.494V161.628H183.468V160.228H181.494V159.15H183.622V157.75H182.572C182.768 157.33 182.978 156.784 183.216 156.266L182.67 156.126H183.832V154.726H181.494V153.76ZM185.596 158.422C185.946 159.528 186.394 160.55 186.94 161.446C186.548 161.992 186.1 162.468 185.596 162.874V158.422ZM188.508 157.848C188.34 158.604 188.088 159.346 187.766 160.018C187.36 159.346 187.024 158.618 186.772 157.848H188.508ZM189.25 156.462L188.97 156.532H185.596V153.186H188.382V154.334C188.382 154.488 188.312 154.53 188.102 154.544C187.892 154.544 187.122 154.544 186.436 154.516C186.632 154.922 186.842 155.496 186.912 155.944C187.934 155.944 188.69 155.93 189.222 155.706C189.768 155.482 189.922 155.076 189.922 154.362V151.73H184.084V164.204H185.596V163.378C185.89 163.644 186.184 163.966 186.366 164.246C186.94 163.826 187.444 163.322 187.892 162.748C188.41 163.336 188.984 163.84 189.642 164.232C189.88 163.812 190.356 163.224 190.72 162.916C189.992 162.552 189.348 162.02 188.774 161.39C189.488 160.074 189.978 158.506 190.244 156.812L189.25 156.462ZM192.876 161.992V161.04H195.648V161.992H192.876ZM193.31 155.692V156.882C193.31 157.442 193.268 158.114 192.876 158.674V155.692H193.31ZM194.038 152.99H194.472V154.348H194.038V152.99ZM195.648 157.862H195.606H195.354C195.256 157.862 195.228 157.834 195.228 157.652V155.692H195.648V157.862ZM194.038 155.692H194.472V157.68C194.472 158.478 194.64 158.66 195.256 158.66H195.648V159.864H192.876V158.968C193.03 159.094 193.212 159.262 193.31 159.374C193.912 158.674 194.038 157.666 194.038 156.896V155.692ZM202.704 151.464V156.518C202.536 156.098 202.34 155.678 202.144 155.3L201.766 155.51V151.73H200.436V156.49C200.31 156.126 200.17 155.748 200.03 155.412L199.54 155.678V151.492H198.21V155.482L197.426 155.258C197.356 156.336 197.188 157.568 196.838 158.338V154.348H195.494V152.99H197.006V151.688H191.56V152.99H193.03V154.348H191.756V164.106H192.876V163.266H195.648V163.924H196.838V158.562L197.594 159.234C197.902 158.618 198.098 157.834 198.21 157.036V157.05C198.21 159.374 198.07 161.628 197.02 163.434C197.398 163.602 197.958 164.008 198.238 164.274C199.4 162.258 199.54 159.654 199.54 157.05C199.75 157.708 199.904 158.394 199.96 158.898L200.436 158.632V163.812H201.766V157.106C201.99 157.736 202.172 158.366 202.256 158.828L202.704 158.59V164.218H204.104V151.478L202.704 151.464ZM217.684 151.296H216.102V157.246C216.102 157.428 216.032 157.47 215.836 157.484C215.626 157.498 214.954 157.498 214.324 157.47C214.52 157.876 214.744 158.506 214.814 158.94C215.794 158.94 216.508 158.898 217.012 158.674C217.544 158.436 217.684 158.044 217.684 157.274V151.296ZM215.08 151.94H213.554V156.672H215.08V151.94ZM208.92 154.558V153.088H210.096V154.558H208.92ZM212.854 162.23V161.11H216.9V159.598H212.854V158.478H211.65V156.028H212.966V154.558H211.65V153.088H212.644V151.632H206.288V153.088H207.394V154.558H205.812V156.028H207.226C207.016 156.728 206.554 157.4 205.518 157.932C205.812 158.156 206.4 158.786 206.61 159.094C207.996 158.324 208.584 157.176 208.808 156.028H210.096V158.716H211.146V159.598H207.086V161.11H211.146V162.23H205.672V163.77H218.286V162.23H212.854ZM231.978 158.072C231.978 155.02 229.794 152.612 226.322 152.612C222.696 152.612 219.896 155.37 219.896 158.604C219.896 160.97 221.184 162.678 222.738 162.678C224.264 162.678 225.468 160.942 226.308 158.114C226.714 156.798 226.952 155.51 227.148 154.32C229.038 154.642 230.088 156.084 230.088 158.016C230.088 160.06 228.688 161.348 226.896 161.768C226.518 161.852 226.126 161.936 225.594 161.992L226.644 163.658C230.172 163.112 231.978 161.026 231.978 158.072ZM221.688 158.422C221.688 156.882 222.934 154.838 225.244 154.362C225.09 155.524 224.824 156.714 224.502 157.75C223.928 159.64 223.382 160.522 222.794 160.522C222.248 160.522 221.688 159.836 221.688 158.422ZM244.256 152.738C244.256 152.29 244.62 151.926 245.068 151.926C245.502 151.926 245.866 152.29 245.866 152.738C245.866 153.172 245.502 153.536 245.068 153.536C244.62 153.536 244.256 153.172 244.256 152.738ZM243.388 152.738C243.388 152.836 243.402 152.92 243.416 153.004C243.122 153.046 242.814 153.06 242.618 153.06H236.136C235.674 153.06 234.876 153.004 234.47 152.948V154.922C234.82 154.894 235.492 154.866 236.136 154.866H242.646C242.464 156.07 241.932 157.652 241.008 158.814C239.874 160.242 238.292 161.46 235.52 162.104L237.046 163.784C239.538 162.972 241.414 161.586 242.674 159.906C243.85 158.352 244.452 156.182 244.774 154.81C244.816 154.684 244.844 154.544 244.886 154.39C244.942 154.404 245.012 154.404 245.068 154.404C245.978 154.404 246.734 153.648 246.734 152.738C246.734 151.814 245.978 151.058 245.068 151.058C244.144 151.058 243.388 151.814 243.388 152.738ZM250.122 152.262V154.068C250.528 154.04 251.13 154.026 251.578 154.026H256.94C257.444 154.026 258.102 154.04 258.48 154.068V152.262C258.088 152.318 257.402 152.332 256.968 152.332H251.578C251.102 152.332 250.514 152.318 250.122 152.262ZM259.656 156.322L258.41 155.552C258.214 155.636 257.836 155.692 257.388 155.692H250.458C250.024 155.692 249.422 155.65 248.834 155.608V157.428C249.422 157.372 250.122 157.358 250.458 157.358H257.22C256.968 158.142 256.534 159.01 255.778 159.78C254.714 160.872 253.034 161.796 250.934 162.23L252.32 163.812C254.112 163.308 255.904 162.356 257.318 160.788C258.368 159.626 258.97 158.268 259.39 156.91C259.446 156.756 259.558 156.504 259.656 156.322ZM264.374 152.36L263.058 153.76C264.08 154.474 265.83 156 266.558 156.784L267.986 155.328C267.174 154.474 265.354 153.018 264.374 152.36ZM262.624 161.684L263.8 163.532C265.774 163.196 267.58 162.412 268.994 161.558C271.248 160.2 273.11 158.268 274.174 156.378L273.082 154.404C272.2 156.294 270.38 158.436 267.986 159.85C266.628 160.662 264.808 161.376 262.624 161.684Z" fill="white"/>
<path d="M101.39 268.776L102.398 270.792C104.366 270.216 106.398 269.352 108.046 268.488V273.608C108.046 274.312 107.998 275.32 107.934 275.704H110.462C110.35 275.304 110.318 274.312 110.318 273.608V267.144C111.87 266.12 113.406 264.872 114.622 263.672L112.894 262.024C111.854 263.288 110.03 264.888 108.382 265.912C106.606 267 104.254 268.04 101.39 268.776ZM120.254 262.84L118.75 264.44C119.918 265.256 121.918 267 122.75 267.896L124.382 266.232C123.454 265.256 121.374 263.592 120.254 262.84ZM118.254 273.496L119.598 275.608C121.854 275.224 123.918 274.328 125.534 273.352C128.11 271.8 130.238 269.592 131.454 267.432L130.206 265.176C129.198 267.336 127.118 269.784 124.382 271.4C122.83 272.328 120.75 273.144 118.254 273.496ZM141.502 262.328L139.182 261.608C139.038 262.152 138.702 262.888 138.446 263.272C137.646 264.664 136.158 266.856 133.358 268.6L135.086 269.928C136.702 268.808 138.19 267.272 139.31 265.784H143.886C143.646 266.776 142.958 268.168 142.126 269.32C141.118 268.648 140.11 267.992 139.262 267.512L137.838 268.968C138.654 269.48 139.71 270.2 140.75 270.968C139.422 272.296 137.646 273.592 134.878 274.44L136.734 276.056C139.23 275.112 141.054 273.752 142.462 272.264C143.118 272.792 143.71 273.288 144.142 273.688L145.662 271.88C145.198 271.496 144.574 271.032 143.886 270.536C145.022 268.936 145.822 267.224 146.254 265.928C146.398 265.528 146.606 265.096 146.782 264.792L145.15 263.784C144.798 263.896 144.254 263.96 143.758 263.96H140.51C140.702 263.608 141.102 262.888 141.502 262.328ZM149.87 267.592V270.104C150.462 270.056 151.534 270.024 152.446 270.024H161.038C161.71 270.024 162.526 270.088 162.91 270.104V267.592C162.494 267.624 161.79 267.688 161.038 267.688H152.446C151.614 267.688 150.446 267.64 149.87 267.592ZM167.458 262.84L165.954 264.44C167.122 265.256 169.122 267 169.954 267.896L171.586 266.232C170.658 265.256 168.578 263.592 167.458 262.84ZM165.458 273.496L166.802 275.608C169.058 275.224 171.122 274.328 172.738 273.352C175.314 271.8 177.442 269.592 178.658 267.432L177.41 265.176C176.402 267.336 174.322 269.784 171.586 271.4C170.034 272.328 167.954 273.144 165.458 273.496ZM187.602 266.872C186.482 266.872 185.554 267.8 185.554 268.92C185.554 270.04 186.482 270.968 187.602 270.968C188.722 270.968 189.65 270.04 189.65 268.92C189.65 267.8 188.722 266.872 187.602 266.872ZM205.106 273.928V269.72H209.618V267.864H205.106V264.344H210.45V262.488H196.898V264.344H203.074V273.928H200.306V266.824H198.306V273.928H196.338V275.8H210.882V273.928H205.106ZM219.202 270.488C218.866 270.168 217.634 269.064 216.866 268.44C217.634 267.384 218.274 266.232 218.754 265.016L217.682 264.328L217.346 264.408H216.626V261.464H214.738V264.408H212.466V266.136H216.322C215.282 267.976 213.602 269.656 211.858 270.6C212.146 270.968 212.594 271.896 212.754 272.408C213.426 271.992 214.098 271.464 214.738 270.872V276.392H216.626V270.36C217.17 270.952 217.714 271.592 218.05 272.04L219.202 270.488ZM223.81 274.072V268.216H226.834V266.376H223.81V261.592H221.858V266.376H218.818V268.216H221.858V274.072H218.162V275.928H227.218V274.072H223.81ZM238.866 264.472H232.402V263.432H238.866V264.472ZM240.898 261.944H230.482V265.944H240.898V261.944ZM231.65 271.624H239.49V272.328H231.65V271.624ZM231.65 269.736H239.49V270.408H231.65V269.736ZM231.65 267.832H239.49V268.52H231.65V267.832ZM241.458 273.608V266.536H229.762V273.608H232.274C231.186 274.152 229.538 274.728 228.146 275.032C228.578 275.4 229.234 275.992 229.586 276.392C231.202 275.992 233.25 275.224 234.546 274.472L233.314 273.608H237.682L236.338 274.568C238.034 275.064 240.242 275.848 241.474 276.424L243.154 275.08C242.05 274.632 240.37 274.056 238.866 273.608H241.458ZM247.522 262.76L247.618 264.808C248.13 264.744 248.658 264.696 249.058 264.664C249.714 264.6 251.682 264.504 252.338 264.456C251.346 265.336 249.266 267.16 247.842 268.088C246.994 268.184 245.874 268.328 245.026 268.408L245.218 270.344C246.818 270.072 248.61 269.832 250.082 269.704C249.474 270.264 248.914 271.256 248.914 272.232C248.914 274.904 251.298 276.136 255.394 275.96L255.826 273.864C255.218 273.912 254.274 273.912 253.378 273.816C251.954 273.656 250.962 273.16 250.962 271.896C250.962 270.584 252.178 269.544 253.65 269.352C254.626 269.208 256.226 269.224 257.762 269.304V267.416C255.81 267.416 253.154 267.592 251.01 267.8C252.114 266.952 253.682 265.624 254.818 264.712C255.154 264.44 255.746 264.056 256.082 263.832L254.818 262.36C254.594 262.44 254.226 262.504 253.714 262.568C252.738 262.664 249.73 262.808 249.042 262.808C248.498 262.808 248.034 262.792 247.522 262.76ZM263.954 263.464C263.954 263.64 263.922 264.088 263.89 264.696C263.202 264.792 262.498 264.872 262.034 264.904C261.474 264.936 261.106 264.936 260.642 264.92L260.85 266.968C261.746 266.84 262.978 266.68 263.762 266.584C263.746 266.968 263.714 267.352 263.682 267.72C262.77 269.064 261.17 271.176 260.258 272.296L261.522 274.04C262.082 273.288 262.866 272.12 263.538 271.112C263.522 272.456 263.506 273.384 263.474 274.632C263.474 274.888 263.458 275.448 263.426 275.816H265.634C265.586 275.448 265.538 274.872 265.522 274.584C265.426 273.08 265.426 271.736 265.426 270.424C265.426 270.008 265.442 269.576 265.458 269.128C266.77 267.688 268.498 266.216 269.682 266.216C270.354 266.216 270.77 266.616 270.77 267.4C270.77 268.856 270.194 271.208 270.194 272.936C270.194 274.488 270.994 275.352 272.194 275.352C273.49 275.352 274.466 274.856 275.202 274.168L274.946 271.912C274.21 272.648 273.458 273.064 272.866 273.064C272.466 273.064 272.258 272.76 272.258 272.344C272.258 270.696 272.786 268.344 272.786 266.68C272.786 265.336 272.002 264.312 270.274 264.312C268.722 264.312 266.882 265.608 265.618 266.712C265.634 266.584 265.634 266.472 265.65 266.36C265.922 265.944 266.242 265.416 266.466 265.128L265.874 264.36C265.986 263.368 266.13 262.552 266.226 262.104L263.89 262.024C263.97 262.52 263.954 263 263.954 263.464ZM279.042 262.744L279.138 264.792C279.65 264.744 280.178 264.68 280.578 264.648C281.234 264.6 283.186 264.504 283.858 264.456C282.866 265.336 280.786 267.144 279.346 268.088C278.514 268.184 277.394 268.328 276.546 268.408L276.738 270.344C278.338 270.072 280.13 269.816 281.586 269.704C280.994 270.248 280.434 271.24 280.434 272.232C280.434 274.904 282.802 276.136 286.914 275.96L287.33 273.848C286.738 273.896 285.778 273.912 284.898 273.816C283.474 273.656 282.466 273.16 282.466 271.896C282.466 270.584 283.698 269.544 285.17 269.336C286.146 269.208 287.746 269.224 289.282 269.304V267.416C287.314 267.416 284.674 267.592 282.53 267.8C283.618 266.952 285.202 265.624 286.338 264.712C286.674 264.44 287.25 264.04 287.602 263.832L286.338 262.36C286.114 262.424 285.746 262.504 285.234 262.552C284.242 262.664 281.25 262.808 280.562 262.808C280.018 262.808 279.538 262.792 279.042 262.744ZM287.49 264.744L286.306 265.256C286.754 265.912 287.042 266.472 287.362 267.176L288.578 266.648C288.274 266.008 287.874 265.32 287.49 264.744ZM289.25 264.024L288.082 264.568C288.514 265.128 288.882 265.752 289.218 266.44L290.418 265.896C290.114 265.304 289.634 264.552 289.25 264.024ZM295.954 263.464C295.954 263.64 295.922 264.088 295.89 264.696C295.202 264.792 294.498 264.872 294.034 264.904C293.474 264.936 293.106 264.936 292.642 264.92L292.85 266.968C293.746 266.84 294.978 266.68 295.762 266.584C295.746 266.968 295.714 267.352 295.682 267.72C294.77 269.064 293.17 271.176 292.258 272.296L293.522 274.04C294.082 273.288 294.866 272.12 295.538 271.112C295.522 272.456 295.506 273.384 295.474 274.632C295.474 274.888 295.458 275.448 295.426 275.816H297.634C297.586 275.448 297.538 274.872 297.522 274.584C297.426 273.08 297.426 271.736 297.426 270.424C297.426 270.008 297.442 269.576 297.458 269.128C298.77 267.688 300.498 266.216 301.682 266.216C302.354 266.216 302.77 266.616 302.77 267.4C302.77 268.856 302.194 271.208 302.194 272.936C302.194 274.488 302.994 275.352 304.194 275.352C305.49 275.352 306.466 274.856 307.202 274.168L306.946 271.912C306.21 272.648 305.458 273.064 304.866 273.064C304.466 273.064 304.258 272.76 304.258 272.344C304.258 270.696 304.786 268.344 304.786 266.68C304.786 265.336 304.002 264.312 302.274 264.312C300.722 264.312 298.882 265.608 297.618 266.712C297.634 266.584 297.634 266.472 297.65 266.36C297.922 265.944 298.242 265.416 298.466 265.128L297.874 264.36C297.986 263.368 298.13 262.552 298.226 262.104L295.89 262.024C295.97 262.52 295.954 263 295.954 263.464ZM322.434 269.368C322.434 265.88 319.938 263.128 315.97 263.128C311.826 263.128 308.626 266.28 308.626 269.976C308.626 272.68 310.098 274.632 311.874 274.632C313.618 274.632 314.994 272.648 315.954 269.416C316.418 267.912 316.69 266.44 316.914 265.08C319.074 265.448 320.274 267.096 320.274 269.304C320.274 271.64 318.674 273.112 316.626 273.592C316.194 273.688 315.746 273.784 315.138 273.848L316.338 275.752C320.37 275.128 322.434 272.744 322.434 269.368ZM310.674 269.768C310.674 268.008 312.098 265.672 314.738 265.128C314.562 266.456 314.258 267.816 313.89 269C313.234 271.16 312.61 272.168 311.938 272.168C311.314 272.168 310.674 271.384 310.674 269.768ZM97.696 280.56C95.744 281.136 92.496 281.568 89.648 281.76C89.84 282.16 90.08 282.848 90.144 283.28C93.056 283.12 96.496 282.736 98.96 282.048L97.696 280.56ZM97.216 287.392C97.872 286.448 98.704 284.96 99.392 283.6L97.584 282.944C97.184 284.16 96.368 285.792 95.744 286.8L97.216 287.392ZM95.264 286.128C95.232 285.328 94.912 284.144 94.528 283.216L92.944 283.52C93.296 284.48 93.568 285.712 93.584 286.464L95.264 286.128ZM92.464 286.608C92.32 285.792 91.856 284.544 91.376 283.616L89.872 284C90.32 284.992 90.72 286.272 90.848 287.072L92.464 286.608ZM89.344 287.152L88.048 287.52V285.216H89.504V283.472H88.048V280.464H86.32V283.472H84.64V285.216H86.32V287.984C85.6 288.16 84.928 288.336 84.384 288.448L84.8 290.272C85.264 290.144 85.792 290 86.32 289.84V293.376C86.32 293.584 86.24 293.648 86.048 293.648C85.856 293.664 85.296 293.664 84.72 293.632C84.944 294.144 85.152 294.928 85.2 295.392C86.256 295.408 86.928 295.344 87.424 295.04C87.904 294.736 88.048 294.256 88.048 293.376V289.328C88.56 289.184 89.072 289.024 89.584 288.864L89.344 287.152ZM99.264 290.048V288.4H95.408V286.784H93.616V288.4H89.856V290.048H92.608C91.712 291.36 90.288 292.56 88.832 293.216C89.248 293.568 89.792 294.256 90.096 294.704C91.408 293.968 92.672 292.768 93.616 291.408V295.28H95.408V291.488C96.272 292.752 97.36 293.904 98.464 294.624C98.752 294.176 99.296 293.52 99.712 293.184C98.432 292.512 97.152 291.312 96.32 290.048H99.264ZM109.12 288.928V286.96H112.496V288.928H109.12ZM104.144 288.928C104.176 288.336 104.192 287.76 104.192 287.248V286.96H107.2V288.928H104.144ZM107.2 283.328V285.184H104.192V283.328H107.2ZM112.496 285.184H109.12V283.328H112.496V285.184ZM114.384 281.52H102.304V287.232C102.304 289.472 102.16 292.32 100.416 294.24C100.848 294.464 101.616 295.12 101.92 295.472C103.072 294.224 103.648 292.464 103.936 290.72H107.2V295.184H109.12V290.72H112.496V293.12C112.496 293.408 112.384 293.504 112.08 293.504C111.792 293.504 110.736 293.52 109.84 293.472C110.08 293.968 110.384 294.784 110.448 295.296C111.888 295.312 112.864 295.28 113.52 294.96C114.16 294.672 114.384 294.16 114.384 293.136V281.52ZM122.672 280.816C122.56 282.928 122.784 290.192 116.4 293.728C117.04 294.176 117.664 294.752 118 295.248C121.376 293.184 123.056 290.096 123.92 287.216C124.816 290.16 126.608 293.456 130.224 295.248C130.528 294.736 131.104 294.08 131.696 293.632C125.728 290.832 124.928 283.936 124.8 281.728C124.816 281.392 124.832 281.072 124.848 280.816H122.672ZM140.576 290.288V288.752C140.672 288.848 140.736 288.928 140.8 288.992C141.056 288.64 141.312 288.256 141.536 287.84C141.824 288.992 142.176 290.048 142.624 290.992C141.92 291.984 140.992 292.784 139.808 293.408C139.44 293.136 138.976 292.848 138.48 292.56C138.88 291.936 139.152 291.184 139.328 290.288H140.576ZM135.984 290.288H137.536C137.392 290.864 137.184 291.344 136.928 291.744C136.464 291.52 136 291.328 135.52 291.136L135.984 290.288ZM144.592 285.088C144.416 286.496 144.128 287.76 143.728 288.848C143.296 287.696 142.976 286.432 142.752 285.088H144.592ZM147.456 285.088V283.328H143.2C143.408 282.48 143.584 281.6 143.712 280.704L141.792 280.448C141.408 283.296 140.64 286.016 139.28 287.648C139.632 287.888 140.208 288.384 140.576 288.752H136.768L137.152 287.984L136.464 287.84H137.488V285.904C138.112 286.4 138.784 286.96 139.136 287.296L140.144 285.984C139.792 285.744 138.656 285.072 137.888 284.64H140.512V283.136H138.992C139.376 282.64 139.872 281.968 140.368 281.28L138.768 280.64C138.512 281.248 138.064 282.096 137.696 282.672L138.752 283.136H137.488V280.448H135.744V283.136H134.4L135.424 282.688C135.296 282.128 134.88 281.312 134.464 280.704L133.088 281.28C133.424 281.856 133.776 282.592 133.92 283.136H132.704V284.64H135.2C134.432 285.472 133.36 286.24 132.384 286.64C132.736 286.976 133.136 287.6 133.344 288.016C134.144 287.568 135.008 286.896 135.744 286.16V287.696L135.392 287.616C135.232 287.968 135.04 288.352 134.848 288.752H132.528V290.288H134.048C133.648 291.056 133.248 291.776 132.896 292.336L134.56 292.848L134.736 292.544C135.04 292.672 135.344 292.816 135.632 292.976C134.88 293.408 133.888 293.664 132.592 293.84C132.896 294.224 133.232 294.864 133.344 295.408C135.056 295.056 136.336 294.592 137.28 293.888C137.936 294.304 138.512 294.72 138.944 295.088L139.664 294.352C139.92 294.736 140.16 295.168 140.272 295.44C141.664 294.736 142.768 293.872 143.648 292.816C144.368 293.856 145.248 294.704 146.336 295.36C146.624 294.832 147.216 294.096 147.648 293.712C146.48 293.104 145.552 292.192 144.816 291.056C145.68 289.44 146.224 287.456 146.56 285.088H147.456ZM155.168 282.816V284.864C157.184 285.056 160.08 285.04 162.048 284.864V282.8C160.32 283.008 157.136 283.088 155.168 282.816ZM156.448 289.648L154.608 289.472C154.432 290.288 154.336 290.928 154.336 291.552C154.336 293.2 155.664 294.176 158.416 294.176C160.224 294.176 161.504 294.064 162.544 293.872L162.512 291.712C161.104 292 159.92 292.128 158.496 292.128C156.864 292.128 156.256 291.696 156.256 290.992C156.256 290.56 156.32 290.176 156.448 289.648ZM152.704 281.744L150.464 281.552C150.448 282.064 150.352 282.672 150.304 283.12C150.128 284.352 149.632 287.056 149.632 289.456C149.632 291.632 149.936 293.584 150.256 294.688L152.112 294.56C152.096 294.336 152.08 294.08 152.08 293.904C152.08 293.744 152.112 293.392 152.16 293.152C152.336 292.304 152.864 290.56 153.312 289.232L152.32 288.448C152.096 288.976 151.84 289.536 151.6 290.08C151.552 289.76 151.536 289.344 151.536 289.04C151.536 287.44 152.096 284.24 152.304 283.168C152.368 282.88 152.576 282.08 152.704 281.744ZM167.712 284.112H179.264V282.304H173.488V280.464H171.504V282.304H165.808V286.336C165.808 288.64 165.696 292 164.384 294.288C164.832 294.496 165.68 295.04 166.032 295.36C167.472 292.864 167.712 288.912 167.712 286.336V284.112ZM176.112 286.48C175.248 285.728 173.52 284.768 172.24 284.16L170.976 285.408C172.288 286.08 173.968 287.152 174.736 287.904L176.112 286.48ZM169.12 294C169.84 292.72 170.128 290.608 170.304 288.768L168.592 288.4C168.432 290.176 168.096 292.032 167.424 293.248L169.12 294ZM173.264 293.392C172.816 293.392 172.752 293.312 172.752 292.736V287.168H170.864V292.752C170.864 294.528 171.264 295.088 172.96 295.088H174.736C176.224 295.088 176.704 294.32 176.88 291.584C176.384 291.456 175.6 291.152 175.2 290.816C175.136 293.024 175.04 293.392 174.56 293.392H173.264ZM175.84 288.64C176.752 290.336 177.584 292.56 177.792 293.984L179.664 293.216C179.408 291.76 178.48 289.648 177.536 287.984L175.84 288.64ZM189.824 282.688L188.432 283.28C189.008 284.096 189.424 284.864 189.904 285.888L191.328 285.264C190.976 284.528 190.272 283.36 189.824 282.688ZM191.968 281.808L190.592 282.448C191.184 283.248 191.616 283.984 192.128 284.992L193.52 284.32C193.168 283.6 192.432 282.464 191.968 281.808ZM185.696 281.408L183.12 281.376C183.248 282 183.312 282.768 183.312 283.536C183.312 284.912 183.168 289.12 183.168 291.264C183.168 293.984 184.848 295.136 187.472 295.136C191.12 295.136 193.392 293.008 194.432 291.472L192.976 289.696C191.808 291.44 190.144 292.976 187.504 292.976C186.256 292.976 185.28 292.448 185.28 290.832C185.28 288.832 185.408 285.264 185.488 283.536C185.52 282.896 185.6 282.08 185.696 281.408ZM197.136 282.992L197.344 285.184C199.2 284.784 202.464 284.432 203.968 284.272C202.896 285.088 201.6 286.912 201.6 289.216C201.6 292.672 204.768 294.48 208.112 294.704L208.864 292.512C206.16 292.368 203.696 291.408 203.696 288.784C203.696 286.88 205.136 284.8 207.072 284.288C207.92 284.096 209.296 284.096 210.16 284.08L210.144 282.032C209.024 282.064 207.264 282.176 205.616 282.304C202.688 282.56 200.048 282.8 198.72 282.912C198.4 282.944 197.776 282.976 197.136 282.992ZM223.504 283.248C222.992 282.656 221.856 281.84 220.96 281.312L220.048 282.592C220.928 283.184 222.032 284.048 222.528 284.672L223.504 283.248ZM219.312 286.608C220.24 287.168 221.408 288.016 221.936 288.608L222.896 287.088C222.32 286.512 221.136 285.744 220.208 285.248L219.312 286.608ZM217.872 281.328C217.696 282.448 217.312 284.064 216.992 285.072L218.192 285.408C218.592 284.48 219.056 282.96 219.472 281.68L217.872 281.328ZM214.768 285.072C214.688 284.08 214.368 282.56 213.952 281.408L212.624 281.76C212.992 282.912 213.312 284.464 213.344 285.456L214.768 285.072ZM219.136 290.336C218.8 289.888 217.28 288.096 216.816 287.632V287.52H219.184V285.744H216.816V280.512H215.056V285.744H212.64V287.52H214.464C213.968 288.976 213.152 290.688 212.352 291.664C212.64 292.192 213.056 293.056 213.216 293.632C213.904 292.672 214.544 291.184 215.056 289.696V295.344H216.816V289.728C217.28 290.464 217.728 291.296 217.968 291.808L219.136 290.336ZM227.6 290.704L227.312 288.928L225.68 289.232V280.432H223.888V289.552L219.136 290.4L219.424 292.176L223.888 291.376V295.376H225.68V291.056L227.6 290.704ZM234.912 290.096V293.296H232.752L234.064 292.736C233.824 292 233.2 290.912 232.592 290.096H234.912ZM233.104 285.216C234.256 284.256 235.248 283.216 235.936 282.256C236.64 283.216 237.696 284.256 238.88 285.216H233.104ZM239.136 290.096C238.784 290.944 238.144 292.112 237.616 292.864L238.656 293.296H236.912V290.096H241.84V288.464H236.912V286.88H239.968V286.048C240.768 286.624 241.6 287.152 242.4 287.568C242.752 286.976 243.184 286.336 243.664 285.856C241.136 284.832 238.56 282.816 236.832 280.4H234.864C233.68 282.32 231.12 284.72 228.4 286.048C228.816 286.448 229.344 287.136 229.584 287.584C230.4 287.152 231.216 286.64 231.968 286.096V286.88H234.912V288.464H230.048V290.096H232.496L231.04 290.72C231.6 291.504 232.128 292.576 232.368 293.296H229.248V294.928H242.784V293.296H239.168C239.728 292.624 240.352 291.648 240.96 290.768L239.136 290.096ZM251.28 281.472L248.896 281.232C248.928 282.24 248.784 283.408 248.56 284.608C247.744 284.688 246.992 284.736 246.496 284.752C245.904 284.768 245.376 284.8 244.784 284.752L244.976 286.928C245.472 286.848 246.304 286.736 246.768 286.656C247.056 286.624 247.568 286.56 248.144 286.496C247.552 288.688 246.448 291.92 244.896 294.016L246.976 294.848C248.448 292.496 249.632 288.704 250.24 286.272C250.704 286.24 251.104 286.208 251.36 286.208C252.352 286.208 252.912 286.384 252.912 287.664C252.912 289.248 252.688 291.184 252.256 292.096C252 292.624 251.6 292.784 251.056 292.784C250.64 292.784 249.712 292.624 249.104 292.448L249.44 294.56C249.984 294.672 250.752 294.784 251.36 294.784C252.576 294.784 253.456 294.432 253.984 293.312C254.672 291.92 254.896 289.328 254.896 287.44C254.896 285.136 253.696 284.384 252 284.384C251.664 284.384 251.2 284.416 250.656 284.448C250.768 283.872 250.896 283.28 250.992 282.8C251.072 282.4 251.184 281.888 251.28 281.472ZM258.4 280.144L257.12 280.656C257.568 281.264 258.08 282.208 258.416 282.864L259.68 282.32C259.408 281.76 258.816 280.752 258.4 280.144ZM256.496 280.864L255.232 281.392C255.6 281.904 256 282.672 256.32 283.28L254.88 283.904C256.016 285.312 257.152 288.128 257.568 289.904L259.6 288.976C259.152 287.552 257.952 284.88 256.992 283.392L257.776 283.056C257.472 282.464 256.896 281.456 256.496 280.864ZM268.912 289.456H266.944V287.648H268.912V289.456ZM272.352 287.648V287.136C272.96 287.6 273.616 288 274.32 288.336C274.608 287.824 275.184 287.072 275.632 286.704C274.72 286.336 273.888 285.84 273.136 285.232C273.84 284.736 274.608 284.112 275.264 283.504L273.872 282.512C273.424 283.056 272.72 283.712 272.064 284.24C271.824 283.968 271.584 283.696 271.36 283.408C272.016 282.928 272.752 282.304 273.408 281.712L271.968 280.688C271.6 281.136 271.072 281.696 270.544 282.176C270.224 281.632 269.968 281.056 269.744 280.464L268.032 280.944C268.736 282.832 269.696 284.496 270.944 285.84H265.152C266.272 284.688 267.184 283.264 267.744 281.584L266.48 280.992L266.144 281.056H261.968V282.688H265.232C264.944 283.2 264.608 283.68 264.224 284.128C263.776 283.744 263.168 283.28 262.688 282.944L261.488 283.936C262.016 284.336 262.656 284.88 263.072 285.296C262.256 286 261.344 286.56 260.416 286.944C260.784 287.296 261.312 287.952 261.568 288.384C262.304 288.032 263.024 287.616 263.696 287.12V287.648H265.04V289.456H261.616V291.2H264.784C264.384 292.272 263.424 293.264 261.216 293.936C261.616 294.288 262.192 295.024 262.432 295.456C265.392 294.464 266.448 292.88 266.8 291.2H268.912V292.944C268.912 294.72 269.344 295.28 271.072 295.28H272.816C274.224 295.28 274.72 294.64 274.912 292.528C274.368 292.416 273.6 292.096 273.2 291.776C273.136 293.28 273.056 293.6 272.64 293.6H271.408C270.96 293.6 270.896 293.504 270.896 292.928V291.2H274.304V289.456H270.896V287.648H272.352ZM285.024 293.072V289.856H289.808V288.016H285.024V285.2H290.416V283.344H285.024V280.464H283.024V283.344H280.56C280.832 282.608 281.088 281.856 281.312 281.088L279.344 280.656C278.8 282.832 277.76 285.04 276.512 286.384C276.992 286.64 277.84 287.216 278.224 287.52C278.752 286.896 279.248 286.08 279.712 285.2H283.024V288.016H278.688V289.856H283.024V293.072H276.848V294.944H291.232V293.072H285.024ZM297.936 281.312L295.36 281.28C295.504 281.92 295.568 282.688 295.568 283.44C295.568 284.816 295.408 289.024 295.408 291.168C295.408 293.904 297.104 295.056 299.728 295.056C303.376 295.056 305.648 292.912 306.672 291.376L305.216 289.616C304.064 291.36 302.384 292.88 299.744 292.88C298.496 292.88 297.536 292.352 297.536 290.736C297.536 288.752 297.664 285.168 297.728 283.44C297.76 282.8 297.84 281.984 297.936 281.312ZM312.544 292.192C312.544 291.648 313.168 291.2 314.304 291.2C314.752 291.2 315.184 291.248 315.616 291.312C315.632 291.6 315.632 291.824 315.632 292C315.632 292.928 315.072 293.168 314.224 293.168C313.12 293.168 312.544 292.8 312.544 292.192ZM317.552 281.056H315.392C315.456 281.36 315.488 281.856 315.488 282.16C315.488 282.352 315.488 282.608 315.488 282.912C315.28 282.912 315.072 282.912 314.864 282.912C313.888 282.912 312.064 282.752 310.912 282.56L310.96 284.384C312.016 284.528 313.872 284.672 314.88 284.672C315.072 284.672 315.264 284.672 315.472 284.672C315.456 285.216 315.456 285.792 315.456 286.32C315.2 286.32 314.944 286.32 314.688 286.32C313.84 286.32 311.872 286.208 310.832 286.016L310.848 287.904C311.904 288.032 313.728 288.112 314.656 288.112C314.944 288.112 315.216 288.112 315.488 288.112C315.504 288.592 315.52 289.104 315.552 289.6C315.232 289.568 314.896 289.552 314.56 289.552C312.096 289.552 310.608 290.688 310.608 292.304C310.608 294 311.952 294.976 314.512 294.976C316.624 294.976 317.664 293.92 317.664 292.56C317.664 292.384 317.664 292.192 317.648 291.968C318.928 292.544 320.016 293.392 320.88 294.192L322.032 292.4C321.104 291.632 319.568 290.56 317.552 289.984C317.504 289.344 317.472 288.688 317.44 288.08C318.976 288.032 320.224 287.92 321.664 287.76L321.68 285.872C320.384 286.048 319.024 286.176 317.408 286.256C317.408 285.76 317.408 285.168 317.408 284.608C318.96 284.528 320.416 284.384 321.472 284.256L321.488 282.416C320.08 282.656 318.752 282.784 317.44 282.848C317.44 282.592 317.44 282.352 317.456 282.192C317.472 281.776 317.504 281.376 317.552 281.056ZM334.448 281.104H332.128C332.176 281.296 332.24 281.84 332.288 282.496C332.304 282.624 332.304 282.784 332.32 282.992C330.144 283.024 327.232 283.088 325.408 283.088L325.456 285.024C327.424 284.912 329.92 284.816 332.336 284.784C332.352 285.136 332.352 285.504 332.352 285.856C332.144 285.824 331.936 285.808 331.712 285.808C329.968 285.808 328.512 286.992 328.512 288.8C328.512 290.752 330.032 291.744 331.264 291.744C331.52 291.744 331.76 291.712 331.984 291.664C331.104 292.624 329.696 293.152 328.08 293.488L329.792 295.184C333.696 294.096 334.912 291.44 334.912 289.36C334.912 288.528 334.72 287.776 334.336 287.168C334.336 286.464 334.32 285.584 334.32 284.768C336.496 284.768 337.984 284.8 338.944 284.848L338.96 282.96C338.128 282.944 335.936 282.976 334.32 282.976C334.336 282.784 334.336 282.608 334.336 282.48C334.352 282.224 334.416 281.36 334.448 281.104ZM330.432 288.768C330.432 287.92 331.04 287.488 331.664 287.488C332.096 287.488 332.48 287.68 332.704 288.048C332.928 289.456 332.336 289.968 331.664 289.968C331.024 289.968 330.432 289.504 330.432 288.768Z" fill="#545252"/>
<line x1="57" y1="450.5" x2="367" y2="450.5" stroke="#E5E5E5"/>
<line x1="57" y1="334.5" x2="367" y2="334.5" stroke="#E5E5E5"/>
</svg>
