<svg width="420" height="670" viewBox="0 0 420 670" fill="none" xmlns="http://www.w3.org/2000/svg">
<rect width="420" height="670" fill="white"/>
<rect x="35.5" y="35.5" width="351" height="598" rx="19.5" stroke="#FF5A5F"/>
<path d="M60.616 486.276V487.86C61.588 487.944 62.632 487.992 63.892 487.992C65.032 487.992 66.52 487.92 67.36 487.848V486.252C66.436 486.348 65.068 486.42 63.88 486.42C62.62 486.42 61.504 486.372 60.616 486.276ZM61.624 491.364L60.052 491.22C59.956 491.664 59.812 492.252 59.812 492.948C59.812 494.592 61.192 495.516 63.94 495.516C65.62 495.516 67.06 495.36 68.104 495.108L68.092 493.416C67.036 493.716 65.5 493.896 63.88 493.896C62.152 493.896 61.42 493.344 61.42 492.576C61.42 492.168 61.504 491.796 61.624 491.364ZM76.924 486.084L75.22 485.4C75.016 485.904 74.788 486.3 74.632 486.624C73.996 487.764 71.536 492.66 70.648 495.06L72.34 495.636C72.52 495 72.94 493.656 73.252 492.96C73.684 491.988 74.356 491.148 75.172 491.148C75.604 491.148 75.844 491.4 75.88 491.82C75.916 492.312 75.904 493.296 75.952 493.932C76 494.808 76.624 495.6 77.956 495.6C79.792 495.6 80.908 494.232 81.532 492.18L80.236 491.124C79.888 492.612 79.252 493.956 78.208 493.956C77.812 493.956 77.476 493.776 77.428 493.308C77.368 492.804 77.404 491.844 77.38 491.304C77.332 490.308 76.792 489.744 75.892 489.744C75.436 489.744 74.956 489.852 74.512 490.104C75.112 489.048 75.952 487.512 76.54 486.648C76.672 486.456 76.804 486.252 76.924 486.084ZM87.664 485.34L86.008 485.172C85.984 485.796 85.852 486.516 85.684 487.176C85.312 487.212 84.952 487.224 84.592 487.224C84.148 487.224 83.512 487.2 82.996 487.14L83.104 488.532C83.62 488.568 84.112 488.58 84.604 488.58C84.808 488.58 85.012 488.58 85.228 488.568C84.7 489.864 83.728 491.628 82.78 492.804L84.232 493.548C85.204 492.192 86.224 490.092 86.8 488.412C87.604 488.292 88.348 488.136 88.9 487.992L88.852 486.6C88.384 486.744 87.82 486.876 87.232 486.984C87.412 486.336 87.568 485.724 87.664 485.34ZM87.04 493.644C87.04 493.224 87.484 492.912 88.18 492.912C88.516 492.912 88.84 492.96 89.152 493.032C89.152 493.128 89.152 493.2 89.152 493.272C89.152 493.932 88.9 494.388 88.072 494.388C87.412 494.388 87.04 494.088 87.04 493.644ZM90.472 489.072H88.972C88.996 489.804 89.056 490.872 89.104 491.76C88.828 491.736 88.564 491.712 88.276 491.712C86.608 491.712 85.624 492.612 85.624 493.788C85.624 495.108 86.8 495.768 88.288 495.768C89.992 495.768 90.604 494.904 90.604 493.788C90.604 493.752 90.604 493.704 90.604 493.668C91.264 494.064 91.804 494.568 92.224 494.952L93.028 493.668C92.416 493.116 91.576 492.516 90.544 492.132C90.52 491.532 90.484 490.956 90.472 490.608C90.46 490.08 90.436 489.576 90.472 489.072ZM92.536 489.708L93.388 488.448C92.776 488.004 91.288 487.188 90.424 486.816L89.656 488.004C90.472 488.376 91.84 489.156 92.536 489.708ZM103.468 486.696H100.372V486.12H103.468V486.696ZM103.468 488.208H100.372V487.632H103.468V488.208ZM104.788 485.136H99.112V489.192H104.788V485.136ZM105.604 490.848V489.648H98.056V490.848H99.412C99.112 491.316 98.74 491.748 98.308 492.12L98.056 491.1L97.096 491.52V488.688H98.224V487.344H97.096V484.98H95.776V487.344H94.576V488.688H95.776V492.072C95.212 492.3 94.708 492.504 94.3 492.66L94.828 494.1C95.56 493.74 96.424 493.308 97.288 492.876C97.588 493.068 98.044 493.488 98.224 493.716C98.716 493.404 99.184 493.008 99.628 492.54H100.336C99.7 493.428 98.776 494.268 97.888 494.712C98.224 494.916 98.596 495.276 98.824 495.552C99.868 494.892 100.984 493.692 101.632 492.54H102.34C101.824 493.656 101.02 494.724 100.108 495.3C100.468 495.492 100.876 495.816 101.116 496.092C102.088 495.336 103.024 493.884 103.516 492.54H103.984C103.852 493.992 103.708 494.604 103.54 494.784C103.444 494.892 103.348 494.916 103.18 494.916C103.024 494.916 102.712 494.916 102.328 494.88C102.508 495.18 102.628 495.66 102.652 495.996C103.132 496.02 103.588 496.008 103.864 495.972C104.164 495.936 104.428 495.84 104.656 495.564C104.98 495.216 105.172 494.256 105.34 491.916C105.352 491.748 105.364 491.424 105.364 491.424H100.492C100.612 491.232 100.732 491.04 100.828 490.848H105.604ZM114.388 492.396V494.352H109.648V492.396H114.388ZM108.244 496.056H109.648V495.612H114.388V496.056H115.852V491.136H108.244V496.056ZM109.576 488.688C110.56 487.908 111.4 487.056 111.964 486.252C112.54 487.044 113.428 487.908 114.424 488.688H109.576ZM111.16 484.848C110.26 486.312 108.34 488.124 106.276 489.12C106.588 489.42 106.984 489.936 107.176 490.284C107.812 489.936 108.448 489.54 109.036 489.108V489.948H115.012V489.12C115.612 489.552 116.236 489.948 116.848 490.26C117.1 489.816 117.424 489.348 117.772 488.976C115.864 488.208 113.92 486.684 112.636 484.848H111.16ZM123.376 486.612V488.148C124.888 488.292 127.06 488.28 128.536 488.148V486.6C127.24 486.756 124.852 486.816 123.376 486.612ZM124.336 491.736L122.956 491.604C122.824 492.216 122.752 492.696 122.752 493.164C122.752 494.4 123.748 495.132 125.812 495.132C127.168 495.132 128.128 495.048 128.908 494.904L128.884 493.284C127.828 493.5 126.94 493.596 125.872 493.596C124.648 493.596 124.192 493.272 124.192 492.744C124.192 492.42 124.24 492.132 124.336 491.736ZM121.528 485.808L119.848 485.664C119.836 486.048 119.764 486.504 119.728 486.84C119.596 487.764 119.224 489.792 119.224 491.592C119.224 493.224 119.452 494.688 119.692 495.516L121.084 495.42C121.072 495.252 121.06 495.06 121.06 494.928C121.06 494.808 121.084 494.544 121.12 494.364C121.252 493.728 121.648 492.42 121.984 491.424L121.24 490.836C121.072 491.232 120.88 491.652 120.7 492.06C120.664 491.82 120.652 491.508 120.652 491.28C120.652 490.08 121.072 487.68 121.228 486.876C121.276 486.66 121.432 486.06 121.528 485.808ZM135.232 485.256H133.576C133.612 485.472 133.66 486.06 133.66 486.312C133.66 486.516 133.66 486.864 133.648 487.284C133.408 487.296 133.168 487.308 132.952 487.308C132.52 487.308 132.004 487.296 131.296 487.212L131.32 488.664C131.728 488.712 132.196 488.724 133 488.724C133.192 488.724 133.408 488.712 133.636 488.7C133.636 489.036 133.636 489.372 133.636 489.708C133.636 489.984 133.636 490.272 133.648 490.56C132.172 491.196 130.972 492.288 130.972 493.332C130.972 494.604 132.616 495.612 133.78 495.612C134.572 495.612 135.1 495.216 135.1 493.728C135.1 493.32 135.076 492.384 135.052 491.436C135.784 491.22 136.564 491.1 137.308 491.1C138.352 491.1 139.072 491.58 139.072 492.396C139.072 493.272 138.304 493.752 137.332 493.932C136.912 494.004 136.396 494.016 135.856 494.016L136.408 495.564C136.9 495.528 137.428 495.492 137.98 495.372C139.888 494.892 140.632 493.824 140.632 492.408C140.632 490.752 139.18 489.792 137.332 489.792C136.672 489.792 135.844 489.9 135.028 490.104C135.028 489.948 135.028 489.804 135.028 489.66C135.028 489.312 135.028 488.94 135.04 488.58C135.82 488.484 136.648 488.364 137.332 488.208L137.296 486.72C136.672 486.9 135.88 487.056 135.088 487.152C135.1 486.852 135.112 486.564 135.124 486.3C135.148 485.988 135.196 485.472 135.232 485.256ZM138.652 486.552L137.992 487.716C138.736 488.076 140.308 488.976 140.884 489.468L141.604 488.244C140.968 487.788 139.576 486.996 138.652 486.552ZM132.448 493.272C132.448 492.852 132.94 492.36 133.672 491.964C133.696 492.612 133.708 493.164 133.708 493.464C133.708 493.872 133.54 493.968 133.324 493.968C133.012 493.968 132.448 493.644 132.448 493.272ZM149.836 485.328H148.096C148.132 485.472 148.18 485.88 148.216 486.372C148.228 486.468 148.228 486.588 148.24 486.744C146.608 486.768 144.424 486.816 143.056 486.816L143.092 488.268C144.568 488.184 146.44 488.112 148.252 488.088C148.264 488.352 148.264 488.628 148.264 488.892C148.108 488.868 147.952 488.856 147.784 488.856C146.476 488.856 145.384 489.744 145.384 491.1C145.384 492.564 146.524 493.308 147.448 493.308C147.64 493.308 147.82 493.284 147.988 493.248C147.328 493.968 146.272 494.364 145.06 494.616L146.344 495.888C149.272 495.072 150.184 493.08 150.184 491.52C150.184 490.896 150.04 490.332 149.752 489.876C149.752 489.348 149.74 488.688 149.74 488.076C151.372 488.076 152.488 488.1 153.208 488.136L153.22 486.72C152.596 486.708 150.952 486.732 149.74 486.732C149.752 486.588 149.752 486.456 149.752 486.36C149.764 486.168 149.812 485.52 149.836 485.328ZM146.824 491.076C146.824 490.44 147.28 490.116 147.748 490.116C148.072 490.116 148.36 490.26 148.528 490.536C148.696 491.592 148.252 491.976 147.748 491.976C147.268 491.976 146.824 491.628 146.824 491.076ZM161.836 485.328H160.096C160.132 485.472 160.18 485.88 160.216 486.372C160.228 486.468 160.228 486.588 160.24 486.744C158.608 486.768 156.424 486.816 155.056 486.816L155.092 488.268C156.568 488.184 158.44 488.112 160.252 488.088C160.264 488.352 160.264 488.628 160.264 488.892C160.108 488.868 159.952 488.856 159.784 488.856C158.476 488.856 157.384 489.744 157.384 491.1C157.384 492.564 158.524 493.308 159.448 493.308C159.64 493.308 159.82 493.284 159.988 493.248C159.328 493.968 158.272 494.364 157.06 494.616L158.344 495.888C161.272 495.072 162.184 493.08 162.184 491.52C162.184 490.896 162.04 490.332 161.752 489.876C161.752 489.348 161.74 488.688 161.74 488.076C163.372 488.076 164.488 488.1 165.208 488.136L165.22 486.72C164.596 486.708 162.952 486.732 161.74 486.732C161.752 486.588 161.752 486.456 161.752 486.36C161.764 486.168 161.812 485.52 161.836 485.328ZM158.824 491.076C158.824 490.44 159.28 490.116 159.748 490.116C160.072 490.116 160.36 490.26 160.528 490.536C160.696 491.592 160.252 491.976 159.748 491.976C159.268 491.976 158.824 491.628 158.824 491.076ZM174.388 485.592L172.732 485.436C172.732 485.712 172.696 486.228 172.636 486.576C172.612 486.756 172.576 486.948 172.528 487.152C171.604 487.188 170.716 487.416 169.804 487.872C169.72 487.62 169.648 487.368 169.588 487.14C169.492 486.78 169.396 486.384 169.324 485.988L167.752 486.48C167.968 486.912 168.1 487.296 168.232 487.728C168.34 488.052 168.436 488.376 168.556 488.7C167.464 489.66 166.78 491.124 166.78 492.492C166.78 494.04 167.692 494.88 168.688 494.88C169.576 494.88 170.248 494.484 171.052 493.608C171.172 493.764 171.316 493.92 171.46 494.076L172.672 493.116C172.444 492.9 172.228 492.648 172.012 492.396C172.696 491.352 173.224 489.972 173.644 488.58C174.844 488.904 175.588 489.9 175.588 491.232C175.588 492.732 174.544 494.088 171.916 494.304L172.828 495.696C175.324 495.312 177.136 493.86 177.136 491.316C177.136 489.216 175.888 487.692 174.004 487.26C174.04 487.104 174.076 486.96 174.112 486.804C174.184 486.504 174.292 485.916 174.388 485.592ZM168.184 492.372C168.184 491.628 168.508 490.776 169.072 490.116C169.42 491.016 169.804 491.832 170.188 492.42C169.744 492.96 169.3 493.332 168.868 493.332C168.436 493.332 168.184 492.96 168.184 492.372ZM170.236 489.18C170.8 488.844 171.436 488.592 172.168 488.508C171.892 489.396 171.532 490.332 171.1 491.1C170.812 490.62 170.512 489.924 170.236 489.18ZM184 488.808C184.636 488.808 185.14 488.328 185.14 487.692C185.14 487.032 184.636 486.552 184 486.552C183.364 486.552 182.86 487.032 182.86 487.692C182.86 488.328 183.364 488.808 184 488.808ZM184 494.532C184.636 494.532 185.14 494.052 185.14 493.416C185.14 492.756 184.636 492.276 184 492.276C183.364 492.276 182.86 492.756 182.86 493.416C182.86 494.052 183.364 494.532 184 494.532Z" fill="#545252"/>
<path d="M78.376 549.224L79.016 550.472C81.24 549.784 83.432 548.824 85.112 547.864V553.784C85.112 554.392 85.064 555.192 85.016 555.496H86.584C86.52 555.176 86.488 554.392 86.488 553.784V547.032C88.12 545.944 89.592 544.728 90.808 543.464L89.736 542.472C88.632 543.8 87.032 545.192 85.368 546.232C83.592 547.352 81.144 548.472 78.376 549.224ZM96.632 543.272L95.72 544.248C96.904 545.048 98.904 546.76 99.704 547.592L100.712 546.584C99.816 545.688 97.768 544.024 96.632 543.272ZM95.256 553.992L96.104 555.304C98.776 554.808 100.792 553.832 102.392 552.824C104.808 551.304 106.68 549.128 107.768 547.128L107 545.768C106.072 547.736 104.12 550.104 101.656 551.656C100.136 552.6 98.056 553.576 95.256 553.992ZM117.576 542.44L116.12 541.976C116.024 542.392 115.768 542.952 115.608 543.24C114.856 544.696 113.224 547.096 110.472 548.808L111.544 549.64C113.336 548.408 114.76 546.84 115.784 545.4H121.192C120.872 546.712 120.056 548.44 119.016 549.832C117.896 549.048 116.696 548.28 115.64 547.672L114.776 548.552C115.8 549.192 117.016 550.024 118.168 550.856C116.728 552.408 114.68 553.88 111.976 554.712L113.128 555.704C115.832 554.696 117.8 553.224 119.224 551.64C119.88 552.168 120.488 552.664 120.968 553.096L121.912 551.992C121.4 551.576 120.76 551.08 120.088 550.584C121.304 548.952 122.168 547.08 122.584 545.608C122.68 545.352 122.824 544.968 122.968 544.744L121.912 544.104C121.64 544.2 121.288 544.264 120.856 544.264H116.52C116.648 544.072 116.76 543.88 116.856 543.688C117.016 543.4 117.304 542.856 117.576 542.44ZM126.632 548.072V549.64C127.128 549.592 127.976 549.56 128.856 549.56H137.64C138.36 549.56 139.032 549.624 139.352 549.64V548.072C139 548.104 138.424 548.152 137.624 548.152H128.856C127.96 548.152 127.112 548.104 126.632 548.072ZM143.835 543.272L142.923 544.248C144.107 545.048 146.107 546.76 146.907 547.592L147.915 546.584C147.019 545.688 144.971 544.024 143.835 543.272ZM142.459 553.992L143.307 555.304C145.979 554.808 147.995 553.832 149.595 552.824C152.011 551.304 153.883 549.128 154.971 547.128L154.203 545.768C153.275 547.736 151.323 550.104 148.859 551.656C147.339 552.6 145.259 553.576 142.459 553.992ZM163.563 542.344L162.251 542.232C162.219 542.824 162.075 543.544 161.851 544.232C161.499 544.248 161.131 544.248 160.795 544.248C160.059 544.248 158.939 544.184 158.091 544.072V545.272C158.971 545.336 160.027 545.368 160.715 545.368C160.939 545.368 161.179 545.368 161.419 545.368C160.811 546.664 159.739 548.312 157.723 550.264L158.811 551.064C159.355 550.424 159.803 549.832 160.267 549.4C160.987 548.728 162.011 548.232 163.019 548.232C163.739 548.232 164.315 548.536 164.475 549.224C162.603 550.2 160.699 551.384 160.699 553.272C160.699 555.224 162.539 555.72 164.827 555.72C166.219 555.72 167.995 555.592 169.211 555.432L169.243 554.152C167.835 554.392 166.123 554.536 164.875 554.536C163.227 554.536 161.979 554.344 161.979 553.096C161.979 552.04 163.019 551.192 164.507 550.408C164.507 551.256 164.491 552.296 164.459 552.904H165.691C165.675 552.12 165.659 550.76 165.643 549.832C166.859 549.256 167.995 548.792 168.891 548.456C169.323 548.28 169.899 548.056 170.315 547.944L169.787 546.744C169.339 546.984 168.955 547.16 168.475 547.368C167.643 547.752 166.667 548.136 165.579 548.664C165.323 547.736 164.475 547.224 163.435 547.224C162.747 547.224 161.819 547.432 161.211 547.816C161.755 547.096 162.283 546.184 162.651 545.336C164.395 545.272 166.379 545.144 167.963 544.888L167.979 543.704C166.475 543.976 164.731 544.12 163.099 544.2C163.339 543.448 163.467 542.824 163.563 542.344ZM183.083 543.96C182.379 544.888 181.419 545.72 180.331 546.44C179.675 545.864 178.539 545.176 177.499 544.648C177.851 544.424 178.187 544.2 178.507 543.96H183.083ZM184.043 542.888L183.835 542.952H179.739C180.123 542.6 180.475 542.248 180.795 541.88L179.467 541.592C178.363 542.92 176.283 544.424 173.419 545.432C173.675 545.624 174.059 546.024 174.235 546.312C175.051 545.976 175.803 545.624 176.507 545.24C177.499 545.752 178.619 546.456 179.307 547.048C177.451 548.072 175.291 548.808 173.291 549.176C173.515 549.432 173.755 549.896 173.867 550.216C178.059 549.304 182.747 547.064 184.795 543.368L184.043 542.888ZM185.499 549.528C184.795 550.744 183.771 551.736 182.555 552.536C181.835 551.88 180.603 551.048 179.499 550.44C179.995 550.136 180.475 549.848 180.907 549.528H185.499ZM186.379 548.456L186.155 548.504H182.187C182.619 548.12 183.003 547.72 183.355 547.32L182.043 547.016C180.795 548.536 178.379 550.184 175.035 551.24C175.275 551.448 175.611 551.88 175.755 552.136C176.715 551.8 177.611 551.416 178.427 551.016C179.531 551.608 180.747 552.472 181.499 553.16C179.451 554.232 176.987 554.872 174.491 555.176C174.683 555.432 174.923 555.944 175.019 556.248C180.187 555.496 185.147 553.512 187.147 548.888L186.379 548.456ZM199.467 543.192L198.283 542.136C198.091 542.44 197.691 542.888 197.371 543.208C196.283 544.312 193.851 546.232 192.651 547.24C191.211 548.456 191.019 549.144 192.539 550.408C194.027 551.64 196.459 553.72 197.579 554.872C197.979 555.256 198.347 555.656 198.683 556.04L199.819 554.984C198.123 553.288 195.291 551 193.835 549.816C192.811 548.952 192.827 548.696 193.787 547.88C194.971 546.888 197.275 545.064 198.363 544.104C198.635 543.88 199.131 543.464 199.467 543.192ZM218.043 541.864C216.187 542.424 212.779 542.808 209.979 542.984C210.107 543.256 210.251 543.672 210.283 543.96C213.163 543.784 216.667 543.432 218.859 542.776L218.043 541.864ZM217.115 548.296C217.819 547.304 218.683 545.72 219.339 544.376L218.219 543.96C217.755 545.16 216.875 546.872 216.203 547.912L217.115 548.296ZM215.227 547.096C215.179 546.328 214.859 545.112 214.427 544.168L213.403 544.36C213.819 545.32 214.139 546.584 214.155 547.352L215.227 547.096ZM212.363 547.528C212.203 546.728 211.707 545.496 211.147 544.568L210.203 544.84C210.731 545.8 211.195 547.048 211.339 547.864L212.363 547.528ZM209.771 549.448L209.611 548.344C209.083 548.52 208.555 548.696 208.027 548.856V545.912H209.739V544.824H208.027V541.624H206.923V544.824H204.923V545.912H206.923V549.192C206.091 549.448 205.323 549.688 204.715 549.848L205.019 551L206.923 550.376V554.84C206.923 555.08 206.843 555.128 206.651 555.128C206.459 555.144 205.835 555.144 205.147 555.128C205.307 555.448 205.451 555.944 205.499 556.216C206.491 556.232 207.099 556.184 207.483 556.008C207.883 555.816 208.027 555.496 208.027 554.84V550.024L209.771 549.448ZM219.307 550.52V549.448H215.211V547.688H214.091V549.448H210.043V550.52H213.323C212.347 552.104 210.747 553.576 209.115 554.328C209.387 554.52 209.739 554.952 209.931 555.256C211.499 554.392 213.051 552.888 214.091 551.192V556.12H215.211V551.176C216.171 552.792 217.611 554.344 218.987 555.208C219.179 554.92 219.531 554.504 219.787 554.312C218.379 553.56 216.859 552.056 215.963 550.52H219.307ZM228.875 550.216V547.56H233.179V550.216H228.875ZM223.803 550.216C223.851 549.624 223.867 549.032 223.867 548.504V547.56H227.691V550.216H223.803ZM227.691 543.88V546.44H223.867V543.88H227.691ZM233.179 546.44H228.875V543.88H233.179V546.44ZM234.347 542.744H222.699V548.504C222.699 550.728 222.539 553.544 220.779 555.528C221.035 555.672 221.515 556.072 221.691 556.312C222.907 554.952 223.451 553.128 223.691 551.352H227.691V556.072H228.875V551.352H233.179V554.6C233.179 554.904 233.067 555 232.747 555.016C232.459 555.016 231.371 555.032 230.251 554.984C230.411 555.304 230.603 555.816 230.651 556.136C232.155 556.152 233.083 556.136 233.627 555.944C234.139 555.736 234.347 555.384 234.347 554.616V542.744ZM240.571 555.896L241.659 554.968C240.667 553.8 239.227 552.344 238.075 551.416L237.035 552.328C238.171 553.256 239.547 554.632 240.571 555.896ZM267.147 546.152V544.968H260.811V541.624H259.579V544.968H253.291V546.152H258.843C257.499 548.888 255.179 551.48 252.747 552.744C253.019 552.968 253.419 553.416 253.595 553.704C255.947 552.344 258.107 549.928 259.579 547.16V552.056H256.459V553.24H259.579V556.216H260.811V553.24H263.851V552.056H260.811V547.16C262.251 549.928 264.395 552.36 266.811 553.688C266.987 553.352 267.403 552.888 267.691 552.648C265.179 551.432 262.875 548.888 261.547 546.152H267.147ZM282.043 541.864C280.187 542.424 276.779 542.808 273.979 542.984C274.107 543.256 274.251 543.672 274.283 543.96C277.163 543.784 280.667 543.432 282.859 542.776L282.043 541.864ZM281.115 548.296C281.819 547.304 282.683 545.72 283.339 544.376L282.219 543.96C281.755 545.16 280.875 546.872 280.203 547.912L281.115 548.296ZM279.227 547.096C279.179 546.328 278.859 545.112 278.427 544.168L277.403 544.36C277.819 545.32 278.139 546.584 278.155 547.352L279.227 547.096ZM276.363 547.528C276.203 546.728 275.707 545.496 275.147 544.568L274.203 544.84C274.731 545.8 275.195 547.048 275.339 547.864L276.363 547.528ZM273.771 549.448L273.611 548.344C273.083 548.52 272.555 548.696 272.027 548.856V545.912H273.739V544.824H272.027V541.624H270.923V544.824H268.923V545.912H270.923V549.192C270.091 549.448 269.323 549.688 268.715 549.848L269.019 551L270.923 550.376V554.84C270.923 555.08 270.843 555.128 270.651 555.128C270.459 555.144 269.835 555.144 269.147 555.128C269.307 555.448 269.451 555.944 269.499 556.216C270.491 556.232 271.099 556.184 271.483 556.008C271.883 555.816 272.027 555.496 272.027 554.84V550.024L273.771 549.448ZM283.307 550.52V549.448H279.211V547.688H278.091V549.448H274.043V550.52H277.323C276.347 552.104 274.747 553.576 273.115 554.328C273.387 554.52 273.739 554.952 273.931 555.256C275.499 554.392 277.051 552.888 278.091 551.192V556.12H279.211V551.176C280.171 552.792 281.611 554.344 282.987 555.208C283.179 554.92 283.531 554.504 283.787 554.312C282.379 553.56 280.859 552.056 279.963 550.52H283.307ZM292.875 550.216V547.56H297.179V550.216H292.875ZM287.803 550.216C287.851 549.624 287.867 549.032 287.867 548.504V547.56H291.691V550.216H287.803ZM291.691 543.88V546.44H287.867V543.88H291.691ZM297.179 546.44H292.875V543.88H297.179V546.44ZM298.347 542.744H286.699V548.504C286.699 550.728 286.539 553.544 284.779 555.528C285.035 555.672 285.515 556.072 285.691 556.312C286.907 554.952 287.451 553.128 287.691 551.352H291.691V556.072H292.875V551.352H297.179V554.6C297.179 554.904 297.067 555 296.747 555.016C296.459 555.016 295.371 555.032 294.251 554.984C294.411 555.304 294.603 555.816 294.651 556.136C296.155 556.152 297.083 556.136 297.627 555.944C298.139 555.736 298.347 555.384 298.347 554.616V542.744ZM301.467 544.472L301.611 545.864C303.339 545.496 307.419 545.112 309.131 544.92C307.659 545.8 306.139 547.832 306.139 550.328C306.139 553.896 309.515 555.48 312.475 555.592L312.939 554.264C310.331 554.168 307.419 553.176 307.419 550.056C307.419 548.152 308.811 545.72 311.083 544.984C311.899 544.744 313.307 544.728 314.219 544.728V543.448C313.147 543.496 311.643 543.592 309.899 543.736C306.955 543.976 303.931 544.28 302.891 544.392C302.587 544.424 302.075 544.456 301.467 544.472ZM311.915 546.696L311.099 547.048C311.579 547.704 312.043 548.536 312.411 549.304L313.227 548.92C312.891 548.216 312.283 547.224 311.915 546.696ZM313.659 546.024L312.875 546.392C313.371 547.064 313.835 547.848 314.219 548.632L315.051 548.232C314.683 547.528 314.043 546.552 313.659 546.024ZM323.339 553.08C323.339 552.296 324.187 551.784 325.387 551.784C325.963 551.784 326.507 551.88 327.019 552.04C327.035 552.248 327.035 552.44 327.035 552.6C327.035 553.656 326.635 554.344 325.291 554.344C324.139 554.344 323.339 553.896 323.339 553.08ZM328.187 542.68H326.747C326.779 542.952 326.811 543.384 326.811 543.656V545.64C326.315 545.656 325.803 545.672 325.307 545.672C324.347 545.672 323.499 545.624 322.587 545.544V546.744C323.531 546.808 324.363 546.856 325.275 546.856C325.787 546.856 326.299 546.84 326.811 546.824C326.827 548.136 326.923 549.704 326.971 550.936C326.507 550.84 326.011 550.792 325.483 550.792C323.387 550.792 322.187 551.864 322.187 553.208C322.187 554.648 323.371 555.496 325.515 555.496C327.675 555.496 328.283 554.232 328.283 552.92C328.283 552.808 328.283 552.696 328.283 552.584C329.099 553.048 329.899 553.688 330.699 554.44L331.403 553.368C330.571 552.616 329.531 551.816 328.235 551.304C328.171 549.96 328.059 548.36 328.043 546.744C329.003 546.68 329.931 546.584 330.811 546.44V545.208C329.963 545.368 329.019 545.496 328.043 545.576C328.059 544.824 328.075 544.072 328.091 543.64C328.107 543.32 328.139 543 328.187 542.68ZM320.283 542.776L318.875 542.664C318.875 543 318.827 543.432 318.779 543.8C318.571 545.128 318.043 548.184 318.043 550.536C318.043 552.696 318.331 554.456 318.651 555.592L319.771 555.512C319.755 555.336 319.739 555.112 319.739 554.952C319.723 554.76 319.755 554.456 319.803 554.232C319.963 553.448 320.555 551.816 320.939 550.696L320.283 550.184C320.011 550.84 319.627 551.816 319.371 552.536C319.259 551.752 319.211 551.08 319.211 550.312C319.211 548.52 319.691 545.352 320.011 543.864C320.059 543.576 320.187 543.048 320.283 542.776ZM335.179 544.952H347.291V543.912H344.443C344.923 543.352 345.467 542.632 345.979 541.944L344.779 541.56C344.443 542.216 343.771 543.176 343.259 543.768L343.643 543.912H340.043L341.003 543.512C340.843 542.984 340.411 542.168 339.979 541.576L338.987 541.96C339.387 542.568 339.787 543.368 339.915 543.912H336.619L337.275 543.56C337.019 543.032 336.443 542.264 335.931 541.72L334.955 542.2C335.387 542.712 335.851 543.384 336.123 543.912H334.107V548.472C334.107 550.6 333.979 553.512 332.747 555.56C333.003 555.688 333.467 556.04 333.643 556.248C334.987 554.056 335.179 550.76 335.179 548.488V544.952ZM339.819 549.944H337.371V548.808H339.819V549.944ZM337.371 552.776H339.819V553.912C338.971 553.992 338.139 554.088 337.371 554.152V552.776ZM337.371 550.76H339.819V551.944H337.371V550.76ZM341.499 548.808V547.912H339.115V546.68H341.259V545.8H336.011V546.68H338.075V547.912H335.611V548.808H336.379V554.248C335.931 554.28 335.499 554.312 335.131 554.344L335.371 555.304C336.619 555.176 338.235 555 339.819 554.808V556.248H340.827V548.808H341.499ZM343.307 548.136H345.627C345.387 549.64 344.987 550.936 344.395 552.024C343.851 551 343.451 549.8 343.179 548.52L343.307 548.136ZM347.451 548.136V547.16H343.595C343.723 546.632 343.851 546.104 343.947 545.56L342.891 545.368C342.539 547.368 341.947 549.256 340.987 550.504C341.243 550.664 341.627 551.064 341.803 551.256C342.091 550.856 342.363 550.408 342.603 549.912C342.907 551.048 343.307 552.088 343.803 552.984C343.083 553.992 342.155 554.776 340.971 555.384C341.211 555.576 341.563 556.04 341.691 556.248C342.779 555.624 343.675 554.872 344.395 553.944C345.083 554.936 345.947 555.72 346.987 556.264C347.163 555.992 347.483 555.576 347.723 555.368C346.635 554.872 345.739 554.072 345.019 553.048C345.835 551.72 346.379 550.104 346.731 548.136H347.451ZM361.611 544.104H358.539V545.768C358.539 546.728 358.875 546.968 360.059 546.968H362.203C363.051 546.968 363.355 546.68 363.467 545.608C363.179 545.544 362.795 545.416 362.587 545.272C362.539 546.024 362.459 546.12 362.075 546.12H360.171C359.643 546.12 359.547 546.056 359.547 545.752V544.936H362.667V542.232H358.235V543.064H361.611V544.104ZM356.459 544.104H353.323V545.768C353.323 546.728 353.627 546.968 354.811 546.968H356.795C357.611 546.968 357.915 546.696 358.027 545.656C357.739 545.608 357.355 545.48 357.147 545.32C357.099 546.024 357.019 546.12 356.635 546.12H354.907C354.395 546.12 354.315 546.056 354.315 545.768V544.936H357.467V542.232H353.035V543.064H356.459V544.104ZM356.715 549.24H359.339V550.76H356.715V549.24ZM363.371 550.76H360.475V549.24H362.875V548.328H360.475V547.176H359.339V548.328H356.715V547.176H355.611V548.328H353.243V549.24H355.611V550.76H352.731V551.688H363.371V550.76ZM363.131 553.816C362.379 553.224 361.067 552.456 359.899 551.896L359.051 552.424C360.155 552.984 361.307 553.736 361.979 554.328L363.131 553.816ZM356.139 551.864C355.435 552.504 354.251 553.112 353.163 553.544C353.419 553.704 353.851 554.088 354.043 554.296C355.099 553.784 356.379 553 357.195 552.232L356.139 551.864ZM352.427 544.648C351.979 543.848 350.923 542.744 349.979 541.992L349.067 542.6C349.995 543.384 351.019 544.52 351.435 545.32L352.427 544.648ZM352.059 547.88H348.987V549H350.955V553.128C350.251 553.8 349.467 554.472 348.795 554.968L349.419 556.072C350.187 555.368 350.907 554.696 351.579 553.992C352.571 555.256 354.027 555.832 356.139 555.912C357.947 555.976 361.403 555.944 363.211 555.864C363.259 555.528 363.451 555 363.595 554.744C361.643 554.872 357.915 554.92 356.107 554.84C354.235 554.76 352.811 554.216 352.059 553.016V547.88Z" fill="#545252"/>
<path d="M58 549.884L61.5686 555L71 545" stroke="#FF5A5F" stroke-width="2"/>
<path d="M35 55C35 43.9543 43.9543 35 55 35H367C378.046 35 387 43.9543 387 55V204H35V55Z" fill="#FF5A5F" fill-opacity="0.8"/>
<path d="M146.02 88.66L143.56 86.83C142.96 87.04 141.76 87.22 140.47 87.22H129.88C128.98 87.22 127.15 87.13 126.34 87.01V91.27C126.97 91.24 128.62 91.06 129.88 91.06H140.05C139.39 93.19 137.56 96.16 135.58 98.41C132.76 101.56 128.11 105.22 123.28 107.02L126.37 110.26C130.48 108.31 134.47 105.19 137.65 101.83C140.47 104.56 143.26 107.62 145.21 110.32L148.63 107.35C146.86 105.19 143.23 101.35 140.26 98.77C142.27 96.07 143.95 92.86 144.97 90.52C145.24 89.92 145.78 88.99 146.02 88.66ZM168.07 85.24L163.72 83.89C163.45 84.91 162.82 86.29 162.34 87.01C160.84 89.62 158.05 93.73 152.8 97L156.04 99.49C159.07 97.39 161.86 94.51 163.96 91.72H172.54C172.09 93.58 170.8 96.19 169.24 98.35C167.35 97.09 165.46 95.86 163.87 94.96L161.2 97.69C162.73 98.65 164.71 100 166.66 101.44C164.17 103.93 160.84 106.36 155.65 107.95L159.13 110.98C163.81 109.21 167.23 106.66 169.87 103.87C171.1 104.86 172.21 105.79 173.02 106.54L175.87 103.15C175 102.43 173.83 101.56 172.54 100.63C174.67 97.63 176.17 94.42 176.98 91.99C177.25 91.24 177.64 90.43 177.97 89.86L174.91 87.97C174.25 88.18 173.23 88.3 172.3 88.3H166.21C166.57 87.64 167.32 86.29 168.07 85.24ZM188.23 86.2L185.41 89.2C187.6 90.73 191.35 94 192.91 95.68L195.97 92.56C194.23 90.73 190.33 87.61 188.23 86.2ZM184.48 106.18L187 110.14C191.23 109.42 195.1 107.74 198.13 105.91C202.96 103 206.95 98.86 209.23 94.81L206.89 90.58C205 94.63 201.1 99.22 195.97 102.25C193.06 103.99 189.16 105.52 184.48 106.18ZM234.37 84.37L232 85.33C232.66 86.29 233.38 87.61 233.95 88.75C233.29 88.93 232.42 89.02 231.61 89.02H225.49C225.85 88.36 226.63 87.01 227.35 85.96L223 84.61C222.73 85.63 222.1 87.01 221.65 87.73C220.12 90.34 217.33 94.45 212.08 97.69L215.32 100.21C218.35 98.11 221.14 95.23 223.24 92.44H231.82C231.37 94.3 230.08 96.88 228.55 99.07C226.63 97.78 224.74 96.55 223.15 95.65L220.48 98.38C222.01 99.37 223.99 100.72 225.94 102.13C223.48 104.65 220.15 107.08 214.96 108.67L218.44 111.7C223.12 109.93 226.51 107.38 229.15 104.59C230.38 105.58 231.49 106.51 232.3 107.26L235.18 103.87C234.28 103.15 233.11 102.28 231.82 101.35C233.98 98.35 235.48 95.14 236.26 92.71C236.53 91.96 236.92 91.15 237.25 90.55L235.06 89.2L236.74 88.48C236.2 87.37 235.12 85.45 234.37 84.37ZM237.91 82.99L235.54 83.98C236.38 85.12 237.34 86.86 237.97 88.12L240.34 87.07C239.8 86.02 238.69 84.13 237.91 82.99ZM243.76 95.11V99.82C244.87 99.73 246.88 99.67 248.59 99.67H264.7C265.96 99.67 267.49 99.79 268.21 99.82V95.11C267.43 95.17 266.11 95.29 264.7 95.29H248.59C247.03 95.29 244.84 95.2 243.76 95.11ZM291.46 86.68L288.94 87.73C290.05 89.29 290.71 90.49 291.58 92.38L294.19 91.21C293.5 89.86 292.3 87.94 291.46 86.68ZM295.39 85.03L292.9 86.2C294.01 87.7 294.73 88.81 295.69 90.7L298.21 89.47C297.52 88.12 296.26 86.23 295.39 85.03ZM279.49 106.57C279.49 107.74 279.37 109.57 279.19 110.74H283.9C283.75 109.51 283.6 107.41 283.6 106.57V98.08C286.84 99.16 291.34 100.9 294.46 102.55L296.14 98.38C293.38 97.03 287.59 94.9 283.6 93.7V89.32C283.6 88.06 283.75 86.74 283.87 85.69H279.19C279.4 86.77 279.49 88.24 279.49 89.32V106.57Z" fill="white"/>
<path d="M116.99 155.608C116.654 156.742 116.192 157.778 115.646 158.716C115.408 157.596 115.212 156.28 115.086 154.88H119.412V153.228H117.956L118.628 152.514C118.138 152.052 117.116 151.408 116.346 151.016L115.338 152.01C115.912 152.36 116.612 152.808 117.13 153.228H114.988C114.96 152.542 114.946 151.856 114.96 151.156H113.21C113.21 151.856 113.238 152.542 113.266 153.228H107.554V157.316C107.554 159.136 107.456 161.572 106.392 163.252C106.77 163.448 107.512 164.064 107.806 164.386C108.954 162.678 109.248 159.948 109.304 157.904H111.124C111.082 159.668 111.026 160.34 110.886 160.536C110.774 160.676 110.662 160.704 110.466 160.704C110.242 160.704 109.766 160.69 109.262 160.648C109.514 161.068 109.696 161.712 109.724 162.202C110.368 162.216 110.97 162.216 111.334 162.16C111.754 162.09 112.034 161.964 112.3 161.6C112.622 161.194 112.706 159.948 112.748 157.008C112.748 156.812 112.762 156.378 112.762 156.378H109.304V154.88H113.364C113.546 156.98 113.854 158.94 114.33 160.522C113.518 161.432 112.552 162.202 111.474 162.79C111.824 163.112 112.426 163.798 112.678 164.162C113.546 163.63 114.33 163 115.044 162.258C115.66 163.406 116.43 164.106 117.41 164.106C118.712 164.106 119.272 163.49 119.538 160.9C119.09 160.718 118.502 160.354 118.124 159.962C118.054 161.712 117.886 162.412 117.55 162.412C117.102 162.412 116.654 161.824 116.248 160.816C117.256 159.458 118.082 157.834 118.656 156.014L116.99 155.608ZM123.892 156.252V155.356H126.146V156.252H123.892ZM123.892 153.172H126.146V154.068H123.892V153.172ZM130.136 154.068H127.91V153.172H130.136V154.068ZM130.136 156.252H127.91V155.356H130.136V156.252ZM133.258 159.99V158.464H127.91V157.638H131.97V151.786H122.142V157.638H126.146V158.464H120.784V159.99H124.928C123.752 161.04 122.016 161.964 120.35 162.454C120.728 162.804 121.232 163.448 121.484 163.84C123.15 163.224 124.858 162.132 126.146 160.844V164.218H127.91V160.774C129.212 162.048 130.92 163.14 132.544 163.756C132.782 163.336 133.286 162.678 133.664 162.342C132.068 161.88 130.36 160.984 129.128 159.99H133.258ZM138.732 157.75H136.702L137.15 157.624C137.094 157.232 136.898 156.63 136.66 156.126H138.788C138.662 156.602 138.452 157.204 138.284 157.624L138.732 157.75ZM138.494 153.76H140.314V152.388H138.494V151.17H136.954V152.388H134.952V153.76H136.954V154.726H134.462V156.126H135.848L135.344 156.252C135.54 156.714 135.722 157.302 135.806 157.75H134.756V159.15H136.954V160.228H134.868V161.628H136.954V164.176H138.494V161.628H140.468V160.228H138.494V159.15H140.622V157.75H139.572C139.768 157.33 139.978 156.784 140.216 156.266L139.67 156.126H140.832V154.726H138.494V153.76ZM142.596 158.422C142.946 159.528 143.394 160.55 143.94 161.446C143.548 161.992 143.1 162.468 142.596 162.874V158.422ZM145.508 157.848C145.34 158.604 145.088 159.346 144.766 160.018C144.36 159.346 144.024 158.618 143.772 157.848H145.508ZM146.25 156.462L145.97 156.532H142.596V153.186H145.382V154.334C145.382 154.488 145.312 154.53 145.102 154.544C144.892 154.544 144.122 154.544 143.436 154.516C143.632 154.922 143.842 155.496 143.912 155.944C144.934 155.944 145.69 155.93 146.222 155.706C146.768 155.482 146.922 155.076 146.922 154.362V151.73H141.084V164.204H142.596V163.378C142.89 163.644 143.184 163.966 143.366 164.246C143.94 163.826 144.444 163.322 144.892 162.748C145.41 163.336 145.984 163.84 146.642 164.232C146.88 163.812 147.356 163.224 147.72 162.916C146.992 162.552 146.348 162.02 145.774 161.39C146.488 160.074 146.978 158.506 147.244 156.812L146.25 156.462ZM149.876 161.992V161.04H152.648V161.992H149.876ZM150.31 155.692V156.882C150.31 157.442 150.268 158.114 149.876 158.674V155.692H150.31ZM151.038 152.99H151.472V154.348H151.038V152.99ZM152.648 157.862H152.606H152.354C152.256 157.862 152.228 157.834 152.228 157.652V155.692H152.648V157.862ZM151.038 155.692H151.472V157.68C151.472 158.478 151.64 158.66 152.256 158.66H152.648V159.864H149.876V158.968C150.03 159.094 150.212 159.262 150.31 159.374C150.912 158.674 151.038 157.666 151.038 156.896V155.692ZM159.704 151.464V156.518C159.536 156.098 159.34 155.678 159.144 155.3L158.766 155.51V151.73H157.436V156.49C157.31 156.126 157.17 155.748 157.03 155.412L156.54 155.678V151.492H155.21V155.482L154.426 155.258C154.356 156.336 154.188 157.568 153.838 158.338V154.348H152.494V152.99H154.006V151.688H148.56V152.99H150.03V154.348H148.756V164.106H149.876V163.266H152.648V163.924H153.838V158.562L154.594 159.234C154.902 158.618 155.098 157.834 155.21 157.036V157.05C155.21 159.374 155.07 161.628 154.02 163.434C154.398 163.602 154.958 164.008 155.238 164.274C156.4 162.258 156.54 159.654 156.54 157.05C156.75 157.708 156.904 158.394 156.96 158.898L157.436 158.632V163.812H158.766V157.106C158.99 157.736 159.172 158.366 159.256 158.828L159.704 158.59V164.218H161.104V151.478L159.704 151.464ZM174.684 151.296H173.102V157.246C173.102 157.428 173.032 157.47 172.836 157.484C172.626 157.498 171.954 157.498 171.324 157.47C171.52 157.876 171.744 158.506 171.814 158.94C172.794 158.94 173.508 158.898 174.012 158.674C174.544 158.436 174.684 158.044 174.684 157.274V151.296ZM172.08 151.94H170.554V156.672H172.08V151.94ZM165.92 154.558V153.088H167.096V154.558H165.92ZM169.854 162.23V161.11H173.9V159.598H169.854V158.478H168.65V156.028H169.966V154.558H168.65V153.088H169.644V151.632H163.288V153.088H164.394V154.558H162.812V156.028H164.226C164.016 156.728 163.554 157.4 162.518 157.932C162.812 158.156 163.4 158.786 163.61 159.094C164.996 158.324 165.584 157.176 165.808 156.028H167.096V158.716H168.146V159.598H164.086V161.11H168.146V162.23H162.672V163.77H175.286V162.23H169.854ZM184.23 157.429H186.698V159.213H184.23V162.002H182.351V159.213H179.876V157.429H182.351V154.756H184.23V157.429ZM195.515 157.162L194.451 157.442V155.314H195.613V153.788H194.451V151.156H192.855V153.788H191.231V155.314H192.855V157.834C192.141 158.002 191.483 158.156 190.951 158.268L191.301 159.878L192.855 159.458V162.328C192.855 162.538 192.785 162.594 192.617 162.594C192.435 162.608 191.861 162.608 191.315 162.58C191.525 163.042 191.735 163.756 191.777 164.204C192.743 164.204 193.401 164.148 193.863 163.868C194.311 163.616 194.451 163.168 194.451 162.342V159.01C194.871 158.884 195.291 158.772 195.697 158.646L195.515 157.162ZM198.385 161.698C197.979 161.698 197.909 161.642 197.909 161.292V160.928C198.889 160.732 200.009 160.438 200.877 160.074L199.911 159.052C199.421 159.304 198.665 159.556 197.909 159.766V159.01H197.545C197.629 158.898 197.699 158.8 197.783 158.688H202.277C202.123 161.306 201.927 162.412 201.647 162.692C201.507 162.832 201.381 162.874 201.143 162.874C201.017 162.874 200.807 162.874 200.555 162.86C201.017 162.678 201.227 162.258 201.339 161.404C200.961 161.32 200.373 161.096 200.093 160.9C200.051 161.586 199.981 161.698 199.659 161.698H198.385ZM197.867 154.586H201.675V155.342H197.867V154.586ZM197.867 152.752H201.675V153.494H197.867V152.752ZM198.609 157.316C198.749 157.05 198.875 156.784 198.973 156.518H203.257V151.576H196.355V156.518H197.265C196.705 157.722 195.823 158.814 194.787 159.514C195.137 159.766 195.711 160.354 195.949 160.648C196.131 160.508 196.313 160.34 196.495 160.172V161.306C196.495 162.58 196.803 162.972 198.203 162.972H199.771C199.953 163.35 200.079 163.84 200.107 164.19C200.807 164.218 201.465 164.218 201.885 164.176C202.333 164.106 202.683 163.994 202.991 163.616C203.439 163.098 203.663 161.67 203.859 157.96C203.887 157.764 203.901 157.316 203.901 157.316H198.609ZM217.775 153.116C217.411 152.556 216.627 151.758 216.011 151.198L214.793 152.01C215.395 152.598 216.165 153.466 216.473 154.012L217.775 153.116ZM212.245 161.782H209.683V161.236H212.063V157.792H209.697V157.246H212.259V156.084H209.697V155.468H212.777C212.889 157.512 213.127 159.388 213.519 160.858C213.127 161.32 212.693 161.726 212.245 162.09V161.782ZM207.093 159.906H208.353V160.424H207.093V159.906ZM207.093 158.604H208.353V159.122H207.093V158.604ZM209.557 159.122V158.604H210.845V159.122H209.557ZM209.557 160.424V159.906H210.845V160.424H209.557ZM216.067 156.07C215.745 157.148 215.311 158.156 214.793 159.052C214.611 158.016 214.485 156.798 214.401 155.468H217.971V154.096H214.345C214.317 153.144 214.303 152.164 214.331 151.156H212.651C212.651 152.15 212.665 153.13 212.707 154.096H209.767V153.354H212.007V152.094H209.767V151.156H208.171V152.094H205.917V153.354H208.171V154.096H205.301V155.468H208.199V156.084H205.679V157.246H208.199V157.792H205.931V161.236H208.227V161.782H205.483V162.986H208.227V164.232H209.683V162.986H210.985C211.391 163.322 211.853 163.826 212.091 164.246C212.833 163.756 213.505 163.182 214.121 162.552C214.639 163.602 215.325 164.218 216.221 164.218C217.453 164.218 217.957 163.616 218.181 161.18C217.775 161.026 217.215 160.676 216.865 160.298C216.795 161.922 216.655 162.594 216.375 162.594C215.955 162.594 215.591 162.062 215.283 161.152C216.235 159.836 216.991 158.282 217.551 156.532L216.067 156.07ZM223.739 151.576H219.749V152.836H223.739V151.576ZM224.145 153.452H219.077V154.768H224.145V153.452ZM223.781 155.398H219.707V156.672H223.781V155.398ZM219.707 158.562H223.781V157.316H219.707V158.562ZM222.409 162.174H221.037V160.564H222.409V162.174ZM226.203 155.16H227.379V156.056H226.203V155.16ZM226.203 152.976H227.379V153.886H226.203V152.976ZM230.053 153.886H228.821V152.976H230.053V153.886ZM230.053 156.056H228.821V155.16H230.053V156.056ZM231.901 159.654V158.184H228.919V157.372H231.593V151.674H224.719V157.372H227.295V158.184H224.313V159.654H226.609C225.923 160.746 224.873 161.768 223.795 162.356V159.248H219.665V164.022H221.037V163.476H223.795V162.468C224.145 162.776 224.607 163.322 224.845 163.686C225.755 163.098 226.609 162.188 227.295 161.152V164.204H228.919V161.012C229.591 162.048 230.417 163.014 231.215 163.63C231.467 163.238 231.971 162.65 232.335 162.37C231.355 161.768 230.291 160.718 229.591 159.654H231.901ZM238.663 159.584V162.384H236.773L237.921 161.894C237.711 161.25 237.165 160.298 236.633 159.584H238.663ZM237.081 155.314C238.089 154.474 238.957 153.564 239.559 152.724C240.175 153.564 241.099 154.474 242.135 155.314H237.081ZM242.359 159.584C242.051 160.326 241.491 161.348 241.029 162.006L241.939 162.384H240.413V159.584H244.725V158.156H240.413V156.77H243.087V156.042C243.787 156.546 244.515 157.008 245.215 157.372C245.523 156.854 245.901 156.294 246.321 155.874C244.109 154.978 241.855 153.214 240.343 151.1H238.621C237.585 152.78 235.345 154.88 232.965 156.042C233.329 156.392 233.791 156.994 234.001 157.386C234.715 157.008 235.429 156.56 236.087 156.084V156.77H238.663V158.156H234.407V159.584H236.549L235.275 160.13C235.765 160.816 236.227 161.754 236.437 162.384H233.707V163.812H245.551V162.384H242.387C242.877 161.796 243.423 160.942 243.955 160.172L242.359 159.584ZM259.299 151.296H257.717V157.246C257.717 157.428 257.647 157.47 257.451 157.484C257.241 157.498 256.569 157.498 255.939 157.47C256.135 157.876 256.359 158.506 256.429 158.94C257.409 158.94 258.123 158.898 258.627 158.674C259.159 158.436 259.299 158.044 259.299 157.274V151.296ZM256.695 151.94H255.169V156.672H256.695V151.94ZM250.535 154.558V153.088H251.711V154.558H250.535ZM254.469 162.23V161.11H258.515V159.598H254.469V158.478H253.265V156.028H254.581V154.558H253.265V153.088H254.259V151.632H247.903V153.088H249.009V154.558H247.427V156.028H248.841C248.631 156.728 248.169 157.4 247.133 157.932C247.427 158.156 248.015 158.786 248.225 159.094C249.611 158.324 250.199 157.176 250.423 156.028H251.711V158.716H252.761V159.598H248.701V161.11H252.761V162.23H247.287V163.77H259.901V162.23H254.469ZM273.593 158.072C273.593 155.02 271.409 152.612 267.937 152.612C264.311 152.612 261.511 155.37 261.511 158.604C261.511 160.97 262.799 162.678 264.353 162.678C265.879 162.678 267.083 160.942 267.923 158.114C268.329 156.798 268.567 155.51 268.763 154.32C270.653 154.642 271.703 156.084 271.703 158.016C271.703 160.06 270.303 161.348 268.511 161.768C268.133 161.852 267.741 161.936 267.209 161.992L268.259 163.658C271.787 163.112 273.593 161.026 273.593 158.072ZM263.303 158.422C263.303 156.882 264.549 154.838 266.859 154.362C266.705 155.524 266.439 156.714 266.117 157.75C265.543 159.64 264.997 160.522 264.409 160.522C263.863 160.522 263.303 159.836 263.303 158.422ZM285.871 152.738C285.871 152.29 286.235 151.926 286.683 151.926C287.117 151.926 287.481 152.29 287.481 152.738C287.481 153.172 287.117 153.536 286.683 153.536C286.235 153.536 285.871 153.172 285.871 152.738ZM285.003 152.738C285.003 152.836 285.017 152.92 285.031 153.004C284.737 153.046 284.429 153.06 284.233 153.06H277.751C277.289 153.06 276.491 153.004 276.085 152.948V154.922C276.435 154.894 277.107 154.866 277.751 154.866H284.261C284.079 156.07 283.547 157.652 282.623 158.814C281.489 160.242 279.907 161.46 277.135 162.104L278.661 163.784C281.153 162.972 283.029 161.586 284.289 159.906C285.465 158.352 286.067 156.182 286.389 154.81C286.431 154.684 286.459 154.544 286.501 154.39C286.557 154.404 286.627 154.404 286.683 154.404C287.593 154.404 288.349 153.648 288.349 152.738C288.349 151.814 287.593 151.058 286.683 151.058C285.759 151.058 285.003 151.814 285.003 152.738ZM291.737 152.262V154.068C292.143 154.04 292.745 154.026 293.193 154.026H298.555C299.059 154.026 299.717 154.04 300.095 154.068V152.262C299.703 152.318 299.017 152.332 298.583 152.332H293.193C292.717 152.332 292.129 152.318 291.737 152.262ZM301.271 156.322L300.025 155.552C299.829 155.636 299.451 155.692 299.003 155.692H292.073C291.639 155.692 291.037 155.65 290.449 155.608V157.428C291.037 157.372 291.737 157.358 292.073 157.358H298.835C298.583 158.142 298.149 159.01 297.393 159.78C296.329 160.872 294.649 161.796 292.549 162.23L293.935 163.812C295.727 163.308 297.519 162.356 298.933 160.788C299.983 159.626 300.585 158.268 301.005 156.91C301.061 156.756 301.173 156.504 301.271 156.322ZM305.989 152.36L304.673 153.76C305.695 154.474 307.445 156 308.173 156.784L309.601 155.328C308.789 154.474 306.969 153.018 305.989 152.36ZM304.239 161.684L305.415 163.532C307.389 163.196 309.195 162.412 310.609 161.558C312.863 160.2 314.725 158.268 315.789 156.378L314.697 154.404C313.815 156.294 311.995 158.436 309.601 159.85C308.243 160.662 306.423 161.376 304.239 161.684Z" fill="white"/>
<path d="M109.031 292.776L110.039 294.792C112.007 294.216 114.039 293.352 115.687 292.488V297.608C115.687 298.312 115.639 299.32 115.575 299.704H118.103C117.991 299.304 117.959 298.312 117.959 297.608V291.144C119.511 290.12 121.047 288.872 122.263 287.672L120.535 286.024C119.495 287.288 117.671 288.888 116.023 289.912C114.247 291 111.895 292.04 109.031 292.776ZM127.895 286.84L126.391 288.44C127.559 289.256 129.559 291 130.391 291.896L132.023 290.232C131.095 289.256 129.015 287.592 127.895 286.84ZM125.895 297.496L127.239 299.608C129.495 299.224 131.559 298.328 133.175 297.352C135.751 295.8 137.879 293.592 139.095 291.432L137.847 289.176C136.839 291.336 134.759 293.784 132.023 295.4C130.471 296.328 128.391 297.144 125.895 297.496ZM149.143 286.328L146.823 285.608C146.679 286.152 146.343 286.888 146.087 287.272C145.287 288.664 143.799 290.856 140.999 292.6L142.727 293.928C144.343 292.808 145.831 291.272 146.951 289.784H151.527C151.287 290.776 150.599 292.168 149.767 293.32C148.759 292.648 147.751 291.992 146.903 291.512L145.479 292.968C146.295 293.48 147.351 294.2 148.391 294.968C147.063 296.296 145.287 297.592 142.519 298.44L144.375 300.056C146.871 299.112 148.695 297.752 150.103 296.264C150.759 296.792 151.351 297.288 151.783 297.688L153.303 295.88C152.839 295.496 152.215 295.032 151.527 294.536C152.663 292.936 153.463 291.224 153.895 289.928C154.039 289.528 154.247 289.096 154.423 288.792L152.791 287.784C152.439 287.896 151.895 287.96 151.399 287.96H148.151C148.343 287.608 148.743 286.888 149.143 286.328ZM157.511 291.592V294.104C158.103 294.056 159.175 294.024 160.087 294.024H168.679C169.351 294.024 170.167 294.088 170.551 294.104V291.592C170.135 291.624 169.431 291.688 168.679 291.688H160.087C159.255 291.688 158.087 291.64 157.511 291.592ZM175.098 286.84L173.594 288.44C174.762 289.256 176.762 291 177.594 291.896L179.226 290.232C178.298 289.256 176.218 287.592 175.098 286.84ZM173.098 297.496L174.442 299.608C176.698 299.224 178.762 298.328 180.378 297.352C182.954 295.8 185.082 293.592 186.298 291.432L185.05 289.176C184.042 291.336 181.962 293.784 179.226 295.4C177.674 296.328 175.594 297.144 173.098 297.496ZM195.018 286.168L192.906 285.992C192.874 286.568 192.762 287.192 192.586 287.832C192.33 287.832 192.058 287.832 191.818 287.832C191.002 287.832 189.818 287.768 189.002 287.64V289.512C189.882 289.576 191.05 289.608 191.706 289.608C191.77 289.608 191.834 289.608 191.914 289.608C191.194 291.048 190.058 292.472 188.378 294.024L190.09 295.304C190.634 294.6 191.098 294.024 191.578 293.544C192.186 292.952 193.178 292.44 194.074 292.44C194.522 292.44 194.954 292.584 195.194 292.984C193.37 293.928 191.45 295.208 191.45 297.256C191.45 299.32 193.306 299.928 195.818 299.928C197.322 299.928 199.29 299.8 200.346 299.656L200.41 297.592C199.002 297.864 197.226 298.04 195.866 298.04C194.298 298.04 193.546 297.8 193.546 296.92C193.546 296.12 194.186 295.496 195.386 294.808C195.37 295.512 195.354 296.28 195.306 296.76H197.226C197.21 296.024 197.178 294.84 197.162 293.944C198.138 293.496 199.05 293.144 199.77 292.856C200.314 292.648 201.162 292.328 201.674 292.184L200.874 290.328C200.282 290.632 199.722 290.888 199.098 291.16C198.442 291.448 197.77 291.72 196.938 292.104C196.586 291.288 195.786 290.872 194.81 290.872C194.282 290.872 193.418 291 193.002 291.192C193.322 290.728 193.642 290.152 193.914 289.56C195.642 289.512 197.61 289.384 199.13 289.16L199.146 287.304C197.738 287.544 196.138 287.688 194.618 287.768C194.826 287.096 194.938 286.568 195.018 286.168ZM207.226 285.432C206.442 287.688 205.066 289.928 203.658 291.336C203.994 291.816 204.506 292.856 204.682 293.32C205.05 292.92 205.434 292.472 205.802 291.976V300.344H207.706V288.936C208.218 287.96 208.65 286.984 209.018 286.008L207.226 285.432ZM212.618 292.024V294.52H210.842V292.024H212.618ZM214.394 296.168V290.376H209.066V297.208H210.842V296.168H214.394ZM218.73 286.824H208.874V288.648H215.85V298.104C215.85 298.408 215.754 298.504 215.434 298.504C215.114 298.504 213.994 298.504 212.954 298.456C213.226 299.016 213.53 299.848 213.594 300.408C215.082 300.408 216.17 300.344 216.842 300.056C217.53 299.752 217.77 299.24 217.77 298.136V288.648H218.73V286.824ZM225.914 285.816C225.802 287.928 226.026 295.192 219.642 298.728C220.282 299.176 220.906 299.752 221.242 300.248C224.618 298.184 226.298 295.096 227.162 292.216C228.058 295.16 229.85 298.456 233.466 300.248C233.77 299.736 234.346 299.08 234.938 298.632C228.97 295.832 228.17 288.936 228.042 286.728C228.058 286.392 228.074 286.072 228.09 285.816H225.914ZM248.938 285.56C246.986 286.136 243.738 286.568 240.89 286.76C241.082 287.16 241.322 287.848 241.386 288.28C244.298 288.12 247.738 287.736 250.202 287.048L248.938 285.56ZM248.458 292.392C249.114 291.448 249.946 289.96 250.634 288.6L248.826 287.944C248.426 289.16 247.61 290.792 246.986 291.8L248.458 292.392ZM246.506 291.128C246.474 290.328 246.154 289.144 245.77 288.216L244.186 288.52C244.538 289.48 244.81 290.712 244.826 291.464L246.506 291.128ZM243.706 291.608C243.562 290.792 243.098 289.544 242.618 288.616L241.114 289C241.562 289.992 241.962 291.272 242.09 292.072L243.706 291.608ZM240.586 292.152L239.29 292.52V290.216H240.746V288.472H239.29V285.464H237.562V288.472H235.882V290.216H237.562V292.984C236.842 293.16 236.17 293.336 235.626 293.448L236.042 295.272C236.506 295.144 237.034 295 237.562 294.84V298.376C237.562 298.584 237.482 298.648 237.29 298.648C237.098 298.664 236.538 298.664 235.962 298.632C236.186 299.144 236.394 299.928 236.442 300.392C237.498 300.408 238.17 300.344 238.666 300.04C239.146 299.736 239.29 299.256 239.29 298.376V294.328C239.802 294.184 240.314 294.024 240.826 293.864L240.586 292.152ZM250.506 295.048V293.4H246.65V291.784H244.858V293.4H241.098V295.048H243.85C242.954 296.36 241.53 297.56 240.074 298.216C240.49 298.568 241.034 299.256 241.338 299.704C242.65 298.968 243.914 297.768 244.858 296.408V300.28H246.65V296.488C247.514 297.752 248.602 298.904 249.706 299.624C249.994 299.176 250.538 298.52 250.954 298.184C249.674 297.512 248.394 296.312 247.562 295.048H250.506ZM260.362 293.928V291.96H263.738V293.928H260.362ZM255.386 293.928C255.418 293.336 255.434 292.76 255.434 292.248V291.96H258.442V293.928H255.386ZM258.442 288.328V290.184H255.434V288.328H258.442ZM263.738 290.184H260.362V288.328H263.738V290.184ZM265.626 286.52H253.546V292.232C253.546 294.472 253.402 297.32 251.658 299.24C252.09 299.464 252.858 300.12 253.162 300.472C254.314 299.224 254.89 297.464 255.178 295.72H258.442V300.184H260.362V295.72H263.738V298.12C263.738 298.408 263.626 298.504 263.322 298.504C263.034 298.504 261.978 298.52 261.082 298.472C261.322 298.968 261.626 299.784 261.69 300.296C263.13 300.312 264.106 300.28 264.762 299.96C265.402 299.672 265.626 299.16 265.626 298.136V286.52ZM273.178 286.312L270.602 286.28C270.746 286.92 270.81 287.688 270.81 288.44C270.81 289.816 270.65 294.024 270.65 296.168C270.65 298.904 272.346 300.056 274.97 300.056C278.618 300.056 280.89 297.912 281.914 296.376L280.458 294.616C279.306 296.36 277.626 297.88 274.986 297.88C273.738 297.88 272.778 297.352 272.778 295.736C272.778 293.752 272.906 290.168 272.97 288.44C273.002 287.8 273.082 286.984 273.178 286.312ZM283.894 287.992L284.102 290.184C285.958 289.784 289.222 289.432 290.726 289.272C289.654 290.088 288.358 291.912 288.358 294.216C288.358 297.672 291.526 299.48 294.87 299.704L295.622 297.512C292.918 297.368 290.454 296.408 290.454 293.784C290.454 291.88 291.894 289.8 293.83 289.288C294.678 289.096 296.054 289.096 296.918 289.08L296.902 287.032C295.782 287.064 294.022 287.176 292.374 287.304C289.446 287.56 286.806 287.8 285.478 287.912C285.158 287.944 284.534 287.976 283.894 287.992ZM305.465 286.184L303.209 286.056C303.241 286.408 303.241 286.728 303.193 287.48C303.161 287.848 303.113 288.28 303.065 288.776C301.897 288.68 300.697 288.472 299.769 288.168L299.657 290.008C300.601 290.28 301.737 290.472 302.841 290.584C302.761 291.304 302.665 292.056 302.569 292.776C301.529 292.664 300.457 292.488 299.417 292.136L299.305 294.072C300.153 294.312 301.209 294.488 302.377 294.6C302.313 295.256 302.265 295.832 302.265 296.216C302.265 298.888 304.041 299.976 306.553 299.976C310.057 299.976 312.233 298.248 312.233 295.832C312.233 294.472 311.737 293.336 310.681 291.992L308.425 292.472C309.481 293.464 310.073 294.488 310.073 295.576C310.073 296.888 308.857 297.912 306.617 297.912C305.049 297.912 304.233 297.208 304.233 295.88C304.233 295.592 304.265 295.192 304.297 294.712C304.505 294.712 304.729 294.712 304.937 294.712C305.945 294.712 306.873 294.648 307.769 294.568L307.817 292.664C306.777 292.792 305.593 292.856 304.601 292.856C304.569 292.856 304.521 292.856 304.489 292.856C304.569 292.136 304.665 291.384 304.761 290.68C306.041 290.68 306.921 290.616 307.881 290.52L307.945 288.616C307.193 288.728 306.169 288.824 305.017 288.84C305.081 288.312 305.145 287.88 305.193 287.608C305.257 287.192 305.321 286.76 305.465 286.184ZM112.122 312.768C112.186 312.096 112.218 311.424 112.234 310.816H118.65V312.768H112.122ZM118.65 307.056V309.008H112.234V307.056H118.65ZM120.666 305.2H110.266V310.464C110.266 312.896 110.042 315.952 107.626 318.016C108.042 318.288 108.81 318.992 109.098 319.392C110.586 318.144 111.386 316.4 111.802 314.608H118.65V316.928C118.65 317.264 118.522 317.392 118.138 317.392C117.786 317.392 116.442 317.408 115.322 317.344C115.626 317.872 116.01 318.784 116.122 319.344C117.77 319.344 118.89 319.312 119.658 318.976C120.394 318.656 120.666 318.112 120.666 316.96V305.2ZM136.33 310.176H133.162V309.2H136.33V310.176ZM136.33 312.464H133.162V311.488H136.33V312.464ZM136.33 314.8H133.162V313.808H136.33V314.8ZM131.45 307.776V316.208H138.122V307.776H135.29C135.418 307.44 135.546 307.072 135.674 306.688H138.442V305.072H130.97V306.688H133.658C133.594 307.04 133.53 307.424 133.466 307.776H131.45ZM125.514 307.248H129.338V308.352H130.922V305.776H128.314V304.48H126.538V305.776H123.978V308.352H125.514V307.248ZM128.394 316.992H126.458V315.52H128.394V316.992ZM126.49 314.048C126.954 313.744 127.402 313.392 127.834 313.008C128.314 313.376 128.794 313.728 129.194 314.048H126.49ZM128.41 309.792C128.186 310.192 127.93 310.576 127.626 310.928L126.522 310.208C126.634 310.064 126.746 309.936 126.858 309.792H128.41ZM130.01 314.72L130.042 314.752L131.114 313.424C130.586 312.976 129.802 312.4 128.938 311.824C129.61 310.992 130.154 310.032 130.522 308.944L129.45 308.448L129.162 308.528H127.674C127.818 308.288 127.93 308.048 128.042 307.792L126.49 307.408C125.914 308.752 124.81 309.968 123.562 310.752C123.914 310.976 124.506 311.552 124.762 311.856C125.002 311.696 125.226 311.504 125.45 311.312L126.506 312.048C125.626 312.784 124.618 313.36 123.562 313.728C123.898 314.032 124.314 314.672 124.522 315.088L124.858 314.944V319.088H126.458V318.448H130.01C130.33 318.752 130.682 319.104 130.89 319.36C132.058 318.896 133.466 318.048 134.298 317.232L132.762 316.272C132.186 316.864 131.066 317.6 130.01 318.032V314.72ZM135.002 317.216C135.866 317.856 136.986 318.8 137.498 319.408L138.97 318.432C138.394 317.824 137.226 316.944 136.378 316.352L135.002 317.216ZM154.074 312.368C154.074 308.88 151.578 306.128 147.61 306.128C143.466 306.128 140.266 309.28 140.266 312.976C140.266 315.68 141.738 317.632 143.514 317.632C145.258 317.632 146.634 315.648 147.594 312.416C148.058 310.912 148.33 309.44 148.554 308.08C150.714 308.448 151.914 310.096 151.914 312.304C151.914 314.64 150.314 316.112 148.266 316.592C147.834 316.688 147.386 316.784 146.778 316.848L147.978 318.752C152.01 318.128 154.074 315.744 154.074 312.368ZM142.314 312.768C142.314 311.008 143.738 308.672 146.378 308.128C146.202 309.456 145.898 310.816 145.53 312C144.874 314.16 144.25 315.168 143.578 315.168C142.954 315.168 142.314 314.384 142.314 312.768ZM166.746 307.248C166.234 306.656 165.098 305.84 164.202 305.312L163.29 306.592C164.17 307.184 165.274 308.048 165.77 308.672L166.746 307.248ZM162.554 310.608C163.482 311.168 164.65 312.016 165.178 312.608L166.138 311.088C165.562 310.512 164.378 309.744 163.45 309.248L162.554 310.608ZM161.114 305.328C160.938 306.448 160.554 308.064 160.234 309.072L161.434 309.408C161.834 308.48 162.298 306.96 162.714 305.68L161.114 305.328ZM158.01 309.072C157.93 308.08 157.61 306.56 157.194 305.408L155.866 305.76C156.234 306.912 156.554 308.464 156.586 309.456L158.01 309.072ZM162.378 314.336C162.042 313.888 160.522 312.096 160.058 311.632V311.52H162.426V309.744H160.058V304.512H158.298V309.744H155.882V311.52H157.706C157.21 312.976 156.394 314.688 155.594 315.664C155.882 316.192 156.298 317.056 156.458 317.632C157.146 316.672 157.786 315.184 158.298 313.696V319.344H160.058V313.728C160.522 314.464 160.97 315.296 161.21 315.808L162.378 314.336ZM170.842 314.704L170.554 312.928L168.922 313.232V304.432H167.13V313.552L162.378 314.4L162.666 316.176L167.13 315.376V319.376H168.922V315.056L170.842 314.704ZM178.154 314.096V317.296H175.994L177.306 316.736C177.066 316 176.442 314.912 175.834 314.096H178.154ZM176.346 309.216C177.498 308.256 178.49 307.216 179.178 306.256C179.882 307.216 180.938 308.256 182.122 309.216H176.346ZM182.378 314.096C182.026 314.944 181.386 316.112 180.858 316.864L181.898 317.296H180.154V314.096H185.082V312.464H180.154V310.88H183.21V310.048C184.01 310.624 184.842 311.152 185.642 311.568C185.994 310.976 186.426 310.336 186.906 309.856C184.378 308.832 181.802 306.816 180.074 304.4H178.106C176.922 306.32 174.362 308.72 171.642 310.048C172.058 310.448 172.586 311.136 172.826 311.584C173.642 311.152 174.458 310.64 175.21 310.096V310.88H178.154V312.464H173.29V314.096H175.738L174.282 314.72C174.842 315.504 175.37 316.576 175.61 317.296H172.49V318.928H186.026V317.296H182.41C182.97 316.624 183.594 315.648 184.202 314.768L182.378 314.096ZM193.178 305.312L190.602 305.28C190.746 305.92 190.81 306.688 190.81 307.44C190.81 308.816 190.65 313.024 190.65 315.168C190.65 317.904 192.346 319.056 194.97 319.056C198.618 319.056 200.89 316.912 201.914 315.376L200.458 313.616C199.306 315.36 197.626 316.88 194.986 316.88C193.738 316.88 192.778 316.352 192.778 314.736C192.778 312.752 192.906 309.168 192.97 307.44C193.002 306.8 193.082 305.984 193.178 305.312ZM210.634 305.36L208.25 305.12C208.266 306.128 208.138 307.296 207.914 308.512C207.098 308.576 206.346 308.624 205.85 308.64C205.258 308.656 204.714 308.688 204.138 308.64L204.33 310.816C204.81 310.736 205.658 310.624 206.106 310.544C206.41 310.512 206.906 310.448 207.482 310.384C206.906 312.576 205.802 315.808 204.25 317.904L206.33 318.736C207.802 316.384 208.986 312.592 209.594 310.16C210.042 310.128 210.442 310.096 210.698 310.096C211.706 310.096 212.25 310.272 212.25 311.552C212.25 313.136 212.042 315.072 211.61 315.984C211.354 316.512 210.938 316.672 210.41 316.672C209.978 316.672 209.066 316.512 208.442 316.336L208.794 318.448C209.338 318.56 210.09 318.672 210.714 318.672C211.914 318.672 212.81 318.32 213.338 317.2C214.026 315.808 214.25 313.216 214.25 311.328C214.25 309.024 213.05 308.272 211.354 308.272C211.018 308.272 210.538 308.304 210.01 308.336C210.122 307.76 210.234 307.168 210.346 306.688C210.426 306.288 210.538 305.776 210.634 305.36ZM216.138 306.864L214.234 307.68C215.37 309.088 216.506 311.984 216.922 313.76L218.954 312.816C218.474 311.296 217.13 308.24 216.138 306.864ZM226.634 305.36L224.25 305.12C224.266 306.128 224.138 307.296 223.914 308.512C223.098 308.576 222.346 308.624 221.85 308.64C221.258 308.656 220.714 308.688 220.138 308.64L220.33 310.816C220.81 310.736 221.658 310.624 222.106 310.544C222.41 310.512 222.906 310.448 223.482 310.384C222.906 312.576 221.802 315.808 220.25 317.904L222.33 318.736C223.802 316.384 224.986 312.592 225.594 310.16C226.042 310.128 226.442 310.096 226.698 310.096C227.706 310.096 228.25 310.272 228.25 311.552C228.25 313.136 228.042 315.072 227.61 315.984C227.354 316.512 226.938 316.672 226.41 316.672C225.978 316.672 225.066 316.512 224.442 316.336L224.794 318.448C225.338 318.56 226.09 318.672 226.714 318.672C227.914 318.672 228.81 318.32 229.338 317.2C230.026 315.808 230.25 313.216 230.25 311.328C230.25 309.024 229.05 308.272 227.354 308.272C227.018 308.272 226.538 308.304 226.01 308.336C226.122 307.76 226.234 307.168 226.346 306.688C226.426 306.288 226.538 305.776 226.634 305.36ZM232.138 306.864L230.234 307.68C231.37 309.088 232.506 311.984 232.922 313.76L234.954 312.816C234.474 311.296 233.13 308.24 232.138 306.864ZM242.634 305.36L240.25 305.12C240.266 306.128 240.138 307.296 239.914 308.512C239.098 308.576 238.346 308.624 237.85 308.64C237.258 308.656 236.714 308.688 236.138 308.64L236.33 310.816C236.81 310.736 237.658 310.624 238.106 310.544C238.41 310.512 238.906 310.448 239.482 310.384C238.906 312.576 237.802 315.808 236.25 317.904L238.33 318.736C239.802 316.384 240.986 312.592 241.594 310.16C242.042 310.128 242.442 310.096 242.698 310.096C243.706 310.096 244.25 310.272 244.25 311.552C244.25 313.136 244.042 315.072 243.61 315.984C243.354 316.512 242.938 316.672 242.41 316.672C241.978 316.672 241.066 316.512 240.442 316.336L240.794 318.448C241.338 318.56 242.09 318.672 242.714 318.672C243.914 318.672 244.81 318.32 245.338 317.2C246.026 315.808 246.25 313.216 246.25 311.328C246.25 309.024 245.05 308.272 243.354 308.272C243.018 308.272 242.538 308.304 242.01 308.336C242.122 307.76 242.234 307.168 242.346 306.688C242.426 306.288 242.538 305.776 242.634 305.36ZM248.138 306.864L246.234 307.68C247.37 309.088 248.506 311.984 248.922 313.76L250.954 312.816C250.474 311.296 249.13 308.24 248.138 306.864ZM257.018 305.152L254.826 305.056C254.826 305.488 254.778 306.128 254.698 306.736C254.474 308.384 254.25 310.368 254.25 311.856C254.25 312.928 254.362 313.904 254.458 314.528L256.426 314.4C256.33 313.648 256.314 313.136 256.346 312.704C256.426 310.592 258.074 307.76 259.962 307.76C261.306 307.76 262.138 309.136 262.138 311.6C262.138 315.472 259.626 316.64 256.074 317.184L257.29 319.04C261.53 318.272 264.298 316.112 264.298 311.584C264.298 308.064 262.57 305.888 260.346 305.888C258.538 305.888 257.146 307.232 256.378 308.48C256.474 307.584 256.794 305.936 257.018 305.152ZM271.786 316.192C271.786 315.648 272.41 315.2 273.546 315.2C273.994 315.2 274.426 315.248 274.858 315.312C274.874 315.6 274.874 315.824 274.874 316C274.874 316.928 274.314 317.168 273.466 317.168C272.362 317.168 271.786 316.8 271.786 316.192ZM276.794 305.056H274.634C274.698 305.36 274.73 305.856 274.73 306.16C274.73 306.352 274.73 306.608 274.73 306.912C274.522 306.912 274.314 306.912 274.106 306.912C273.13 306.912 271.306 306.752 270.154 306.56L270.202 308.384C271.258 308.528 273.114 308.672 274.122 308.672C274.314 308.672 274.506 308.672 274.714 308.672C274.698 309.216 274.698 309.792 274.698 310.32C274.442 310.32 274.186 310.32 273.93 310.32C273.082 310.32 271.114 310.208 270.074 310.016L270.09 311.904C271.146 312.032 272.97 312.112 273.898 312.112C274.186 312.112 274.458 312.112 274.73 312.112C274.746 312.592 274.762 313.104 274.794 313.6C274.474 313.568 274.138 313.552 273.802 313.552C271.338 313.552 269.85 314.688 269.85 316.304C269.85 318 271.194 318.976 273.754 318.976C275.866 318.976 276.906 317.92 276.906 316.56C276.906 316.384 276.906 316.192 276.89 315.968C278.17 316.544 279.258 317.392 280.122 318.192L281.274 316.4C280.346 315.632 278.81 314.56 276.794 313.984C276.746 313.344 276.714 312.688 276.682 312.08C278.218 312.032 279.466 311.92 280.906 311.76L280.922 309.872C279.626 310.048 278.266 310.176 276.65 310.256C276.65 309.76 276.65 309.168 276.65 308.608C278.202 308.528 279.658 308.384 280.714 308.256L280.73 306.416C279.322 306.656 277.994 306.784 276.682 306.848C276.682 306.592 276.682 306.352 276.698 306.192C276.714 305.776 276.746 305.376 276.794 305.056ZM294.998 305.44H292.854C292.902 305.76 292.966 306.512 292.966 306.912V308.72C291.51 308.848 289.958 308.992 288.598 309.12C288.598 308.496 288.614 307.952 288.614 307.584C288.614 306.912 288.63 306.464 288.71 305.92H286.454C286.534 306.496 286.582 307.04 286.582 307.696C286.582 307.968 286.582 308.56 286.582 309.312C286.07 309.36 285.654 309.392 285.366 309.424C284.55 309.504 283.814 309.536 283.35 309.536L283.574 311.584C283.99 311.52 284.982 311.36 285.494 311.296C285.766 311.264 286.134 311.232 286.566 311.184C286.566 312.672 286.566 314.224 286.582 314.912C286.662 317.68 287.158 318.544 291.302 318.544C292.822 318.544 294.79 318.416 295.862 318.288L295.942 316.112C294.742 316.32 292.726 316.512 291.158 316.512C288.758 316.512 288.614 316.16 288.582 314.592C288.55 313.904 288.566 312.432 288.582 310.96C289.942 310.816 291.51 310.672 292.934 310.56C292.918 311.328 292.87 312.064 292.806 312.496C292.774 312.8 292.63 312.864 292.31 312.864C291.99 312.864 291.334 312.768 290.838 312.656L290.79 314.432C291.35 314.512 292.63 314.672 293.206 314.672C294.022 314.672 294.422 314.464 294.598 313.616C294.726 312.944 294.79 311.632 294.838 310.416C295.302 310.384 295.718 310.368 296.07 310.352C296.486 310.336 297.334 310.32 297.606 310.336V308.368C297.142 308.416 296.518 308.448 296.07 308.48C295.702 308.496 295.302 308.528 294.87 308.56C294.886 308.032 294.886 307.456 294.902 306.832C294.918 306.4 294.966 305.696 294.998 305.44ZM307.99 306.112L305.718 305.2C305.446 305.872 305.142 306.4 304.934 306.832C304.086 308.352 300.806 314.88 299.622 318.08L301.878 318.848C302.118 318 302.678 316.208 303.094 315.28C303.67 313.984 304.566 312.864 305.654 312.864C306.23 312.864 306.55 313.2 306.598 313.76C306.646 314.416 306.63 315.728 306.694 316.576C306.758 317.744 307.59 318.8 309.366 318.8C311.814 318.8 313.302 316.976 314.134 314.24L312.406 312.832C311.942 314.816 311.094 316.608 309.702 316.608C309.174 316.608 308.726 316.368 308.662 315.744C308.582 315.072 308.63 313.792 308.598 313.072C308.534 311.744 307.814 310.992 306.614 310.992C306.006 310.992 305.366 311.136 304.774 311.472C305.574 310.064 306.694 308.016 307.478 306.864C307.654 306.608 307.83 306.336 307.99 306.112Z" fill="#545252"/>
<path d="M168.868 364.158V361.078C169.498 362.212 170.254 363.262 171.094 364.158H168.868ZM164.92 364.158C165.746 363.262 166.488 362.226 167.118 361.106V364.158H164.92ZM174.174 359.538V357.858H168.868V355.156H167.118V357.858H161.854V359.538H166.124C165.046 361.694 163.282 363.71 161.308 364.788C161.7 365.11 162.232 365.754 162.526 366.174C163.296 365.684 164.038 365.082 164.71 364.382V365.852H167.118V368.218H168.868V365.852H171.192V364.256C171.892 364.998 172.662 365.628 173.474 366.132C173.768 365.656 174.342 364.956 174.762 364.62C172.76 363.57 170.968 361.638 169.876 359.538H174.174ZM186.984 355.24C185.276 355.744 182.434 356.122 179.942 356.29C180.11 356.64 180.32 357.242 180.376 357.62C182.924 357.48 185.934 357.144 188.09 356.542L186.984 355.24ZM186.564 361.218C187.138 360.392 187.866 359.09 188.468 357.9L186.886 357.326C186.536 358.39 185.822 359.818 185.276 360.7L186.564 361.218ZM184.856 360.112C184.828 359.412 184.548 358.376 184.212 357.564L182.826 357.83C183.134 358.67 183.372 359.748 183.386 360.406L184.856 360.112ZM182.406 360.532C182.28 359.818 181.874 358.726 181.454 357.914L180.138 358.25C180.53 359.118 180.88 360.238 180.992 360.938L182.406 360.532ZM179.676 361.008L178.542 361.33V359.314H179.816V357.788H178.542V355.156H177.03V357.788H175.56V359.314H177.03V361.736C176.4 361.89 175.812 362.044 175.336 362.142L175.7 363.738C176.106 363.626 176.568 363.5 177.03 363.36V366.454C177.03 366.636 176.96 366.692 176.792 366.692C176.624 366.706 176.134 366.706 175.63 366.678C175.826 367.126 176.008 367.812 176.05 368.218C176.974 368.232 177.562 368.176 177.996 367.91C178.416 367.644 178.542 367.224 178.542 366.454V362.912C178.99 362.786 179.438 362.646 179.886 362.506L179.676 361.008ZM188.356 363.542V362.1H184.982V360.686H183.414V362.1H180.124V363.542H182.532C181.748 364.69 180.502 365.74 179.228 366.314C179.592 366.622 180.068 367.224 180.334 367.616C181.482 366.972 182.588 365.922 183.414 364.732V368.12H184.982V364.802C185.738 365.908 186.69 366.916 187.656 367.546C187.908 367.154 188.384 366.58 188.748 366.286C187.628 365.698 186.508 364.648 185.78 363.542H188.356ZM196.98 362.562V360.84H199.934V362.562H196.98ZM192.626 362.562C192.654 362.044 192.668 361.54 192.668 361.092V360.84H195.3V362.562H192.626ZM195.3 357.662V359.286H192.668V357.662H195.3ZM199.934 359.286H196.98V357.662H199.934V359.286ZM201.586 356.08H191.016V361.078C191.016 363.038 190.89 365.53 189.364 367.21C189.742 367.406 190.414 367.98 190.68 368.288C191.688 367.196 192.192 365.656 192.444 364.13H195.3V368.036H196.98V364.13H199.934V366.23C199.934 366.482 199.836 366.566 199.57 366.566C199.318 366.566 198.394 366.58 197.61 366.538C197.82 366.972 198.086 367.686 198.142 368.134C199.402 368.148 200.256 368.12 200.83 367.84C201.39 367.588 201.586 367.14 201.586 366.244V356.08ZM215.978 362.072C215.978 359.02 213.794 356.612 210.322 356.612C206.696 356.612 203.896 359.37 203.896 362.604C203.896 364.97 205.184 366.678 206.738 366.678C208.264 366.678 209.468 364.942 210.308 362.114C210.714 360.798 210.952 359.51 211.148 358.32C213.038 358.642 214.088 360.084 214.088 362.016C214.088 364.06 212.688 365.348 210.896 365.768C210.518 365.852 210.126 365.936 209.594 365.992L210.644 367.658C214.172 367.112 215.978 365.026 215.978 362.072ZM205.688 362.422C205.688 360.882 206.934 358.838 209.244 358.362C209.09 359.524 208.824 360.714 208.502 361.75C207.928 363.64 207.382 364.522 206.794 364.522C206.248 364.522 205.688 363.836 205.688 362.422ZM227.066 357.592C226.618 357.074 225.624 356.36 224.84 355.898L224.042 357.018C224.812 357.536 225.778 358.292 226.212 358.838L227.066 357.592ZM223.398 360.532C224.21 361.022 225.232 361.764 225.694 362.282L226.534 360.952C226.03 360.448 224.994 359.776 224.182 359.342L223.398 360.532ZM222.138 355.912C221.984 356.892 221.648 358.306 221.368 359.188L222.418 359.482C222.768 358.67 223.174 357.34 223.538 356.22L222.138 355.912ZM219.422 359.188C219.352 358.32 219.072 356.99 218.708 355.982L217.546 356.29C217.868 357.298 218.148 358.656 218.176 359.524L219.422 359.188ZM223.244 363.794C222.95 363.402 221.62 361.834 221.214 361.428V361.33H223.286V359.776H221.214V355.198H219.674V359.776H217.56V361.33H219.156C218.722 362.604 218.008 364.102 217.308 364.956C217.56 365.418 217.924 366.174 218.064 366.678C218.666 365.838 219.226 364.536 219.674 363.234V368.176H221.214V363.262C221.62 363.906 222.012 364.634 222.222 365.082L223.244 363.794ZM230.65 364.116L230.398 362.562L228.97 362.828V355.128H227.402V363.108L223.244 363.85L223.496 365.404L227.402 364.704V368.204H228.97V364.424L230.65 364.116ZM237.048 363.584V366.384H235.158L236.306 365.894C236.096 365.25 235.55 364.298 235.018 363.584H237.048ZM235.466 359.314C236.474 358.474 237.342 357.564 237.944 356.724C238.56 357.564 239.484 358.474 240.52 359.314H235.466ZM240.744 363.584C240.436 364.326 239.876 365.348 239.414 366.006L240.324 366.384H238.798V363.584H243.11V362.156H238.798V360.77H241.472V360.042C242.172 360.546 242.9 361.008 243.6 361.372C243.908 360.854 244.286 360.294 244.706 359.874C242.494 358.978 240.24 357.214 238.728 355.1H237.006C235.97 356.78 233.73 358.88 231.35 360.042C231.714 360.392 232.176 360.994 232.386 361.386C233.1 361.008 233.814 360.56 234.472 360.084V360.77H237.048V362.156H232.792V363.584H234.934L233.66 364.13C234.15 364.816 234.612 365.754 234.822 366.384H232.092V367.812H243.936V366.384H240.772C241.262 365.796 241.808 364.942 242.34 364.172L240.744 363.584ZM251.636 365.18C251.636 364.648 252.168 364.312 252.966 364.312C253.344 364.312 253.722 364.368 254.086 364.466C254.086 364.564 254.086 364.648 254.086 364.718C254.086 365.544 253.792 365.992 252.938 365.992C252.196 365.992 251.636 365.754 251.636 365.18ZM255.794 356.038H253.792C253.848 356.318 253.89 356.752 253.89 356.962C253.89 357.256 253.904 357.83 253.904 358.516C253.582 358.53 253.246 358.53 252.924 358.53C252.084 358.53 251.272 358.488 250.474 358.404V360.07C251.3 360.126 252.098 360.154 252.924 360.154C253.246 360.154 253.582 360.154 253.918 360.14C253.932 361.134 253.988 362.156 254.016 363.024C253.736 362.982 253.428 362.968 253.106 362.968C251.202 362.968 249.998 363.948 249.998 365.362C249.998 366.832 251.202 367.644 253.134 367.644C255.024 367.644 255.78 366.692 255.864 365.348C256.424 365.726 256.984 366.216 257.572 366.762L258.538 365.292C257.866 364.676 256.984 363.962 255.822 363.486C255.766 362.534 255.696 361.414 255.668 360.056C256.438 360 257.166 359.916 257.838 359.818V358.068C257.166 358.208 256.438 358.32 255.668 358.39C255.682 357.774 255.696 357.256 255.71 356.948C255.724 356.64 255.752 356.304 255.794 356.038ZM248.962 356.192L247.03 356.024C247.016 356.472 246.946 357.004 246.89 357.396C246.736 358.474 246.316 361.12 246.316 363.234C246.316 365.138 246.582 366.734 246.876 367.714L248.458 367.588C248.444 367.392 248.43 367.154 248.43 367.014C248.43 366.86 248.458 366.552 248.5 366.356C248.668 365.6 249.116 364.172 249.508 363.024L248.654 362.324C248.444 362.8 248.206 363.276 248.024 363.766C247.982 363.486 247.968 363.136 247.968 362.856C247.968 361.456 248.43 358.376 248.64 357.438C248.682 357.186 248.85 356.472 248.962 356.192ZM130.984 371.24C129.276 371.744 126.434 372.122 123.942 372.29C124.11 372.64 124.32 373.242 124.376 373.62C126.924 373.48 129.934 373.144 132.09 372.542L130.984 371.24ZM130.564 377.218C131.138 376.392 131.866 375.09 132.468 373.9L130.886 373.326C130.536 374.39 129.822 375.818 129.276 376.7L130.564 377.218ZM128.856 376.112C128.828 375.412 128.548 374.376 128.212 373.564L126.826 373.83C127.134 374.67 127.372 375.748 127.386 376.406L128.856 376.112ZM126.406 376.532C126.28 375.818 125.874 374.726 125.454 373.914L124.138 374.25C124.53 375.118 124.88 376.238 124.992 376.938L126.406 376.532ZM123.676 377.008L122.542 377.33V375.314H123.816V373.788H122.542V371.156H121.03V373.788H119.56V375.314H121.03V377.736C120.4 377.89 119.812 378.044 119.336 378.142L119.7 379.738C120.106 379.626 120.568 379.5 121.03 379.36V382.454C121.03 382.636 120.96 382.692 120.792 382.692C120.624 382.706 120.134 382.706 119.63 382.678C119.826 383.126 120.008 383.812 120.05 384.218C120.974 384.232 121.562 384.176 121.996 383.91C122.416 383.644 122.542 383.224 122.542 382.454V378.912C122.99 378.786 123.438 378.646 123.886 378.506L123.676 377.008ZM132.356 379.542V378.1H128.982V376.686H127.414V378.1H124.124V379.542H126.532C125.748 380.69 124.502 381.74 123.228 382.314C123.592 382.622 124.068 383.224 124.334 383.616C125.482 382.972 126.588 381.922 127.414 380.732V384.12H128.982V380.802C129.738 381.908 130.69 382.916 131.656 383.546C131.908 383.154 132.384 382.58 132.748 382.286C131.628 381.698 130.508 380.648 129.78 379.542H132.356ZM140.98 378.562V376.84H143.934V378.562H140.98ZM136.626 378.562C136.654 378.044 136.668 377.54 136.668 377.092V376.84H139.3V378.562H136.626ZM139.3 373.662V375.286H136.668V373.662H139.3ZM143.934 375.286H140.98V373.662H143.934V375.286ZM145.586 372.08H135.016V377.078C135.016 379.038 134.89 381.53 133.364 383.21C133.742 383.406 134.414 383.98 134.68 384.288C135.688 383.196 136.192 381.656 136.444 380.13H139.3V384.036H140.98V380.13H143.934V382.23C143.934 382.482 143.836 382.566 143.57 382.566C143.318 382.566 142.394 382.58 141.61 382.538C141.82 382.972 142.086 383.686 142.142 384.134C143.402 384.148 144.256 384.12 144.83 383.84C145.39 383.588 145.586 383.14 145.586 382.244V372.08ZM152.838 371.464C152.74 373.312 152.936 379.668 147.35 382.762C147.91 383.154 148.456 383.658 148.75 384.092C151.704 382.286 153.174 379.584 153.93 377.064C154.714 379.64 156.282 382.524 159.446 384.092C159.712 383.644 160.216 383.07 160.734 382.678C155.512 380.228 154.812 374.194 154.7 372.262C154.714 371.968 154.728 371.688 154.742 371.464H152.838ZM168.504 379.752V378.408C168.588 378.492 168.644 378.562 168.7 378.618C168.924 378.31 169.148 377.974 169.344 377.61C169.596 378.618 169.904 379.542 170.296 380.368C169.68 381.236 168.868 381.936 167.832 382.482C167.51 382.244 167.104 381.992 166.67 381.74C167.02 381.194 167.258 380.536 167.412 379.752H168.504ZM164.486 379.752H165.844C165.718 380.256 165.536 380.676 165.312 381.026C164.906 380.83 164.5 380.662 164.08 380.494L164.486 379.752ZM172.018 375.202C171.864 376.434 171.612 377.54 171.262 378.492C170.884 377.484 170.604 376.378 170.408 375.202H172.018ZM174.524 375.202V373.662H170.8C170.982 372.92 171.136 372.15 171.248 371.366L169.568 371.142C169.232 373.634 168.56 376.014 167.37 377.442C167.678 377.652 168.182 378.086 168.504 378.408H165.172L165.508 377.736L164.906 377.61H165.802V375.916C166.348 376.35 166.936 376.84 167.244 377.134L168.126 375.986C167.818 375.776 166.824 375.188 166.152 374.81H168.448V373.494H167.118C167.454 373.06 167.888 372.472 168.322 371.87L166.922 371.31C166.698 371.842 166.306 372.584 165.984 373.088L166.908 373.494H165.802V371.142H164.276V373.494H163.1L163.996 373.102C163.884 372.612 163.52 371.898 163.156 371.366L161.952 371.87C162.246 372.374 162.554 373.018 162.68 373.494H161.616V374.81H163.8C163.128 375.538 162.19 376.21 161.336 376.56C161.644 376.854 161.994 377.4 162.176 377.764C162.876 377.372 163.632 376.784 164.276 376.14V377.484L163.968 377.414C163.828 377.722 163.66 378.058 163.492 378.408H161.462V379.752H162.792C162.442 380.424 162.092 381.054 161.784 381.544L163.24 381.992L163.394 381.726C163.66 381.838 163.926 381.964 164.178 382.104C163.52 382.482 162.652 382.706 161.518 382.86C161.784 383.196 162.078 383.756 162.176 384.232C163.674 383.924 164.794 383.518 165.62 382.902C166.194 383.266 166.698 383.63 167.076 383.952L167.706 383.308C167.93 383.644 168.14 384.022 168.238 384.26C169.456 383.644 170.422 382.888 171.192 381.964C171.822 382.874 172.592 383.616 173.544 384.19C173.796 383.728 174.314 383.084 174.692 382.748C173.67 382.216 172.858 381.418 172.214 380.424C172.97 379.01 173.446 377.274 173.74 375.202H174.524ZM181.272 373.214V375.006C183.036 375.174 185.57 375.16 187.292 375.006V373.2C185.78 373.382 182.994 373.452 181.272 373.214ZM182.392 379.192L180.782 379.038C180.628 379.752 180.544 380.312 180.544 380.858C180.544 382.3 181.706 383.154 184.114 383.154C185.696 383.154 186.816 383.056 187.726 382.888L187.698 380.998C186.466 381.25 185.43 381.362 184.184 381.362C182.756 381.362 182.224 380.984 182.224 380.368C182.224 379.99 182.28 379.654 182.392 379.192ZM179.116 372.276L177.156 372.108C177.142 372.556 177.058 373.088 177.016 373.48C176.862 374.558 176.428 376.924 176.428 379.024C176.428 380.928 176.694 382.636 176.974 383.602L178.598 383.49C178.584 383.294 178.57 383.07 178.57 382.916C178.57 382.776 178.598 382.468 178.64 382.258C178.794 381.516 179.256 379.99 179.648 378.828L178.78 378.142C178.584 378.604 178.36 379.094 178.15 379.57C178.108 379.29 178.094 378.926 178.094 378.66C178.094 377.26 178.584 374.46 178.766 373.522C178.822 373.27 179.004 372.57 179.116 372.276ZM192.248 374.348H202.356V372.766H197.302V371.156H195.566V372.766H190.582V376.294C190.582 378.31 190.484 381.25 189.336 383.252C189.728 383.434 190.47 383.91 190.778 384.19C192.038 382.006 192.248 378.548 192.248 376.294V374.348ZM199.598 376.42C198.842 375.762 197.33 374.922 196.21 374.39L195.104 375.482C196.252 376.07 197.722 377.008 198.394 377.666L199.598 376.42ZM193.48 383C194.11 381.88 194.362 380.032 194.516 378.422L193.018 378.1C192.878 379.654 192.584 381.278 191.996 382.342L193.48 383ZM197.106 382.468C196.714 382.468 196.658 382.398 196.658 381.894V377.022H195.006V381.908C195.006 383.462 195.356 383.952 196.84 383.952H198.394C199.696 383.952 200.116 383.28 200.27 380.886C199.836 380.774 199.15 380.508 198.8 380.214C198.744 382.146 198.66 382.468 198.24 382.468H197.106ZM199.36 378.31C200.158 379.794 200.886 381.74 201.068 382.986L202.706 382.314C202.482 381.04 201.67 379.192 200.844 377.736L199.36 378.31ZM211.596 373.102L210.378 373.62C210.882 374.334 211.246 375.006 211.666 375.902L212.912 375.356C212.604 374.712 211.988 373.69 211.596 373.102ZM213.472 372.332L212.268 372.892C212.786 373.592 213.164 374.236 213.612 375.118L214.83 374.53C214.522 373.9 213.878 372.906 213.472 372.332ZM207.984 371.982L205.73 371.954C205.842 372.5 205.898 373.172 205.898 373.844C205.898 375.048 205.772 378.73 205.772 380.606C205.772 382.986 207.242 383.994 209.538 383.994C212.73 383.994 214.718 382.132 215.628 380.788L214.354 379.234C213.332 380.76 211.876 382.104 209.566 382.104C208.474 382.104 207.62 381.642 207.62 380.228C207.62 378.478 207.732 375.356 207.802 373.844C207.83 373.284 207.9 372.57 207.984 371.982ZM217.994 373.368L218.176 375.286C219.8 374.936 222.656 374.628 223.972 374.488C223.034 375.202 221.9 376.798 221.9 378.814C221.9 381.838 224.672 383.42 227.598 383.616L228.256 381.698C225.89 381.572 223.734 380.732 223.734 378.436C223.734 376.77 224.994 374.95 226.688 374.502C227.43 374.334 228.634 374.334 229.39 374.32L229.376 372.528C228.396 372.556 226.856 372.654 225.414 372.766C222.852 372.99 220.542 373.2 219.38 373.298C219.1 373.326 218.554 373.354 217.994 373.368ZM238.798 379.024H237.076V377.442H238.798V379.024ZM241.808 377.442V376.994C242.34 377.4 242.914 377.75 243.53 378.044C243.782 377.596 244.286 376.938 244.678 376.616C243.88 376.294 243.152 375.86 242.494 375.328C243.11 374.894 243.782 374.348 244.356 373.816L243.138 372.948C242.746 373.424 242.13 373.998 241.556 374.46C241.346 374.222 241.136 373.984 240.94 373.732C241.514 373.312 242.158 372.766 242.732 372.248L241.472 371.352C241.15 371.744 240.688 372.234 240.226 372.654C239.946 372.178 239.722 371.674 239.526 371.156L238.028 371.576C238.644 373.228 239.484 374.684 240.576 375.86H235.508C236.488 374.852 237.286 373.606 237.776 372.136L236.67 371.618L236.376 371.674H232.722V373.102H235.578C235.326 373.55 235.032 373.97 234.696 374.362C234.304 374.026 233.772 373.62 233.352 373.326L232.302 374.194C232.764 374.544 233.324 375.02 233.688 375.384C232.974 376 232.176 376.49 231.364 376.826C231.686 377.134 232.148 377.708 232.372 378.086C233.016 377.778 233.646 377.414 234.234 376.98V377.442H235.41V379.024H232.414V380.55H235.186C234.836 381.488 233.996 382.356 232.064 382.944C232.414 383.252 232.918 383.896 233.128 384.274C235.718 383.406 236.642 382.02 236.95 380.55H238.798V382.076C238.798 383.63 239.176 384.12 240.688 384.12H242.214C243.446 384.12 243.88 383.56 244.048 381.712C243.572 381.614 242.9 381.334 242.55 381.054C242.494 382.37 242.424 382.65 242.06 382.65H240.982C240.59 382.65 240.534 382.566 240.534 382.062V380.55H243.516V379.024H240.534V377.442H241.808ZM252.896 382.188V379.374H257.082V377.764H252.896V375.3H257.614V373.676H252.896V371.156H251.146V373.676H248.99C249.228 373.032 249.452 372.374 249.648 371.702L247.926 371.324C247.45 373.228 246.54 375.16 245.448 376.336C245.868 376.56 246.61 377.064 246.946 377.33C247.408 376.784 247.842 376.07 248.248 375.3H251.146V377.764H247.352V379.374H251.146V382.188H245.742V383.826H258.328V382.188H252.896ZM264.194 371.898L261.94 371.87C262.066 372.43 262.122 373.102 262.122 373.76C262.122 374.964 261.982 378.646 261.982 380.522C261.982 382.916 263.466 383.924 265.762 383.924C268.954 383.924 270.942 382.048 271.838 380.704L270.564 379.164C269.556 380.69 268.086 382.02 265.776 382.02C264.684 382.02 263.844 381.558 263.844 380.144C263.844 378.408 263.956 375.272 264.012 373.76C264.04 373.2 264.11 372.486 264.194 371.898ZM276.976 381.418C276.976 380.942 277.522 380.55 278.516 380.55C278.908 380.55 279.286 380.592 279.664 380.648C279.678 380.9 279.678 381.096 279.678 381.25C279.678 382.062 279.188 382.272 278.446 382.272C277.48 382.272 276.976 381.95 276.976 381.418ZM281.358 371.674H279.468C279.524 371.94 279.552 372.374 279.552 372.64C279.552 372.808 279.552 373.032 279.552 373.298C279.37 373.298 279.188 373.298 279.006 373.298C278.152 373.298 276.556 373.158 275.548 372.99L275.59 374.586C276.514 374.712 278.138 374.838 279.02 374.838C279.188 374.838 279.356 374.838 279.538 374.838C279.524 375.314 279.524 375.818 279.524 376.28C279.3 376.28 279.076 376.28 278.852 376.28C278.11 376.28 276.388 376.182 275.478 376.014L275.492 377.666C276.416 377.778 278.012 377.848 278.824 377.848C279.076 377.848 279.314 377.848 279.552 377.848C279.566 378.268 279.58 378.716 279.608 379.15C279.328 379.122 279.034 379.108 278.74 379.108C276.584 379.108 275.282 380.102 275.282 381.516C275.282 383 276.458 383.854 278.698 383.854C280.546 383.854 281.456 382.93 281.456 381.74C281.456 381.586 281.456 381.418 281.442 381.222C282.562 381.726 283.514 382.468 284.27 383.168L285.278 381.6C284.466 380.928 283.122 379.99 281.358 379.486C281.316 378.926 281.288 378.352 281.26 377.82C282.604 377.778 283.696 377.68 284.956 377.54L284.97 375.888C283.836 376.042 282.646 376.154 281.232 376.224C281.232 375.79 281.232 375.272 281.232 374.782C282.59 374.712 283.864 374.586 284.788 374.474L284.802 372.864C283.57 373.074 282.408 373.186 281.26 373.242C281.26 373.018 281.26 372.808 281.274 372.668C281.288 372.304 281.316 371.954 281.358 371.674ZM296.142 371.716H294.112C294.154 371.884 294.21 372.36 294.252 372.934C294.266 373.046 294.266 373.186 294.28 373.368C292.376 373.396 289.828 373.452 288.232 373.452L288.274 375.146C289.996 375.048 292.18 374.964 294.294 374.936C294.308 375.244 294.308 375.566 294.308 375.874C294.126 375.846 293.944 375.832 293.748 375.832C292.222 375.832 290.948 376.868 290.948 378.45C290.948 380.158 292.278 381.026 293.356 381.026C293.58 381.026 293.79 380.998 293.986 380.956C293.216 381.796 291.984 382.258 290.57 382.552L292.068 384.036C295.484 383.084 296.548 380.76 296.548 378.94C296.548 378.212 296.38 377.554 296.044 377.022C296.044 376.406 296.03 375.636 296.03 374.922C297.934 374.922 299.236 374.95 300.076 374.992L300.09 373.34C299.362 373.326 297.444 373.354 296.03 373.354C296.044 373.186 296.044 373.032 296.044 372.92C296.058 372.696 296.114 371.94 296.142 371.716ZM292.628 378.422C292.628 377.68 293.16 377.302 293.706 377.302C294.084 377.302 294.42 377.47 294.616 377.792C294.812 379.024 294.294 379.472 293.706 379.472C293.146 379.472 292.628 379.066 292.628 378.422Z" fill="#545252"/>
<line x1="56" y1="450.5" x2="366" y2="450.5" stroke="#E5E5E5"/>
</svg>
